<?xml version="1.0" encoding="UTF-8" standalone="no"?>
<!-- Created with Inkscape (http://www.inkscape.org/) -->

<svg
   width="512"
   height="512"
   viewBox="0 0 512 512"
   version="1.1"
   id="svg5"
   xml:space="preserve"
   inkscape:version="1.2.2 (b0a8486541, 2022-12-01)"
   sodipodi:docname="logo.svg"
   inkscape:export-filename="logo_out.svg"
   inkscape:export-xdpi="96"
   inkscape:export-ydpi="96"
   xmlns:inkscape="http://www.inkscape.org/namespaces/inkscape"
   xmlns:sodipodi="http://sodipodi.sourceforge.net/DTD/sodipodi-0.dtd"
   xmlns="http://www.w3.org/2000/svg"
   xmlns:svg="http://www.w3.org/2000/svg"><sodipodi:namedview
     id="namedview7"
     pagecolor="#ffffff"
     bordercolor="#000000"
     borderopacity="0.25"
     inkscape:showpageshadow="2"
     inkscape:pageopacity="0.0"
     inkscape:pagecheckerboard="false"
     inkscape:deskcolor="#d1d1d1"
     inkscape:document-units="px"
     showgrid="false"
     inkscape:zoom="0.58300782"
     inkscape:cx="1170.6533"
     inkscape:cy="315.60469"
     inkscape:window-width="2560"
     inkscape:window-height="1381"
     inkscape:window-x="0"
     inkscape:window-y="0"
     inkscape:window-maximized="1"
     inkscape:current-layer="layer5"
     showguides="true" /><defs
     id="defs2" /><g
     inkscape:groupmode="layer"
     id="layer2"
     inkscape:label="disks"
     style="display:none"><ellipse
       style="fill:#ffcc00;fill-opacity:1;stroke-width:0.897333"
       id="path6483"
       cx="254.09924"
       cy="416.28885"
       rx="131.6906"
       ry="27.424902" /><ellipse
       style="fill:#e9c6af;fill-opacity:1;stroke-width:0.924739"
       id="path6483-3"
       cx="252.43909"
       cy="401.20392"
       rx="139.97823"
       ry="27.401344" /><ellipse
       style="fill:#ffcc00;fill-opacity:1;stroke-width:1.05003"
       id="path6483-3-6"
       cx="250.97028"
       cy="332.28784"
       rx="154.67824"
       ry="31.972042" /><ellipse
       style="fill:#d4aa00;fill-opacity:1;stroke-width:1.02936"
       id="path6483-3-6-7"
       cx="251.32349"
       cy="311.13651"
       rx="154.51581"
       ry="30.757887" /><ellipse
       style="fill:#ffcc00;fill-opacity:1;stroke-width:0.828738"
       id="path6483-3-6-7-3"
       cx="263.82977"
       cy="223.26796"
       rx="118.03236"
       ry="26.099382" /><ellipse
       style="fill:#d4aa00;fill-opacity:1;stroke-width:0.760154"
       id="path6483-3-6-7-5"
       cx="265.64648"
       cy="207.47292"
       rx="108.89535"
       ry="23.800877" /><ellipse
       style="display:inline;fill:#d4aa00;fill-opacity:1;stroke-width:0.345552"
       id="path6483-3-6-7-5-6"
       cx="260.47009"
       cy="119.43191"
       rx="49.41605"
       ry="10.838255"
       transform="matrix(1,0,0.10982695,0.99395072,0,0)" /><ellipse
       style="display:inline;fill:#ffcc00;fill-opacity:1;stroke-width:0.314094"
       id="path6483-3-6-7-5-6-2"
       cx="261.60944"
       cy="108.4409"
       rx="44.403614"
       ry="9.9655657"
       transform="matrix(1,0,0.10732889,0.99422357,0,0)" /><g
       inkscape:groupmode="layer"
       id="g6811"
       inkscape:label="old-bottom"
       style="display:none"><path
         id="path6854"
         style="display:inline;fill:#f4f24e;fill-opacity:1"
         d="m 321.65039,113.48438 c 7.36685,27.67451 6.13306,52.84598 0.0254,75.41015 -4.2213,15.59528 -10.76823,29.94103 -18.45312,42.99414 a 110.08314,23.800877 0 0 0 0.88672,-0.0508 110.08314,23.800877 0 0 0 17.39062,-1.75195 110.08314,23.800877 0 0 0 15.71875,-2.38086 110.08314,23.800877 0 0 0 13.56836,-2.9336 110.08314,23.800877 0 0 0 11.00586,-3.39843 110.08314,23.800877 0 0 0 8.10937,-3.75977 110.08314,23.800877 0 0 0 4.45313,-3.4707 118.5178,26.099382 0 0 1 0.35937,0.19922 118.5178,26.099382 0 0 1 2.16797,1.4414 118.5178,26.099382 0 0 1 1.78516,1.4668 118.5178,26.099382 0 0 1 1.39453,1.48633 118.5178,26.099382 0 0 1 0.99805,1.50195 118.5178,26.099382 0 0 1 0.60156,1.51172 118.5178,26.099382 0 0 1 0.19922,1.51758 118.5178,26.099382 0 0 1 -1.79883,4.5332 118.5178,26.099382 0 0 1 -5.34766,4.39453 118.5178,26.099382 0 0 1 -8.73046,4.12305 118.5178,26.099382 0 0 1 -11.84961,3.72656 118.5178,26.099382 0 0 1 -14.60938,3.2168 118.5178,26.099382 0 0 1 -16.92187,2.60937 118.5178,26.099382 0 0 1 -18.72461,1.92188 118.5178,26.099382 0 0 1 -11.45508,0.67578 c -7.95988,11.22356 -16.39821,21.23454 -24.37891,30.09766 -1.11683,1.24031 -2.25462,2.5304 -3.34961,3.72265 -45.73487,44.18581 -30.00293,27.12892 -55.0039,56.42188 A 154.51581,30.757887 0 0 0 214.3457,339 a 154.51581,30.757887 0 0 0 18.35352,0.66992 154.51581,30.757887 0 0 0 18.625,0.22461 154.51581,30.757887 0 0 0 18.625,-0.22461 154.51581,30.757887 0 0 0 18.35156,-0.66992 154.51581,30.757887 0 0 0 17.81445,-1.10352 154.51581,30.757887 0 0 0 17.01563,-1.52539 154.51581,30.757887 0 0 0 15.9668,-1.92187 154.51581,30.757887 0 0 0 14.68945,-2.29102 154.51581,30.757887 0 0 0 13.19336,-2.625 154.51581,30.757887 0 0 0 11.50781,-2.92382 154.51581,30.757887 0 0 0 9.65234,-3.17969 154.51581,30.757887 0 0 0 7.65821,-3.38672 154.51581,30.757887 0 0 0 4.59179,-2.85938 155.27689,31.972042 0 0 1 1.44532,1.04883 155.27689,31.972042 0 0 1 1.52539,1.32031 155.27689,31.972042 0 0 1 1.25195,1.33204 155.27689,31.972042 0 0 1 0.97461,1.34179 155.27689,31.972042 0 0 1 0.69922,1.34961 155.27689,31.972042 0 0 1 0.41797,1.35547 155.27689,31.972042 0 0 1 0.14062,1.35547 155.27689,31.972042 0 0 1 -1.13281,3.85547 155.27689,31.972042 0 0 1 -3.37891,3.79687 155.27689,31.972042 0 0 1 -5.57812,3.68555 155.27689,31.972042 0 0 1 -7.69531,3.52148 155.27689,31.972042 0 0 1 -9.70117,3.30274 155.27689,31.972042 0 0 1 -11.56446,3.03906 155.27689,31.972042 0 0 1 -13.25781,2.73047 155.27689,31.972042 0 0 1 -14.76172,2.38086 155.27689,31.972042 0 0 1 -16.04492,1.99805 155.27689,31.972042 0 0 1 -17.09961,1.58398 155.27689,31.972042 0 0 1 -17.90234,1.14844 155.27689,31.972042 0 0 1 -18.44336,0.69726 155.27689,31.972042 0 0 1 -18.7168,0.23243 155.27689,31.972042 0 0 1 -18.7168,-0.23243 155.27689,31.972042 0 0 1 -18.44336,-0.69726 155.27689,31.972042 0 0 1 -17.85351,-1.14453 c -4.18059,6.84838 -7.32557,13.82885 -9.58789,20.80664 -5.4154,16.70274 -5.6465,33.37595 -2.15625,48.16992 a 139.97823,27.401344 0 0 0 2.57812,0.30469 139.97823,27.401344 0 0 0 15.41406,1.35742 139.97823,27.401344 0 0 0 16.13672,0.98437 139.97823,27.401344 0 0 0 16.62696,0.59766 139.97823,27.401344 0 0 0 16.87304,0.19922 139.97823,27.401344 0 0 0 16.87305,-0.19922 139.97823,27.401344 0 0 0 16.625,-0.59766 139.97823,27.401344 0 0 0 16.13867,-0.98437 139.97823,27.401344 0 0 0 15.41406,-1.35742 139.97823,27.401344 0 0 0 14.46485,-1.71289 139.97823,27.401344 0 0 0 13.30664,-2.03907 139.97823,27.401344 0 0 0 11.95312,-2.33984 139.97823,27.401344 0 0 0 10.42383,-2.60547 139.97823,27.401344 0 0 0 8.74414,-2.83203 139.97823,27.401344 0 0 0 6.85547,-2.97852 132.23544,27.424902 0 0 1 0.65039,0.69532 132.23544,27.424902 0 0 1 0.83008,1.15039 132.23544,27.424902 0 0 1 0.59375,1.1582 132.23544,27.424902 0 0 1 0.35742,1.16211 132.23544,27.424902 0 0 1 0.11914,1.16406 132.23544,27.424902 0 0 1 -0.96289,3.30469 132.23544,27.424902 0 0 1 -2.8789,3.25781 132.23544,27.424902 0 0 1 -4.75,3.16211 132.23544,27.424902 0 0 1 -6.55469,3.01953 132.23544,27.424902 0 0 1 -8.25977,2.83399 132.23544,27.424902 0 0 1 -9.84961,2.60742 132.23544,27.424902 0 0 1 -11.29101,2.3418 132.23544,27.424902 0 0 1 -12.57031,2.04297 132.23544,27.424902 0 0 1 -13.66407,1.71289 132.23544,27.424902 0 0 1 -14.5625,1.35937 132.23544,27.424902 0 0 1 -15.24414,0.98438 132.23544,27.424902 0 0 1 -15.70703,0.59765 132.23544,27.424902 0 0 1 -15.93945,0.19922 132.23544,27.424902 0 0 1 -15.93946,-0.19922 132.23544,27.424902 0 0 1 -15.70703,-0.59765 132.23544,27.424902 0 0 1 -15.24609,-0.98438 132.23544,27.424902 0 0 1 -14.56055,-1.35937 132.23544,27.424902 0 0 1 -2.13281,-0.26758 c 6.19547,13.69208 15.80225,24.64115 27.22461,30.72461 29.40953,15.66326 88.35557,20.02083 125.48437,-6.28907 33.89733,-24.01992 50.50918,-48.16756 61.22071,-99.28125 10.71153,-51.11363 -5.02535,-102.65719 -18.79688,-137.71679 -13.77146,-35.05968 -43.0933,-84.74497 -63.45117,-114.25781 z m 54.82227,95.14843 a 110.08314,23.800877 0 0 1 0.004,0.0176 110.08314,23.800877 0 0 0 -0.004,-0.0176 z m -0.14844,2.33008 a 110.08314,23.800877 0 0 1 -0.0312,0.10547 110.08314,23.800877 0 0 0 0.0312,-0.10547 z m -0.16016,0.47852 a 110.08314,23.800877 0 0 1 -0.0332,0.084 110.08314,23.800877 0 0 0 0.0332,-0.084 z" /><path
         id="path7299"
         style="display:none;fill:#f4f24e;fill-opacity:1"
         d="m 292.42383,248.46875 a 118.5178,26.099382 0 0 0 11.45508,-0.67578 118.5178,26.099382 0 0 0 18.72461,-1.92188 118.5178,26.099382 0 0 0 16.92187,-2.60937 118.5178,26.099382 0 0 0 14.60938,-3.2168 118.5178,26.099382 0 0 0 11.84961,-3.72656 118.5178,26.099382 0 0 0 8.73046,-4.12305 118.5178,26.099382 0 0 0 5.34766,-4.39453 118.5178,26.099382 0 0 0 1.79883,-4.5332 118.5178,26.099382 0 0 0 -0.19922,-1.51758 118.5178,26.099382 0 0 0 -0.60156,-1.51172 118.5178,26.099382 0 0 0 -0.99805,-1.50195 118.5178,26.099382 0 0 0 -1.39453,-1.48633 118.5178,26.099382 0 0 0 -1.78516,-1.4668 118.5178,26.099382 0 0 0 -2.16797,-1.4414 118.5178,26.099382 0 0 0 -0.38281,-0.21289 110.08314,23.800877 0 0 1 -4.42969,3.48437 110.08314,23.800877 0 0 1 -8.10937,3.75977 110.08314,23.800877 0 0 1 -11.00586,3.39843 110.08314,23.800877 0 0 1 -13.56836,2.9336 110.08314,23.800877 0 0 1 -15.71875,2.38086 110.08314,23.800877 0 0 1 -17.39062,1.75195 110.08314,23.800877 0 0 1 -0.88672,0.0508 c -3.40998,5.79198 -7.05347,11.29906 -10.79883,16.58008 z" /><path
         id="path7305"
         style="display:none;fill:#f4f24e;fill-opacity:1"
         d="m 196.55469,356.18555 a 155.27689,31.972042 0 0 0 17.85351,1.14453 155.27689,31.972042 0 0 0 18.44336,0.69726 155.27689,31.972042 0 0 0 18.7168,0.23243 155.27689,31.972042 0 0 0 18.7168,-0.23243 155.27689,31.972042 0 0 0 18.44336,-0.69726 155.27689,31.972042 0 0 0 17.90234,-1.14844 155.27689,31.972042 0 0 0 17.09961,-1.58398 155.27689,31.972042 0 0 0 16.04492,-1.99805 155.27689,31.972042 0 0 0 14.76172,-2.38086 155.27689,31.972042 0 0 0 13.25781,-2.73047 155.27689,31.972042 0 0 0 11.56446,-3.03906 155.27689,31.972042 0 0 0 9.70117,-3.30274 155.27689,31.972042 0 0 0 7.69531,-3.52148 155.27689,31.972042 0 0 0 5.57812,-3.68555 155.27689,31.972042 0 0 0 3.37891,-3.79687 155.27689,31.972042 0 0 0 1.13281,-3.85547 155.27689,31.972042 0 0 0 -0.14062,-1.35547 155.27689,31.972042 0 0 0 -0.41797,-1.35547 155.27689,31.972042 0 0 0 -0.69922,-1.34961 155.27689,31.972042 0 0 0 -0.97461,-1.34179 155.27689,31.972042 0 0 0 -1.25195,-1.33204 155.27689,31.972042 0 0 0 -1.52539,-1.32031 155.27689,31.972042 0 0 0 -1.49805,-1.08789 154.51581,30.757887 0 0 1 -4.53906,2.89844 154.51581,30.757887 0 0 1 -7.65821,3.38672 154.51581,30.757887 0 0 1 -9.65234,3.17969 154.51581,30.757887 0 0 1 -11.50781,2.92382 154.51581,30.757887 0 0 1 -13.19336,2.625 154.51581,30.757887 0 0 1 -14.68945,2.29102 154.51581,30.757887 0 0 1 -15.9668,1.92187 154.51581,30.757887 0 0 1 -17.01563,1.52539 154.51581,30.757887 0 0 1 -17.81445,1.10352 154.51581,30.757887 0 0 1 -18.35156,0.66992 154.51581,30.757887 0 0 1 -18.625,0.22461 154.51581,30.757887 0 0 1 -18.625,-0.22461 A 154.51581,30.757887 0 0 1 214.3457,339 a 154.51581,30.757887 0 0 1 -4.65429,-0.28906 c -1.20501,1.41187 -1.3916,1.64939 -2.80274,3.29492 -3.96975,4.62913 -7.39944,9.37248 -10.33398,14.17969 z" /><path
         id="path7311"
         style="display:none;fill:#f4f24e;fill-opacity:1"
         d="m 189.96875,440.30469 a 132.23544,27.424902 0 0 0 2.13281,0.26758 132.23544,27.424902 0 0 0 14.56055,1.35937 132.23544,27.424902 0 0 0 15.24609,0.98438 132.23544,27.424902 0 0 0 15.70703,0.59765 132.23544,27.424902 0 0 0 15.93946,0.19922 132.23544,27.424902 0 0 0 15.93945,-0.19922 132.23544,27.424902 0 0 0 15.70703,-0.59765 132.23544,27.424902 0 0 0 15.24414,-0.98438 132.23544,27.424902 0 0 0 14.5625,-1.35937 132.23544,27.424902 0 0 0 13.66407,-1.71289 132.23544,27.424902 0 0 0 12.57031,-2.04297 132.23544,27.424902 0 0 0 11.29101,-2.3418 132.23544,27.424902 0 0 0 9.84961,-2.60742 132.23544,27.424902 0 0 0 8.25977,-2.83399 132.23544,27.424902 0 0 0 6.55469,-3.01953 132.23544,27.424902 0 0 0 4.75,-3.16211 132.23544,27.424902 0 0 0 2.8789,-3.25781 132.23544,27.424902 0 0 0 0.96289,-3.30469 132.23544,27.424902 0 0 0 -0.11914,-1.16406 132.23544,27.424902 0 0 0 -0.35742,-1.16211 132.23544,27.424902 0 0 0 -0.59375,-1.1582 132.23544,27.424902 0 0 0 -0.83008,-1.15039 132.23544,27.424902 0 0 0 -0.65234,-0.69727 139.97823,27.401344 0 0 1 -6.85352,2.98047 139.97823,27.401344 0 0 1 -8.74414,2.83203 139.97823,27.401344 0 0 1 -10.42383,2.60547 139.97823,27.401344 0 0 1 -11.95312,2.33984 139.97823,27.401344 0 0 1 -13.30664,2.03907 139.97823,27.401344 0 0 1 -14.46485,1.71289 139.97823,27.401344 0 0 1 -15.41406,1.35742 139.97823,27.401344 0 0 1 -16.13867,0.98437 139.97823,27.401344 0 0 1 -16.625,0.59766 139.97823,27.401344 0 0 1 -16.87305,0.19922 139.97823,27.401344 0 0 1 -16.87304,-0.19922 139.97823,27.401344 0 0 1 -16.62696,-0.59766 139.97823,27.401344 0 0 1 -16.13672,-0.98437 139.97823,27.401344 0 0 1 -15.41406,-1.35742 139.97823,27.401344 0 0 1 -2.57812,-0.30469 c 1.25626,5.3249 3.00919,10.39324 5.1582,15.14258 z" /></g><g
       inkscape:groupmode="layer"
       id="layer3"
       inkscape:label="old_top"
       style="display:none"><path
         id="path7205"
         style="display:inline;fill:#d4aa00;fill-opacity:1"
         d="m 233.82422,112.13672 a 49.431099,10.769412 0.315677 0 0 -1.58203,0.45312 49.431099,10.769412 0.315677 0 0 -2.96485,1.11328 49.431099,10.769412 0.315677 0 0 -2.3164,1.18555 49.431099,10.769412 0.315677 0 0 -1.63867,1.24219 49.431099,10.769412 0.315677 0 0 -0.9336,1.2793 49.431099,10.769412 0.315677 0 0 -0.21679,1.29882 49.431099,10.769412 0.315677 0 0 0.50195,1.29883 49.431099,10.769412 0.315677 0 0 1.21875,1.2793 49.431099,10.769412 0.315677 0 0 1.91211,1.24219 49.431099,10.769412 0.315677 0 0 2.58008,1.18554 49.431099,10.769412 0.315677 0 0 3.20898,1.11328 49.431099,10.769412 0.315677 0 0 3.79492,1.0254 49.431099,10.769412 0.315677 0 0 4.32031,0.91992 49.431099,10.769412 0.315677 0 0 4.78516,0.80078 49.431099,10.769412 0.315677 0 0 5.18164,0.67383 49.431099,10.769412 0.315677 0 0 5.50195,0.5332 49.431099,10.769412 0.315677 0 0 5.73829,0.38867 49.431099,10.769412 0.315677 0 0 5.89648,0.23438 49.431099,10.769412 0.315677 0 0 5.96484,0.0781 49.431099,10.769412 0.315677 0 0 2.09571,-0.01 49.431099,10.769412 0.315677 0 0 2.08984,-0.0293 49.431099,10.769412 0.315677 0 0 2.08203,-0.0488 49.431099,10.769412 0.315677 0 0 2.06641,-0.0664 49.431099,10.769412 0.315677 0 0 2.05078,-0.0879 49.431099,10.769412 0.315677 0 0 2.0293,-0.10546 49.431099,10.769412 0.315677 0 0 2.0039,-0.125 49.431099,10.769412 0.315677 0 0 1.97657,-0.14258 49.431099,10.769412 0.315677 0 0 1.94531,-0.16211 49.431099,10.769412 0.315677 0 0 1.9082,-0.17969 49.431099,10.769412 0.315677 0 0 0.0977,-0.01 c 0.0529,-3.95655 -0.041,-7.93007 -0.33399,-11.92578 a 44.417169,9.9049767 0.32388216 0 1 -0.5957,0.0723 44.417169,9.9049767 0.32388216 0 1 -1.67969,0.18164 44.417169,9.9049767 0.32388216 0 1 -1.71679,0.16406 44.417169,9.9049767 0.32388216 0 1 -1.74805,0.14844 44.417169,9.9049767 0.32388216 0 1 -1.77539,0.13281 44.417169,9.9049767 0.32388216 0 1 -1.80078,0.11328 44.417169,9.9049767 0.32388216 0 1 -1.82422,0.0977 44.417169,9.9049767 0.32388216 0 1 -1.8418,0.0801 44.417169,9.9049767 0.32388216 0 1 -1.85742,0.0625 44.417169,9.9049767 0.32388216 0 1 -1.86914,0.0449 44.417169,9.9049767 0.32388216 0 1 -1.87891,0.0254 44.417169,9.9049767 0.32388216 0 1 -1.88281,0.01 44.417169,9.9049767 0.32388216 0 1 -5.36133,-0.0723 44.417169,9.9049767 0.32388216 0 1 -5.29687,-0.21484 44.417169,9.9049767 0.32388216 0 1 -5.15821,-0.35743 44.417169,9.9049767 0.32388216 0 1 -4.9414,-0.49023 44.417169,9.9049767 0.32388216 0 1 -4.65625,-0.61914 44.417169,9.9049767 0.32388216 0 1 -4.30078,-0.73828 44.417169,9.9049767 0.32388216 0 1 -3.88282,-0.8457 44.417169,9.9049767 0.32388216 0 1 -3.4082,-0.94141 44.417169,9.9049767 0.32388216 0 1 -2.88477,-1.02344 44.417169,9.9049767 0.32388216 0 1 -0.60351,-0.2832 z" /><path
         id="path7229"
         style="display:inline;fill:#d4aa00;fill-opacity:1"
         d="m 157.0293,211.81055 a 118.5178,26.099382 0 0 0 -4.50196,2.20312 118.5178,26.099382 0 0 0 -4.25781,3.00781 118.5178,26.099382 0 0 0 -2.57812,3.09961 118.5178,26.099382 0 0 0 -0.86524,3.14649 118.5178,26.099382 0 0 0 0.86524,3.14648 118.5178,26.099382 0 0 0 2.57812,3.09961 118.5178,26.099382 0 0 0 4.25781,3.00977 118.5178,26.099382 0 0 0 5.875,2.87304 118.5178,26.099382 0 0 0 7.4043,2.69727 118.5178,26.099382 0 0 0 8.82617,2.48047 118.5178,26.099382 0 0 0 10.11914,2.22851 118.5178,26.099382 0 0 0 11.26563,1.94532 118.5178,26.099382 0 0 0 12.24804,1.6289 118.5178,26.099382 0 0 0 13.05079,1.29493 118.5178,26.099382 0 0 0 13.66406,0.9375 118.5178,26.099382 0 0 0 9.06641,0.36523 c 4.23618,-5.19435 8.36164,-10.44947 12.21289,-15.83399 a 110.08314,23.800877 0 0 1 -3.07032,-0.041 110.08314,23.800877 0 0 1 -13.07617,-0.51758 110.08314,23.800877 0 0 1 -12.6914,-0.85547 110.08314,23.800877 0 0 1 -12.1211,-1.17968 110.08314,23.800877 0 0 1 -11.37695,-1.48633 110.08314,23.800877 0 0 1 -10.46289,-1.77149 110.08314,23.800877 0 0 1 -9.40039,-2.0332 110.08314,23.800877 0 0 1 -8.19922,-2.26172 110.08314,23.800877 0 0 1 -6.87695,-2.46094 110.08314,23.800877 0 0 1 -5.45508,-2.62109 110.08314,23.800877 0 0 1 -3.95508,-2.74414 110.08314,23.800877 0 0 1 -2.39649,-2.82617 110.08314,23.800877 0 0 1 -0.14843,-0.53125 z" /><path
         id="path7235"
         style="display:inline;fill:#d4aa00;fill-opacity:1"
         d="m 102.69336,317.38867 a 155.27689,31.972042 0 0 0 -1.88867,1.24805 155.27689,31.972042 0 0 0 -3.38086,3.79687 155.27689,31.972042 0 0 0 -1.13086,3.85352 155.27689,31.972042 0 0 0 1.13086,3.85547 155.27689,31.972042 0 0 0 3.38086,3.79687 155.27689,31.972042 0 0 0 5.57812,3.68555 155.27689,31.972042 0 0 0 7.69531,3.52148 155.27689,31.972042 0 0 0 9.70118,3.30274 155.27689,31.972042 0 0 0 11.5625,3.03906 155.27689,31.972042 0 0 0 13.25976,2.73047 155.27689,31.972042 0 0 0 10.9961,1.77344 c 3.22955,-5.95613 6.35077,-11.54245 9.63086,-16.85938 a 154.51581,30.757887 0 0 1 -5.67969,-0.68359 154.51581,30.757887 0 0 1 -14.6875,-2.29102 154.51581,30.757887 0 0 1 -13.19531,-2.625 154.51581,30.757887 0 0 1 -11.50586,-2.92382 154.51581,30.757887 0 0 1 -9.6543,-3.17969 154.51581,30.757887 0 0 1 -7.65625,-3.38672 154.51581,30.757887 0 0 1 -4.15625,-2.6543 z" /><path
         id="path7241"
         style="display:inline;fill:#d4aa00;fill-opacity:1"
         d="m 123.39844,411.7207 a 132.23544,27.424902 0 0 0 -1.11524,1.26172 132.23544,27.424902 0 0 0 -0.96484,3.30664 132.23544,27.424902 0 0 0 0.96484,3.30469 132.23544,27.424902 0 0 0 2.87891,3.25781 132.23544,27.424902 0 0 0 4.75,3.16211 132.23544,27.424902 0 0 0 6.55273,3.01953 132.23544,27.424902 0 0 0 8.26172,2.83399 132.23544,27.424902 0 0 0 9.84766,2.60742 132.23544,27.424902 0 0 0 2.08594,0.43164 c -1.72587,-4.80158 -3.16675,-9.68667 -4.25,-14.60156 a 139.97823,27.401344 0 0 1 -4.7461,-0.92969 139.97823,27.401344 0 0 1 -10.42578,-2.60547 139.97823,27.401344 0 0 1 -8.74414,-2.83203 139.97823,27.401344 0 0 1 -5.0957,-2.2168 z" /><path
         id="path6852"
         style="display:inline;fill:#f4f24e;fill-opacity:0.638558"
         d="m 228.75924,108.27076 c 1.57734,1.84521 3.88972,3.13394 5.47484,3.92784 0.82096,0.39387 2.02662,0.91684 3.07835,1.24521 1.05167,0.32838 2.18981,0.64275 3.4082,0.94141 1.2186,0.29868 2.51523,0.5811 3.88282,0.8457 1.36767,0.26485 2.80388,0.51139 4.30078,0.73828 1.49699,0.22682 3.05191,0.43358 4.65625,0.61914 1.60377,0.18522 3.2539,0.34893 4.9414,0.49023 1.68803,0.14206 3.41058,0.26142 5.15821,0.35743 1.74718,0.0952 3.51603,0.16699 5.29687,0.21484 1.78155,0.0481 3.57192,0.0723 5.36133,0.0723 0.62816,-2.8e-4 1.25591,-0.004 1.88281,-0.01 0.62736,-0.005 1.2538,-0.014 1.87891,-0.0254 0.62472,-0.012 1.24791,-0.027 1.86914,-0.0449 0.62137,-0.0179 1.24065,-0.0387 1.85742,-0.0625 0.61672,-0.0238 1.23079,-0.0505 1.8418,-0.0801 0.61142,-0.0297 1.21963,-0.0622 1.82422,-0.0977 0.60409,-0.0349 1.20448,-0.0727 1.80078,-0.11328 0.59625,-0.0414 1.18818,-0.0857 1.77539,-0.13281 0.58763,-0.0467 1.17044,-0.0962 1.74805,-0.14844 0.57769,-0.0519 1.15009,-0.10664 1.71679,-0.16406 0.56588,-0.0579 1.1259,-0.11842 1.67969,-0.18164 0.19943,-0.0237 0.39801,-0.0478 0.5957,-0.0723 -0.4276,-5.83166 -1.24196,-11.70368 -2.45312,-17.609371 -5.2768,-25.730178 -18.2109,-52.106854 -41.1543,-78.673828 l 7e-5,-1.7e-4 c 1.54017,20.131042 -8.39752,55.3084 -22.69978,87.580939 m -3.97043,9.26864 c -9.45409,19.77767 -21.23837,38.58811 -31.82588,50.06839 -11.40807,12.36999 -24.2603,25.63057 -37.2038,40.16157 -3.45403,3.87766 -6.91455,7.84578 -10.35587,11.91159 -13.73997,16.23335 -27.17371,34.02393 -38.66494,53.83114 -23.28387,40.13383 -9.92784,159.60284 57.82422,178.54297 -3.0499,-5.36012 -5.55271,-11.00021 -7.625,-16.76563 -0.70302,-0.14227 -1.39838,-0.28616 -2.08594,-0.43164 -3.53284,-0.8272 -6.82139,-1.69793 -9.84766,-2.60742 -3.02666,-0.90928 -5.78559,-1.85567 -8.26172,-2.83399 -2.4755,-0.97822 -4.66373,-1.98657 -6.55273,-3.01953 -1.88905,-1.03323 -3.47528,-2.08919 -4.75,-3.16211 -1.27523,-1.07292 -2.23662,-2.16084 -2.87891,-3.25781 -0.64221,-1.09653 -0.96441,-2.2001 -0.96484,-3.30469 5e-5,-1.10524 0.32225,-2.20947 0.96484,-3.30664 0.3096,-0.40001 0.6619,-0.79854 1.05664,-1.19531 1.55851,0.73104 3.27822,1.44851 5.1543,2.15039 2.6206,0.97763 5.54063,1.92337 8.74414,2.83203 3.2039,0.90882 6.68551,1.7789 10.42578,2.60547 1.54383,0.31728 3.12632,0.62727 4.7461,0.92969 -2.84773,-12.92054 -3.5123,-25.95917 -2.25782,-37.75781 1.01572,-9.55287 3.27787,-18.2959 6.67774,-25.47461 0.95476,-1.79608 1.84574,-3.37998 2.76758,-5.08008 -3.7927,-0.55689 -7.46178,-1.14863 -10.9961,-1.77344 -4.68305,-0.85432 -9.11104,-1.76614 -13.25976,-2.73047 -4.14795,-0.96414 -8.00916,-1.97901 -11.5625,-3.03906 -3.55381,-1.05968 -6.79344,-2.1626 -9.70118,-3.30274 -2.90735,-1.14083 -5.47713,-2.3168 -7.69531,-3.52148 -2.21821,-1.20426 -4.08097,-2.43502 -5.57812,-3.68555 -1.49733,-1.25045 -2.62634,-2.51838 -3.38086,-3.79687 -0.75397,-1.27929 -1.13161,-2.5668 -1.13086,-3.85547 -3.7e-4,-1.28802 0.37727,-2.57488 1.13086,-3.85352 0.75452,-1.27849 1.88353,-2.54642 3.38086,-3.79687 0.56609,-0.40149 1.17037,-0.80066 1.8125,-1.19727 1.21608,0.87991 2.62828,1.74861 4.23242,2.60352 2.20706,1.15857 4.7638,2.28954 7.65625,3.38672 2.89328,1.09765 6.11726,2.15949 9.6543,3.17969 3.53591,1.01985 7.3782,1.99624 11.50586,2.92382 4.12883,0.9271 8.5353,1.8037 13.19531,2.625 4.6595,0.82188 9.56428,1.58694 14.6875,2.29102 1.86842,0.23593 3.76209,0.46385 5.67969,0.68359 9.90453,-16.05499 21.88602,-31.00453 47.1289,-55.75586 0.062,-0.0611 0.12162,-0.12441 0.1836,-0.18554 9.73942,-9.60835 18.95185,-19.72804 27.50586,-30.2168 -3.0425,-0.0958 -6.06692,-0.21764 -9.06641,-0.36523 -4.63629,-0.2516 -9.19929,-0.56467 -13.66406,-0.9375 -4.46477,-0.37334 -8.82298,-0.80578 -13.05079,-1.29493 -4.22792,-0.48815 -8.31806,-1.03211 -12.24804,-1.6289 -3.92978,-0.59786 -7.69185,-1.24748 -11.26563,-1.94532 -3.57381,-0.69727 -6.95302,-1.44146 -10.11914,-2.22851 -3.16625,-0.78692 -6.11367,-1.61525 -8.82617,-2.48047 -2.71259,-0.86542 -5.1852,-1.76615 -7.4043,-2.69727 -2.2193,-0.93075 -4.1812,-1.89018 -5.875,-2.87304 -1.69336,-0.98345 -3.11523,-1.98854 -4.25781,-3.00977 -1.14209,-1.02083 -2.00303,-2.05591 -2.57812,-3.09961 -0.57603,-1.04403 -0.86497,-2.09477 -0.86524,-3.14648 2.7e-4,-1.05171 0.28921,-2.10246 0.86524,-3.14649 0.57509,-1.0437 1.43603,-2.07878 2.57812,-3.09961 1.14293,-1.02057 2.56479,-2.025 4.25781,-3.00781 1.32897,-0.73846 1.42734,-4.88353 3.05647,-5.59223 -0.13544,1.73178 1.11919,3.08379 1.59392,3.92036 0.60315,0.90988 1.33515,1.89541 2.39649,2.82617 1.06146,0.93111 2.38223,1.84749 3.95508,2.74414 1.57248,0.89666 3.39416,1.77195 5.45508,2.62109 2.06084,0.84953 4.35735,1.67134 6.87695,2.46094 2.51988,0.78892 5.25795,1.54421 8.19922,2.26172 2.94112,0.71807 6.0803,1.39704 9.40039,2.0332 3.31944,0.63551 6.81344,1.22709 10.46289,1.77149 3.65038,0.54454 7.44962,1.04089 11.37695,1.48633 3.92677,0.44566 7.97452,0.8396 12.1211,1.17968 4.14689,0.34017 8.38509,0.62585 12.6914,0.85547 4.30652,0.22932 8.6732,0.40216 13.07617,0.51758 1.02251,0.0168 2.04605,0.0304 3.07032,0.041 10.77046,-15.05847 19.85267,-30.83972 26.53125,-47.19921 7.54804,-18.48941 12.06832,-37.69557 12.33203,-57.42579 l -0.0977,0.01 c -0.62984,0.0629 -1.26605,0.12277 -1.9082,0.17969 -0.64276,0.0571 -1.29135,0.11111 -1.94531,0.16211 -0.65382,0.0506 -1.31282,0.0981 -1.97657,0.14258 -0.66349,0.0448 -1.33161,0.0864 -2.0039,0.125 -0.67259,0.0383 -1.34917,0.0735 -2.0293,0.10546 -0.68031,0.0325 -1.36406,0.0618 -2.05078,0.0879 -0.68622,0.0253 -1.37518,0.0475 -2.06641,0.0664 -0.69199,0.0195 -1.38616,0.0358 -2.08203,0.0488 -0.69523,0.013 -1.392,0.0228 -2.08984,0.0293 -0.69782,0.006 -1.39654,0.01 -2.09571,0.01 -1.99079,1.4e-4 -3.9827,-0.0259 -5.96484,-0.0781 -1.98251,-0.0523 -3.95159,-0.13054 -5.89648,-0.23438 -1.94417,-0.10442 -3.86043,-0.23422 -5.73829,-0.38867 -1.87894,-0.15367 -3.71627,-0.33173 -5.50195,-0.5332 -1.78545,-0.20197 -3.51582,-0.42699 -5.18164,-0.67383 -1.66526,-0.24607 -3.26322,-0.51349 -4.78516,-0.80078 -1.52174,-0.28784 -2.96447,-0.59503 -4.32031,-0.91992 -1.35687,-0.3253 -2.62416,-0.66773 -3.79492,-1.0254 -1.17005,-0.3572 -2.24166,-0.72897 -3.20898,-1.11328 -0.96755,-0.38407 -1.82915,-0.77997 -2.58008,-1.18554 -0.75073,-0.40589 -1.38926,-0.82071 -1.91211,-1.24219 -0.52355,-0.42131 -0.9484,-0.88129 -1.23615,-1.31236 -0.28749,-0.43067 -0.50261,-0.97368 -0.49953,-1.66087 0.0236,-0.58785 0.35457,-1.15811 0.35457,-1.15811 z"
         inkscape:label="droplet-top"
         sodipodi:nodetypes="ccsscccccccccssscccccccscccccsscccccccccccccsccscccscccccccccccsccccccccccccccccscccccccccccccscccccscscccccccssccccccccccccscc" /></g></g><g
     inkscape:label="drop"
     inkscape:groupmode="layer"
     id="g1387"
     style="display:none"><path
       style="display:inline;fill:#f4f24e;fill-opacity:0.66531"
       d="M 164.28601,451.67248 C 96.53338,432.73226 83.1776,313.26341 106.46166,273.12922 c 25.15488,-43.35889 59.61577,-77.05302 86.22308,-105.90391 29.28201,-31.75113 61.16857,-111.987192 58.49605,-146.919131 82.9926,96.100171 35.54157,189.746841 -34.82414,259.070431 -35.98896,35.2881 -45.12638,50.60759 -59.52635,77.69652 -11.11441,23.4678 -10.21798,63.53818 7.45571,94.59935 z"
       id="path1383"
       sodipodi:nodetypes="csscccc" /><path
       style="display:inline;fill:#f4f24e;fill-opacity:0.66531"
       d="m 264.69507,282.28934 c -47.93942,46.31566 -27.11822,23.93063 -57.80714,59.71704 -42.08251,49.0725 -23.91236,110.79908 10.30628,129.02366 29.40974,15.6634 88.35367,20.01949 125.48275,-6.29055 33.89754,-24.02013 50.51037,-48.16622 61.22197,-99.28026 10.7116,-51.11405 -5.02586,-102.65693 -18.79746,-137.71681 -13.7716,-35.05989 -43.09316,-84.74403 -63.45117,-114.25708 20.19138,75.85134 -24.0515,132.97739 -56.95523,168.804 z"
       id="path1385"
       sodipodi:nodetypes="cssssscc" /></g><g
     inkscape:groupmode="layer"
     id="g1269"
     inkscape:label="new_disks"
     style="display:none"><g
       inkscape:label="drop"
       inkscape:groupmode="layer"
       id="layer1"
       style="display:none"><path
         style="display:inline;fill:#f4f24e;fill-opacity:0.66531"
         d="M 164.28601,451.67248 C 96.53338,432.73226 83.1776,313.26341 106.46166,273.12922 c 25.15488,-43.35889 59.61577,-77.05302 86.22308,-105.90391 29.28201,-31.75113 61.16857,-111.987192 58.49605,-146.919131 82.9926,96.100171 35.54157,189.746841 -34.82414,259.070431 -35.98896,35.2881 -45.12638,50.60759 -59.52635,77.69652 -11.11441,23.4678 -10.21798,63.53818 7.45571,94.59935 z"
         id="path6089"
         sodipodi:nodetypes="csscccc" /><path
         style="display:inline;fill:#f4f24e;fill-opacity:0.66531"
         d="m 264.69507,282.28934 c -47.93942,46.31566 -27.11822,23.93063 -57.80714,59.71704 -42.08251,49.0725 -23.91236,110.79908 10.30628,129.02366 29.40974,15.6634 88.35367,20.01949 125.48275,-6.29055 33.89754,-24.02013 50.51037,-48.16622 61.22197,-99.28026 10.7116,-51.11405 -5.02586,-102.65693 -18.79746,-137.71681 -13.7716,-35.05989 -43.09316,-84.74403 -63.45117,-114.25708 20.19138,75.85134 -24.0515,132.97739 -56.95523,168.804 z"
         id="path6179"
         sodipodi:nodetypes="cssssscc" /></g><ellipse
       style="display:inline;fill:#ffcc00;fill-opacity:1;stroke-width:1.08381"
       id="ellipse1257"
       cx="253.2171"
       cy="390.45032"
       rx="146.65564"
       ry="35.925514"
       transform="matrix(0.99997006,-0.00773762,0,1,0,0)" /><ellipse
       style="display:inline;fill:#d4aa00;fill-opacity:1;stroke-width:1.09871"
       id="ellipse1259"
       cx="252.33179"
       cy="355.22482"
       rx="154.38901"
       ry="35.070385" /><ellipse
       style="display:inline;fill:#ffcc00;fill-opacity:1;stroke-width:0.989215"
       id="ellipse1261"
       cx="255.25671"
       cy="264.82639"
       rx="144.01421"
       ry="30.476992" /><ellipse
       style="display:inline;fill:#d4aa00;fill-opacity:1;stroke-width:0.85353"
       id="ellipse1263"
       cx="261.0354"
       cy="233.8764"
       rx="126.1897"
       ry="25.894764" /><ellipse
       style="display:none;fill:#d4aa00;fill-opacity:1;stroke-width:0.408416"
       id="ellipse1265"
       cx="259.74414"
       cy="136.20805"
       rx="60.140408"
       ry="12.440542"
       transform="matrix(1,0,0.11644673,0.99319694,0,0)" /><ellipse
       style="display:none;fill:#ffcc00;fill-opacity:1;stroke-width:0.311354"
       id="ellipse1267"
       cx="259.78754"
       cy="112.89902"
       rx="47.94088"
       ry="9.0699625"
       transform="matrix(0.99996839,0.00795164,0.12731721,0.99186205,0,0)" /><ellipse
       style="display:inline;fill:#d4aa00;fill-opacity:1;stroke-width:0.546477"
       id="ellipse1438"
       cx="254.85693"
       cy="168.4612"
       rx="80.413887"
       ry="16.657642"
       transform="matrix(1,0,0.11628346,0.99321607,0,0)" /><ellipse
       style="display:inline;fill:#ffcc00;fill-opacity:1;stroke-width:0.445575"
       id="ellipse1440"
       cx="259.97028"
       cy="142.41049"
       rx="65.467628"
       ry="13.602386"
       transform="matrix(0.99996176,0.00874493,0.11592987,0.9932574,0,0)" /></g><g
     inkscape:groupmode="layer"
     id="layer4"
     inkscape:label="drop_small"
     style="display:none"><path
       id="path540"
       style="display:inline;fill:#f4f24e;fill-opacity:0.66531"
       d="m 191.44141,365.65234 c -20.58187,43.60458 -3.13516,89.99191 25.75195,105.37696 29.40968,15.66336 88.35537,20.02093 125.48437,-6.28907 28.0768,-19.89548 44.27685,-39.92845 55.10547,-75.25 a 155.99133,29.105413 13.296951 0 1 -0.004,0.006 155.99133,29.105413 13.296951 0 1 -1.12891,0.99219 155.99133,29.105413 13.296951 0 1 -1.40039,0.91992 155.99133,29.105413 13.296951 0 1 -1.66406,0.84571 155.99133,29.105413 13.296951 0 1 -1.92774,0.77148 155.99133,29.105413 13.296951 0 1 -2.1875,0.69531 155.99133,29.105413 13.296951 0 1 -2.44336,0.61719 155.99133,29.105413 13.296951 0 1 -2.69336,0.53906 155.99133,29.105413 13.296951 0 1 -2.9414,0.46094 155.99133,29.105413 13.296951 0 1 -3.18164,0.37891 155.99133,29.105413 13.296951 0 1 -3.41602,0.29687 155.99133,29.105413 13.296951 0 1 -3.64648,0.2168 155.99133,29.105413 13.296951 0 1 -3.86719,0.13476 155.99133,29.105413 13.296951 0 1 -4.08398,0.0508 155.99133,29.105413 13.296951 0 1 -4.29297,-0.0293 155.99133,29.105413 13.296951 0 1 -4.49219,-0.11328 155.99133,29.105413 13.296951 0 1 -4.68555,-0.19532 155.99133,29.105413 13.296951 0 1 -4.86914,-0.27539 155.99133,29.105413 13.296951 0 1 -5.04492,-0.35742 155.99133,29.105413 13.296951 0 1 -5.21094,-0.43945 155.99133,29.105413 13.296951 0 1 -5.36718,-0.51758 155.99133,29.105413 13.296951 0 1 -5.51368,-0.59766 155.99133,29.105413 13.296951 0 1 -5.65234,-0.67578 155.99133,29.105413 13.296951 0 1 -5.77734,-0.75195 155.99133,29.105413 13.296951 0 1 -5.89454,-0.82617 155.99133,29.105413 13.296951 0 1 -6,-0.90039 155.99133,29.105413 13.296951 0 1 -6.0957,-0.97266 155.99133,29.105413 13.296951 0 1 -6.17969,-1.04297 155.99133,29.105413 13.296951 0 1 -6.2539,-1.11132 155.99133,29.105413 13.296951 0 1 -6.31446,-1.17969 155.99133,29.105413 13.296951 0 1 -6.36328,-1.24219 155.99133,29.105413 13.296951 0 1 -6.40429,-1.30469 155.99133,29.105413 13.296951 0 1 -6.43164,-1.36328 155.99133,29.105413 13.296951 0 1 -6.44532,-1.42187 155.99133,29.105413 13.296951 0 1 -6.45117,-1.47657 155.99133,29.105413 13.296951 0 1 -18.2793,-4.47851 155.99133,29.105413 13.296951 0 1 -17.95117,-4.83594 155.99133,29.105413 13.296951 0 1 -15.78515,-4.6543 z"
       inkscape:label="bot_bot" /><path
       id="path538"
       style="display:inline;fill:#d4aa00;fill-opacity:0.66531"
       d="m 191.44141,365.65234 a 155.99133,29.105413 13.296951 0 0 15.78515,4.6543 155.99133,29.105413 13.296951 0 0 17.95117,4.83594 155.99133,29.105413 13.296951 0 0 18.2793,4.47851 155.99133,29.105413 13.296951 0 0 6.45117,1.47657 155.99133,29.105413 13.296951 0 0 6.44532,1.42187 155.99133,29.105413 13.296951 0 0 6.43164,1.36328 155.99133,29.105413 13.296951 0 0 6.40429,1.30469 155.99133,29.105413 13.296951 0 0 6.36328,1.24219 155.99133,29.105413 13.296951 0 0 6.31446,1.17969 155.99133,29.105413 13.296951 0 0 6.2539,1.11132 155.99133,29.105413 13.296951 0 0 6.17969,1.04297 155.99133,29.105413 13.296951 0 0 6.0957,0.97266 155.99133,29.105413 13.296951 0 0 6,0.90039 155.99133,29.105413 13.296951 0 0 5.89454,0.82617 155.99133,29.105413 13.296951 0 0 5.77734,0.75195 155.99133,29.105413 13.296951 0 0 5.65234,0.67578 155.99133,29.105413 13.296951 0 0 5.51368,0.59766 155.99133,29.105413 13.296951 0 0 5.36718,0.51758 155.99133,29.105413 13.296951 0 0 5.21094,0.43945 155.99133,29.105413 13.296951 0 0 5.04492,0.35742 155.99133,29.105413 13.296951 0 0 4.86914,0.27539 155.99133,29.105413 13.296951 0 0 4.68555,0.19532 155.99133,29.105413 13.296951 0 0 4.49219,0.11328 155.99133,29.105413 13.296951 0 0 4.29297,0.0293 155.99133,29.105413 13.296951 0 0 4.08398,-0.0508 155.99133,29.105413 13.296951 0 0 3.86719,-0.13476 155.99133,29.105413 13.296951 0 0 3.64648,-0.2168 155.99133,29.105413 13.296951 0 0 3.41602,-0.29687 155.99133,29.105413 13.296951 0 0 3.18164,-0.37891 155.99133,29.105413 13.296951 0 0 2.9414,-0.46094 155.99133,29.105413 13.296951 0 0 2.69336,-0.53906 155.99133,29.105413 13.296951 0 0 2.44336,-0.61719 155.99133,29.105413 13.296951 0 0 2.1875,-0.69531 155.99133,29.105413 13.296951 0 0 1.92774,-0.77148 155.99133,29.105413 13.296951 0 0 1.66406,-0.84571 155.99133,29.105413 13.296951 0 0 1.40039,-0.91992 155.99133,29.105413 13.296951 0 0 1.12891,-0.99219 155.99133,29.105413 13.296951 0 0 0.004,-0.006 c 0.50646,-1.652 1.00865,-3.31643 1.49219,-5.03711 a 155.99133,29.105413 13.296951 0 0 -0.33594,-2.08593 155.99133,29.105413 13.296951 0 0 -2.81054,-4.20508 155.99133,29.105413 13.296951 0 0 -4.97461,-4.60547 155.99133,29.105413 13.296951 0 0 -7.06641,-4.9375 155.99133,29.105413 13.296951 0 0 -9.05664,-5.20117 155.99133,29.105413 13.296951 0 0 -10.91602,-5.38477 155.99133,29.105413 13.296951 0 0 -12.61328,-5.49218 155.99133,29.105413 13.296951 0 0 -14.12695,-5.51758 155.99133,29.105413 13.296951 0 0 -15.43555,-5.46485 155.99133,29.105413 13.296951 0 0 -16.51953,-5.33203 155.99133,29.105413 13.296951 0 0 -17.36133,-5.12109 155.99133,29.105413 13.296951 0 0 -17.95117,-4.83399 155.99133,29.105413 13.296951 0 0 -18.2793,-4.47851 155.99133,29.105413 13.296951 0 0 -18.33984,-4.05664 155.99133,29.105413 13.296951 0 0 -4.72266,-0.93164 c -4.13874,4.31026 -8.09724,9.13263 -21.87695,25.20117 -6.5567,7.64578 -11.64863,15.59874 -15.44726,23.64648 z"
       inkscape:label="bot_upper" /><path
       id="path530"
       style="display:inline;fill:#f4f24e;fill-opacity:0.66531"
       d="m 321.65039,113.48438 c 17.55459,65.9459 -13.59418,117.71968 -43.65234,153.66601 a 149.60194,27.693608 13.176181 0 1 5.56836,1.35156 149.60194,27.693608 13.176181 0 1 17.22265,4.59766 149.60194,27.693608 13.176181 0 1 16.66016,4.86914 149.60194,27.693608 13.176181 0 1 15.84961,5.07031 149.60194,27.693608 13.176181 0 1 14.81055,5.19922 149.60194,27.693608 13.176181 0 1 13.55468,5.24805 149.60194,27.693608 13.176181 0 1 12.10156,5.22265 149.60194,27.693608 13.176181 0 1 10.47266,5.1211 149.60194,27.693608 13.176181 0 1 8.69141,4.94726 149.60194,27.693608 13.176181 0 1 6.77929,4.69532 149.60194,27.693608 13.176181 0 1 4.77344,4.38086 149.60194,27.693608 13.176181 0 1 2.69531,3.99804 149.60194,27.693608 13.176181 0 1 0.041,0.25 C 405.75588,286.34519 394.95247,252.82073 385.10156,227.74219 371.32998,192.68233 342.00838,142.9974 321.65039,113.48438 Z m 85.56836,208.61718 a 149.60194,27.693608 13.176181 0 0 -0.041,-0.25 149.60194,27.693608 13.176181 0 0 -2.69531,-3.99804 149.60194,27.693608 13.176181 0 0 -4.77344,-4.38086 149.60194,27.693608 13.176181 0 0 -6.77929,-4.69532 149.60194,27.693608 13.176181 0 0 -8.69141,-4.94726 149.60194,27.693608 13.176181 0 0 -10.47266,-5.1211 149.60194,27.693608 13.176181 0 0 -12.10156,-5.22265 149.60194,27.693608 13.176181 0 0 -13.55468,-5.24805 149.60194,27.693608 13.176181 0 0 -14.81055,-5.19922 149.60194,27.693608 13.176181 0 0 -15.84961,-5.07031 149.60194,27.693608 13.176181 0 0 -16.66016,-4.86914 149.60194,27.693608 13.176181 0 0 -17.22265,-4.59766 149.60194,27.693608 13.176181 0 0 -5.56836,-1.35156 c -4.51487,5.3993 -9.00587,10.46011 -13.30274,15.13867 -20.12811,19.44635 -27.24234,25.9964 -32.02929,30.61133 a 149.60194,27.693608 13.176181 0 0 7.79296,2.08008 149.60194,27.693608 13.176181 0 0 17.53711,4.25976 149.60194,27.693608 13.176181 0 0 6.18946,1.4043 149.60194,27.693608 13.176181 0 0 6.18554,1.35156 149.60194,27.693608 13.176181 0 0 6.16993,1.29688 149.60194,27.693608 13.176181 0 0 6.14453,1.24219 149.60194,27.693608 13.176181 0 0 6.10742,1.18164 149.60194,27.693608 13.176181 0 0 6.05664,1.11914 149.60194,27.693608 13.176181 0 0 6,1.05859 149.60194,27.693608 13.176181 0 0 5.92969,0.99219 149.60194,27.693608 13.176181 0 0 5.84961,0.92383 149.60194,27.693608 13.176181 0 0 5.75586,0.85742 149.60194,27.693608 13.176181 0 0 5.65625,0.78711 149.60194,27.693608 13.176181 0 0 5.54492,0.71484 149.60194,27.693608 13.176181 0 0 5.42187,0.64063 149.60194,27.693608 13.176181 0 0 5.29102,0.56836 149.60194,27.693608 13.176181 0 0 5.15039,0.49414 149.60194,27.693608 13.176181 0 0 4.99805,0.41601 149.60194,27.693608 13.176181 0 0 4.83984,0.33985 149.60194,27.693608 13.176181 0 0 4.67187,0.26367 149.60194,27.693608 13.176181 0 0 4.4961,0.18554 149.60194,27.693608 13.176181 0 0 4.31054,0.10743 149.60194,27.693608 13.176181 0 0 4.11915,0.0293 149.60194,27.693608 13.176181 0 0 3.91796,-0.0508 149.60194,27.693608 13.176181 0 0 3.71094,-0.12695 149.60194,27.693608 13.176181 0 0 3.49805,-0.20508 149.60194,27.693608 13.176181 0 0 3.2793,-0.28515 149.60194,27.693608 13.176181 0 0 3.05273,-0.35938 149.60194,27.693608 13.176181 0 0 2.82031,-0.4375 149.60194,27.693608 13.176181 0 0 2.58594,-0.51172 149.60194,27.693608 13.176181 0 0 2.34375,-0.58789 149.60194,27.693608 13.176181 0 0 2.09961,-0.66211 149.60194,27.693608 13.176181 0 0 1.84961,-0.73242 149.60194,27.693608 13.176181 0 0 1.59765,-0.80469 149.60194,27.693608 13.176181 0 0 1.3418,-0.875 149.60194,27.693608 13.176181 0 0 1.08399,-0.94336 149.60194,27.693608 13.176181 0 0 0.82421,-1.00976 149.60194,27.693608 13.176181 0 0 0.50196,-0.95703 c -0.0274,-1.52842 -0.11161,-3.04369 -0.17383,-4.56446 z"
       inkscape:label="bot_top" /><path
       id="path343"
       style="display:inline;fill:#f4f24e;fill-opacity:0.66531"
       d="m 158.21289,354.49805 a 155.99133,29.105413 13.296951 0 1 -0.30273,-0.10743 155.99133,29.105413 13.296951 0 1 -14.12891,-5.51953 155.99133,29.105413 13.296951 0 1 -12.61133,-5.49218 155.99133,29.105413 13.296951 0 1 -10.91601,-5.38477 155.99133,29.105413 13.296951 0 1 -9.05664,-5.20117 155.99133,29.105413 13.296951 0 1 -7.06641,-4.9375 155.99133,29.105413 13.296951 0 1 -4.97461,-4.60547 155.99133,29.105413 13.296951 0 1 -2.81055,-4.20508 155.99133,29.105413 13.296951 0 1 -0.27539,-1.71875 c -2.26003,51.23525 18.05993,120.32491 68.21485,134.34571 -17.67367,-31.06111 -18.56947,-71.13187 -7.45508,-94.59961 0.4739,-0.89149 0.91891,-1.70693 1.38281,-2.57422 z"
       inkscape:label="top_bot" /><path
       id="path555"
       style="display:inline;fill:#d4aa00;fill-opacity:0.66531"
       d="m 187.75781,309.66992 a 155.99133,29.105413 13.296951 0 0 -7,-1.01953 155.99133,29.105413 13.296951 0 0 -15.95898,-1.85156 155.99133,29.105413 13.296951 0 0 -14.75195,-1.21289 155.99133,29.105413 13.296951 0 0 -13.32813,-0.55469 155.99133,29.105413 13.296951 0 0 -11.70898,0.11328 155.99133,29.105413 13.296951 0 0 -9.92188,0.77539 155.99133,29.105413 13.296951 0 0 -7.99023,1.42969 155.99133,29.105413 13.296951 0 0 -5.93946,2.06055 155.99133,29.105413 13.296951 0 0 -3.80273,2.66406 155.99133,29.105413 13.296951 0 0 -1.13867,2.28125 c -0.0609,0.98105 -0.10259,1.97563 -0.14649,2.9707 a 155.99133,29.105413 13.296951 0 0 0.27539,1.71875 155.99133,29.105413 13.296951 0 0 2.81055,4.20508 155.99133,29.105413 13.296951 0 0 4.97461,4.60547 155.99133,29.105413 13.296951 0 0 7.06641,4.9375 155.99133,29.105413 13.296951 0 0 9.05664,5.20117 155.99133,29.105413 13.296951 0 0 10.91601,5.38477 155.99133,29.105413 13.296951 0 0 12.61133,5.49218 155.99133,29.105413 13.296951 0 0 14.12891,5.51953 155.99133,29.105413 13.296951 0 0 0.30273,0.10743 c 8.83322,-16.51436 16.10376,-28.92128 29.54492,-44.82813 z"
       inkscape:label="top_upper" /><path
       id="path548"
       style="display:inline;fill:#f4f24e;fill-opacity:0.66531"
       d="m 251.18164,20.306641 c 2.67252,34.931904 -29.21411,115.166869 -58.49609,146.917969 -22.73537,24.65246 -51.16596,52.8979 -74.66407,87.63086 a 149.60194,27.693608 13.176181 0 1 3.44141,-2.38867 149.60194,27.693608 13.176181 0 1 5.69922,-1.96094 149.60194,27.693608 13.176181 0 1 7.66601,-1.35938 149.60194,27.693608 13.176181 0 1 9.51954,-0.73828 149.60194,27.693608 13.176181 0 1 11.23632,-0.10547 149.60194,27.693608 13.176181 0 1 12.78711,0.52539 149.60194,27.693608 13.176181 0 1 14.15235,1.1543 149.60194,27.693608 13.176181 0 1 15.3125,1.76172 149.60194,27.693608 13.176181 0 1 16.24804,2.34375 149.60194,27.693608 13.176181 0 1 16.94727,2.89453 149.60194,27.693608 13.176181 0 1 5.35352,1.04688 C 294.74559,191.42305 325.95715,106.89194 251.18164,20.306641 Z M 236.38477,258.0293 a 149.60194,27.693608 13.176181 0 0 -5.35352,-1.04688 149.60194,27.693608 13.176181 0 0 -16.94727,-2.89453 149.60194,27.693608 13.176181 0 0 -16.24804,-2.34375 149.60194,27.693608 13.176181 0 0 -15.3125,-1.76172 149.60194,27.693608 13.176181 0 0 -14.15235,-1.1543 149.60194,27.693608 13.176181 0 0 -12.78711,-0.52539 149.60194,27.693608 13.176181 0 0 -11.23632,0.10547 149.60194,27.693608 13.176181 0 0 -9.51954,0.73828 149.60194,27.693608 13.176181 0 0 -7.66601,1.35938 149.60194,27.693608 13.176181 0 0 -5.69922,1.96094 149.60194,27.693608 13.176181 0 0 -3.44141,2.38867 c -0.15635,0.23111 -0.32065,0.44995 -0.47656,0.68164 a 149.60194,27.693608 13.176181 0 0 -1.27734,2.53125 149.60194,27.693608 13.176181 0 0 0.57812,3.56055 149.60194,27.693608 13.176181 0 0 2.69532,4 149.60194,27.693608 13.176181 0 0 4.77343,4.3789 149.60194,27.693608 13.176181 0 0 6.78125,4.69727 149.60194,27.693608 13.176181 0 0 8.68946,4.94531 149.60194,27.693608 13.176181 0 0 10.47265,5.12109 149.60194,27.693608 13.176181 0 0 12.10157,5.22461 149.60194,27.693608 13.176181 0 0 13.55468,5.24805 149.60194,27.693608 13.176181 0 0 14.81055,5.19727 149.60194,27.693608 13.176181 0 0 3.99219,1.27734 c 5.98685,-6.60594 13.00587,-13.87521 21.64062,-22.3418 6.96683,-6.86365 13.61413,-14.02836 20.02735,-21.34765 z"
       inkscape:label="top_top" /><ellipse
       style="display:none;fill:#f2dc18;stroke-width:1.09591"
       id="ellipse544"
       transform="matrix(0.97433489,0.22510337,-0.14449404,0.98950567,0,0)"
       ry="27.790419"
       rx="149.58398"
       cy="226.03377"
       cx="302.43454" /><ellipse
       style="display:none;fill:#f2dc18;stroke-width:1.14738"
       id="ellipse546"
       transform="matrix(0.97389559,0.22699642,-0.14325058,0.98968645,0,0)"
       ry="29.21534"
       rx="155.97078"
       cy="286.37732"
       cx="296.40366" /></g><g
     inkscape:label="drop_high_quality"
     inkscape:groupmode="layer"
     id="g1255"
     style="display:none"><g
       id="g1708"
       style="fill:#353a47;fill-opacity:1"
       inkscape:label="top"><path
         id="path1418"
         style="display:inline;fill:#353a47;fill-opacity:1"
         d="m 121.5,373.82422 c -1.9835,0.9771 -3.78936,1.9742 -5.41211,2.98828 -2.095,1.36989 -3.85407,2.76697 -5.26758,4.18359 -1.41424,1.41599 -2.48064,2.84894 -3.19336,4.29102 -0.53845,1.19414 -0.58382,2.42955 -0.88476,3.58984 0.4941,3.38957 1.37332,4.97162 3.08284,7.87657 1.09323,1.55813 0.65796,1.028 0.99528,1.43593 1.41359,1.39457 3.17266,2.76426 5.26758,4.10157 2.09492,1.33733 4.52187,2.63983 7.26758,3.90039 2.74611,1.26 5.80572,2.47575 9.16211,3.64062 3.35627,1.16575 7.00354,2.27846 10.92187,3.33203 2.54949,0.65506 5.20379,1.28508 7.95703,1.88867 -2.01959,-11.59152 -2.33314,-23.137 -1.0957,-33.64453 -2.4408,-0.44504 -4.82145,-0.90684 -7.13867,-1.38476 -5.7194,-1.2994 -10.98039,-2.69889 -15.73438,-4.18555 -2.0774,-0.65552 -4.05449,-1.32714 -5.92773,-2.01367 z"
         inkscape:label="top_seg_1_top"
         sodipodi:nodetypes="cccccccscccccccc" /><path
         id="path1432"
         style="display:inline;fill:#353a47;fill-opacity:1"
         inkscape:label="top_seg_2_top"
         d="m 146.71289,244.81836 c -3.56221,0.85815 -6.89364,1.75801 -9.97851,2.69531 -3.29558,1.01018 -6.29975,2.06158 -8.9961,3.14844 -2.69643,1.08768 -5.07968,2.20887 -7.13672,3.35742 -1.45341,0.85151 -2.96955,1.55056 -4.73062,3.4352 -3.47815,3.16285 -3.71957,3.98895 -4.55258,7.63902 0.024,1.13838 0.34939,2.27558 0.97461,3.40625 0.69954,1.21864 1.74637,2.42722 3.13476,3.61914 1.38857,1.19221 3.11633,2.36557 5.17383,3.51367 2.05704,1.14855 4.44029,2.26974 7.13672,3.35742 2.69635,1.08686 5.70052,2.13826 8.9961,3.14844 3.29626,1.01101 6.87831,1.97892 10.72656,2.89844 3.84761,0.91881 7.95405,1.78758 12.29687,2.60156 4.34296,0.81418 8.91445,1.57207 13.68946,2.26953 4.77513,0.69764 9.74512,1.33356 14.88281,1.9043 4.66315,0.51076 9.45481,0.96718 14.35351,1.36719 4.08492,-4.26561 8.60274,-8.8304 13.67383,-13.80274 6.61596,-6.51796 13.02896,-13.25179 19.15039,-20.18164 -1.56253,-0.0526 -3.12009,-0.11118 -4.67187,-0.17578 -4.93665,-0.25011 -9.79512,-0.56123 -14.54883,-0.93164 -4.75324,-0.36991 -9.3932,-0.79843 -13.89453,-1.2832 -4.50178,-0.48467 -8.85673,-1.02471 -13.04102,-1.61719 -4.18427,-0.59241 -8.19026,-1.23616 -11.99609,-1.92773 -3.80517,-0.69241 -7.40288,-1.43138 -10.77344,-2.21289 -3.37151,-0.78072 -6.51004,-1.60253 -9.39844,-2.46094 -2.88786,-0.85853 -5.52026,-1.75208 -7.88281,-2.67578 -0.90409,-0.35973 -1.76696,-0.72377 -2.58789,-1.0918 z"
         sodipodi:nodetypes="ccccccccccccccccccccccccccc" /><path
         id="path1462"
         style="display:inline;fill:#353a47;fill-opacity:1"
         inkscape:label="top_seg_3_top"
         d="m 232.0918,153.08203 a 80.438243,16.539628 0.29631595 0 0 -4.91992,0.62109 80.438243,16.539628 0.29631595 0 0 -7.5,1.23047 80.438243,16.539628 0.29631595 0 0 -6.70118,1.41407 80.438243,16.539628 0.29631595 0 0 -5.80468,1.57226 80.438243,16.539628 0.29631595 0 0 -4.82227,1.70899 80.438243,16.539628 0.29631595 0 0 -3.77344,1.82226 80.438243,16.539628 0.29631595 0 0 -2.3164,1.66016 c -0.59998,0.72476 -1.20004,1.43645 -1.79883,2.12305 a 80.438243,16.539628 0.29631595 0 0 -0.0703,0.0898 80.438243,16.539628 0.29631595 0 0 -0.35157,1.99414 80.438243,16.539628 0.29631595 0 0 0.81836,1.99414 80.438243,16.539628 0.29631595 0 0 1.98047,1.96484 80.438243,16.539628 0.29631595 0 0 3.11328,1.90821 80.438243,16.539628 0.29631595 0 0 4.19727,1.82226 80.438243,16.539628 0.29631595 0 0 5.22461,1.70899 80.438243,16.539628 0.29631595 0 0 6.17187,1.57226 80.438243,16.539628 0.29631595 0 0 7.03321,1.41406 80.438243,16.539628 0.29631595 0 0 7.78711,1.23047 80.438243,16.539628 0.29631595 0 0 8.43164,1.03516 80.438243,16.539628 0.29631595 0 0 8.95117,0.81836 80.438243,16.539628 0.29631595 0 0 9.33984,0.5957 80.438243,16.539628 0.29631595 0 0 9.59375,0.35938 80.438243,16.539628 0.29631595 0 0 9.70703,0.12109 80.438243,16.539628 0.29631595 0 0 3.41211,-0.0156 80.438243,16.539628 0.29631595 0 0 3.40039,-0.0449 80.438243,16.539628 0.29631595 0 0 0.54297,-0.0117 c 3.4515,-8.76577 6.21427,-17.68934 8.15234,-26.75391 a 65.661797,13.49165 0.81787816 0 1 -2.20507,0.0801 65.661797,13.49165 0.81787816 0 1 -3.90625,0.0879 65.661797,13.49165 0.81787816 0 1 -3.93946,0.0391 65.661797,13.49165 0.81787816 0 1 -3.96093,-0.01 65.661797,13.49165 0.81787816 0 1 -11.41993,-0.30469 65.661797,13.49165 0.81787816 0 1 -11.12304,-0.70508 65.661797,13.49165 0.81787816 0 1 -10.48633,-1.08594 65.661797,13.49165 0.81787816 0 1 -9.5293,-1.43359 65.661797,13.49165 0.81787816 0 1 -3.22851,-0.62305 z" /><path
         id="path1484"
         style="display:inline;fill:#353a47;fill-opacity:1"
         inkscape:label="bot_seg_1_top"
         d="m 183.90234,420.66602 c 0.38369,0.0545 0.76846,0.10851 1.1543,0.1621 5.23205,0.63243 10.62535,1.18552 16.15039,1.65626 5.52412,0.47061 11.16982,0.85803 16.90625,1.16015 5.73709,0.30176 11.55433,0.51765 17.41992,0.64649 5.86502,0.12902 11.76771,0.17076 17.67578,0.125 2.07556,-0.0159 4.1509,-0.0426 6.22461,-0.0801 2.07352,-0.0374 4.14495,-0.0856 6.21289,-0.14453 2.06763,-0.0596 4.13125,-0.12994 6.18946,-0.21094 2.05903,-0.0805 4.11222,-0.17168 6.1582,-0.27344 2.04522,-0.10144 4.08278,-0.21345 6.11133,-0.33594 2.02887,-0.12303 4.0482,-0.25652 6.05664,-0.40039 2.00849,-0.14334 4.00569,-0.29701 5.99023,-0.46093 1.98428,-0.16432 3.95543,-0.33884 5.91211,-0.52344 1.95676,-0.18467 3.8986,-0.37937 5.82422,-0.58399 1.92592,-0.20437 3.8352,-0.41861 5.72656,-0.64257 1.89118,-0.22411 3.764,-0.45789 5.61719,-0.70118 1.85314,-0.2432 3.68623,-0.49586 5.49805,-0.75781 1.81177,-0.26167 3.60189,-0.53257 5.36914,-0.8125 1.76717,-0.28015 3.51105,-0.56928 5.23047,-0.86719 1.71991,-0.29799 3.41495,-0.6047 5.08398,-0.91992 1.6681,-0.31585 3.30975,-0.64014 4.92383,-0.97265 1.61479,-0.33178 3.20174,-0.6717 4.75977,-1.01954 1.55824,-0.34771 3.08723,-0.70326 4.58593,-1.0664 1.49847,-0.36366 2.96625,-0.73484 4.40235,-1.11328 1.43587,-0.37768 2.83983,-0.76253 4.21094,-1.1543 1.37077,-0.39235 2.70831,-0.79153 4.01171,-1.19727 1.30426,-0.40573 2.57408,-0.81793 3.8086,-1.23632 1.23377,-0.41848 2.43195,-0.84306 3.59375,-1.27344 1.1625,-0.42993 2.2884,-0.86558 3.37695,-1.30664 1.08801,-0.4414 2.13838,-0.88812 3.15039,-1.33985 1.01208,-0.45157 1.98561,-0.90805 2.91992,-1.36914 0.93426,-0.46174 1.829,-0.92799 2.6836,-1.39843 0.85479,-0.46934 1.66943,-0.94275 2.44336,-1.41993 0.77429,-0.47822 1.50752,-0.9601 2.19922,-1.44531 0.69081,-0.48452 1.34005,-0.97226 1.94726,-1.46289 0.60808,-0.49082 1.17396,-0.98442 1.69727,-1.48047 0.20099,-0.20081 -1.33196,2.4261 1.14079,-1.55179 2.1117,-4.08486 3.16398,-6.05731 2.93342,-10.19625 -0.0847,-0.55515 -0.22213,-1.10934 -0.4121,-1.66211 -0.71167,-1.43189 -1.77742,-2.84919 -3.19141,-4.24414 -1.41454,-1.39392 -3.17425,-2.76295 -5.26953,-4.09961 -1.21396,-0.71349 -2.5239,-1.41634 -3.92774,-2.10743 -2.17433,0.87662 -4.51374,1.73158 -7.01172,2.5625 -3.53287,1.16292 -7.3719,2.27628 -11.49609,3.33399 -4.12501,1.05746 -8.52756,2.05733 -13.18359,2.99414 -4.65566,0.93747 -9.55652,1.81015 -14.67578,2.61328 -5.11937,0.80215 -10.44744,1.5333 -15.95508,2.18945 -5.50798,0.6567 -11.18565,1.23719 -17.00196,1.73828 -5.81581,0.50098 -11.75958,0.92167 -17.79882,1.25977 -6.03933,0.33824 -12.16312,0.59326 -18.33789,0.76367 -6.17477,0.17036 -12.38923,0.25581 -18.60938,0.25586 -6.22015,-5e-5 -12.4346,-0.0855 -18.60937,-0.25586 -6.17477,-0.17041 -12.29856,-0.42543 -18.33789,-0.76367 -6.0399,-0.33808 -11.98434,-0.75877 -17.80079,-1.25977 -4.48542,-0.40219 -8.88542,-0.8519 -13.18554,-1.34765 -2.44623,11.74649 -2.42287,23.29129 -0.4961,33.99805 z"
         sodipodi:nodetypes="scscccsccccccsccsccsccccccccccccccscccccccccccccscscscccss" /><path
         id="path1497"
         style="display:inline;fill:#353a47;fill-opacity:1"
         inkscape:label="bot_seg_2_top"
         d="m 395.53062,258.00627 c -0.32477,-0.31038 -0.53707,-0.55171 -0.90757,-0.85979 -0.51305,-0.41716 -1.06787,-0.83196 -1.66407,-1.24414 -0.59688,-0.41232 -1.23504,-0.82192 -1.91406,-1.22851 -0.67882,-0.40683 -1.39838,-0.81057 -2.1582,-1.21094 -0.76028,-0.40003 -1.56059,-0.7966 -2.40039,-1.18945 -0.83909,-0.39323 -1.71755,-0.78264 -2.63477,-1.16797 -0.91807,-0.38511 -1.87466,-0.76606 -2.86914,-1.14258 -0.99386,-0.37633 -2.02534,-0.74816 -3.09375,-1.11523 -1.0683,-0.36755 -2.17337,-0.73027 -3.31445,-1.08789 -1.14161,-0.35747 -2.31896,-0.70976 -3.53125,-1.05665 -0.1117,-0.0306 -0.22368,-0.0612 -0.33594,-0.0918 -1.79614,0.67563 -3.73817,1.33448 -5.82031,1.97461 -2.88777,0.8584 -6.02565,1.68021 -9.39649,2.46094 -3.37119,0.78152 -6.96955,1.5205 -10.77539,2.21289 -3.80583,0.69157 -7.81182,1.33532 -11.99609,1.92773 -4.18429,0.59248 -8.53924,1.13252 -13.04102,1.61719 -4.50133,0.48477 -9.14129,0.91329 -13.89453,1.2832 -4.75371,0.37041 -9.61217,0.68153 -14.54882,0.93164 -2.27315,0.0989 -4.55918,0.18484 -6.85547,0.25781 -6.62247,8.43913 -13.36087,16.12735 -19.6836,23.01172 -5.71943,5.52571 -9.54127,9.16704 -13.51367,12.96094 1.35683,0.0217 2.71504,0.0392 4.07422,0.0527 5.80218,5e-4 11.5992,-0.0732 17.35937,-0.2207 5.75983,-0.14823 11.47207,-0.36999 17.10547,-0.66406 5.63376,-0.29411 11.17838,-0.66001 16.60352,-1.0957 5.42534,-0.43519 10.72145,-0.93937 15.85937,-1.50977 5.13769,-0.57074 10.10769,-1.20666 14.88282,-1.9043 4.77501,-0.69746 9.34649,-1.45535 13.68945,-2.26953 4.34282,-0.81398 8.44926,-1.68275 12.29687,-2.60156 3.84758,-0.91953 7.42898,-1.88744 10.72461,-2.89844 3.29625,-1.01017 6.30107,-2.06157 8.99805,-3.14844 2.69643,-1.08768 5.07968,-2.20887 7.13672,-3.35742 2.0575,-1.1481 3.78526,-2.32146 5.17383,-3.51367 1.38839,-1.19192 2.94209,-2.7113 3.39746,-4.12333 0.54298,-4.20635 -0.77212,-6.37255 -1.94481,-8.59938 -0.60331,-1.07059 -1.00797,-1.39012 -1.00797,-1.39012 z"
         sodipodi:nodetypes="cccccccscccccccsccccccccscccccccccccc" /><path
         id="path1508"
         style="display:inline;fill:#353a47;fill-opacity:1"
         inkscape:label="bot_seg_3_top"
         d="m 353.89062,165.17578 a 80.438243,16.539628 0.29631595 0 0 -1.83007,-1.8164 80.438243,16.539628 0.29631595 0 0 -3.11328,-1.90821 80.438243,16.539628 0.29631595 0 0 -4.19922,-1.82226 80.438243,16.539628 0.29631595 0 0 -5.22266,-1.70899 80.438243,16.539628 0.29631595 0 0 -6.17383,-1.57226 80.438243,16.539628 0.29631595 0 0 -6.67968,-1.34375 c -0.22546,8.86974 -1.2822,17.41928 -3.01368,25.64062 a 80.438243,16.539628 0.29631595 0 0 0.16211,-0.0234 80.438243,16.539628 0.29631595 0 0 2.65039,-0.42968 80.438243,16.539628 0.29631595 0 0 2.55664,-0.45313 80.438243,16.539628 0.29631595 0 0 2.45899,-0.47461 80.438243,16.539628 0.29631595 0 0 2.35547,-0.49805 80.438243,16.539628 0.29631595 0 0 2.24804,-0.51757 80.438243,16.539628 0.29631595 0 0 2.13868,-0.53516 80.438243,16.539628 0.29631595 0 0 2.02148,-0.55664 80.438243,16.539628 0.29631595 0 0 1.9043,-0.57422 80.438243,16.539628 0.29631595 0 0 1.7832,-0.58984 80.438243,16.539628 0.29631595 0 0 1.65625,-0.60547 80.438243,16.539628 0.29631595 0 0 1.52734,-0.61914 80.438243,16.539628 0.29631595 0 0 1.39844,-0.63477 80.438243,16.539628 0.29631595 0 0 1.26367,-0.64648 80.438243,16.539628 0.29631595 0 0 1.12891,-0.65625 80.438243,16.539628 0.29631595 0 0 0.99023,-0.66797 80.438243,16.539628 0.29631595 0 0 0.85157,-0.67578 80.438243,16.539628 0.29631595 0 0 0.70898,-0.68164 80.438243,16.539628 0.29631595 0 0 0.56836,-0.68946 80.438243,16.539628 0.29631595 0 0 0.42383,-0.69531 80.438243,16.539628 0.29631595 0 0 0.2793,-0.69922 80.438243,16.539628 0.29631595 0 0 0.13476,-0.69922 80.438243,16.539628 0.29631595 0 0 -0.01,-0.70312 80.438243,16.539628 0.29631595 0 0 -0.66602,-1.625 c -0.0998,-0.17441 -0.20286,-0.3433 -0.30274,-0.51758 z" /></g><g
       id="g1700"
       style="display:inline;fill:#f2dc18;fill-opacity:0.666667"
       inkscape:label="middle"><path
         id="path1251"
         style="display:inline;fill:#f2dc18;fill-opacity:0.666667"
         d="m 109.89648,396.96094 c 11.02584,26.10417 28.82779,47.5654 54.38868,54.71094 -6.49641,-11.41732 -10.69794,-24.04537 -12.88868,-36.61915 a 35.92437,146.65592 89.528362 0 1 -7.95703,-1.88867 35.92437,146.65592 89.528362 0 1 -10.92187,-3.33203 35.92437,146.65592 89.528362 0 1 -9.16211,-3.64062 35.92437,146.65592 89.528362 0 1 -7.26758,-3.90039 35.92437,146.65592 89.528362 0 1 -5.26758,-4.10157 35.92437,146.65592 89.528362 0 1 -0.92383,-1.22851 z"
         inkscape:label="top_seg_1" /><path
         id="path1413"
         style="display:inline;fill:#f2dc18;fill-opacity:0.666667"
         inkscape:label="top_seg_2"
         d="m 202.68359,293.17969 c -4.8987,-0.40001 -9.69036,-0.85643 -14.35351,-1.36719 -5.13769,-0.57074 -10.10768,-1.20666 -14.88281,-1.9043 -4.77501,-0.69746 -9.3465,-1.45535 -13.68946,-2.26953 -4.34282,-0.81398 -8.44926,-1.68275 -12.29687,-2.60156 -3.84825,-0.91952 -7.4303,-1.88743 -10.72656,-2.89844 -3.29558,-1.01018 -6.29975,-2.06158 -8.9961,-3.14844 -2.69643,-1.08768 -5.07968,-2.20887 -7.13672,-3.35742 -2.0575,-1.1481 -3.78526,-2.32146 -5.17383,-3.51367 -1.38839,-1.19192 -2.36308,-2.25135 -3.13476,-3.61914 -0.71352,-1.6055 -1.49641,-2.46182 -0.23511,-6.29453 -1.64981,2.64422 -4.01761,8.2012 -5.59692,10.92344 -10.005947,17.247 -13.221076,49.14707 -8.285159,81.42187 0.123755,0.80921 0.240944,1.61633 0.375,2.42578 0.137815,1.24914 0.56942,2.49571 1.292969,3.73438 1.26536,1.81476 3.1566,3.60412 5.65625,5.35156 2.49888,1.74719 5.59826,3.44709 9.26953,5.08398 3.67199,1.6367 7.90441,3.20533 12.6582,4.69141 4.75399,1.48666 10.01498,2.88615 15.73438,4.18555 2.31722,0.47792 4.69787,0.93972 7.13867,1.38476 1.07202,-9.10289 3.26652,-17.44668 6.5293,-24.33593 6.4575,-12.14774 11.95832,-21.95421 19.19531,-32.23047 6.62717,-9.41034 14.75338,-19.23069 26.6582,-31.66211 z"
         sodipodi:nodetypes="ccccccccccccsccccccccsc" /><path
         id="path1425"
         style="display:inline;fill:#f2dc18;fill-opacity:0.666667"
         inkscape:label="top_seg_3"
         d="m 283.73828,183.79102 a 80.438243,16.539628 0.29631595 0 1 -0.54297,0.0117 80.438243,16.539628 0.29631595 0 1 -3.40039,0.0449 80.438243,16.539628 0.29631595 0 1 -3.41211,0.0156 80.438243,16.539628 0.29631595 0 1 -9.70703,-0.12109 80.438243,16.539628 0.29631595 0 1 -9.59375,-0.35938 80.438243,16.539628 0.29631595 0 1 -9.33984,-0.5957 80.438243,16.539628 0.29631595 0 1 -8.95117,-0.81836 80.438243,16.539628 0.29631595 0 1 -8.43164,-1.03516 80.438243,16.539628 0.29631595 0 1 -7.78711,-1.23047 80.438243,16.539628 0.29631595 0 1 -7.03321,-1.41406 80.438243,16.539628 0.29631595 0 1 -6.17187,-1.57226 80.438243,16.539628 0.29631595 0 1 -5.22461,-1.70899 80.438243,16.539628 0.29631595 0 1 -4.19727,-1.82226 80.438243,16.539628 0.29631595 0 1 -3.11328,-1.90821 80.438243,16.539628 0.29631595 0 1 -1.98047,-1.96484 80.438243,16.539628 0.29631595 0 1 -0.81836,-1.99414 80.438243,16.539628 0.29631595 0 1 0.35157,-1.99414 80.438243,16.539628 0.29631595 0 1 0.0703,-0.0898 c -0.59034,0.6769 -1.18095,1.35202 -1.76953,1.99023 -16.75684,18.16978 -36.60307,38.32207 -55.30274,61.54101 a 126.1897,25.894764 0 0 1 1.12891,-1.08593 126.1897,25.894764 0 0 1 4.53516,-2.98633 126.1897,25.894764 0 0 1 6.2539,-2.85156 126.1897,25.894764 0 0 1 7.88281,-2.67578 126.1897,25.894764 0 0 1 9.39844,-2.46094 126.1897,25.894764 0 0 1 10.77344,-2.21094 126.1897,25.894764 0 0 1 11.99609,-1.92773 126.1897,25.894764 0 0 1 13.04102,-1.61914 126.1897,25.894764 0 0 1 13.89453,-1.28321 126.1897,25.894764 0 0 1 14.54883,-0.92968 126.1897,25.894764 0 0 1 14.98828,-0.56446 126.1897,25.894764 0 0 1 15.21094,-0.1875 126.1897,25.894764 0 0 1 5.35546,0.0234 126.1897,25.894764 0 0 1 5.34571,0.0684 126.1897,25.894764 0 0 1 0.50195,0.0117 c 4.39746,-7.94033 8.25281,-16.04804 11.5,-24.29492 z m -11.5,24.29492 a 126.1897,25.894764 0 0 0 -0.50195,-0.0117 126.1897,25.894764 0 0 0 -5.34571,-0.0684 126.1897,25.894764 0 0 0 -5.35546,-0.0234 126.1897,25.894764 0 0 0 -15.21094,0.1875 126.1897,25.894764 0 0 0 -14.98828,0.56446 126.1897,25.894764 0 0 0 -14.54883,0.92968 126.1897,25.894764 0 0 0 -13.89453,1.28321 126.1897,25.894764 0 0 0 -13.04102,1.61914 126.1897,25.894764 0 0 0 -11.99609,1.92773 126.1897,25.894764 0 0 0 -10.77344,2.21094 126.1897,25.894764 0 0 0 -9.39844,2.46094 126.1897,25.894764 0 0 0 -7.88281,2.67578 126.1897,25.894764 0 0 0 -6.2539,2.85156 126.1897,25.894764 0 0 0 -4.53516,2.98633 126.1897,25.894764 0 0 0 -2.62695,2.94336 c -0.0434,0.0544 -0.0856,0.11156 -0.12891,0.16601 a 126.1897,25.894764 0 0 0 -0.91016,3.08789 126.1897,25.894764 0 0 0 0.91992,3.1211 126.1897,25.894764 0 0 0 2.7461,3.07617 126.1897,25.894764 0 0 0 4.53516,2.98437 126.1897,25.894764 0 0 0 6.2539,2.85157 126.1897,25.894764 0 0 0 7.88281,2.67578 126.1897,25.894764 0 0 0 9.39844,2.46094 126.1897,25.894764 0 0 0 10.77344,2.21289 126.1897,25.894764 0 0 0 11.99609,1.92773 126.1897,25.894764 0 0 0 13.04102,1.61719 126.1897,25.894764 0 0 0 13.89453,1.2832 126.1897,25.894764 0 0 0 14.54883,0.93164 126.1897,25.894764 0 0 0 4.67187,0.17578 c 14.18219,-16.0551 26.79384,-33.16716 36.73047,-51.10937 z" /><path
         id="path1454"
         style="display:inline;fill:#f2dc18;fill-opacity:0.666667"
         inkscape:label="top_seg_4"
         d="m 251.18164,20.306641 c 2.08739,27.28371 -16.90909,82.204139 -39.2793,120.074219 a 65.661797,13.49165 0.81787816 0 1 2.17774,-1.81641 65.661797,13.49165 0.81787816 0 1 4.58594,-2.09179 65.661797,13.49165 0.81787816 0 1 6.33593,-1.8711 65.661797,13.49165 0.81787816 0 1 7.89453,-1.5957 65.661797,13.49165 0.81787816 0 1 9.21485,-1.26953 65.661797,13.49165 0.81787816 0 1 10.25195,-0.9043 65.661797,13.49165 0.81787816 0 1 10.98047,-0.51367 65.661797,13.49165 0.81787816 0 1 11.37305,-0.10547 65.661797,13.49165 0.81787816 0 1 11.42187,0.30469 65.661797,13.49165 0.81787816 0 1 8.95313,0.56836 C 296.22909,95.420921 283.78078,58.054385 251.18164,20.306641 Z M 295.0918,131.08594 a 65.661797,13.49165 0.81787816 0 0 -8.95313,-0.56836 65.661797,13.49165 0.81787816 0 0 -11.42187,-0.30469 65.661797,13.49165 0.81787816 0 0 -11.37305,0.10547 65.661797,13.49165 0.81787816 0 0 -10.98047,0.51367 65.661797,13.49165 0.81787816 0 0 -10.25195,0.9043 65.661797,13.49165 0.81787816 0 0 -9.21485,1.26953 65.661797,13.49165 0.81787816 0 0 -7.89453,1.5957 65.661797,13.49165 0.81787816 0 0 -6.33593,1.8711 65.661797,13.49165 0.81787816 0 0 -4.58594,2.09179 65.661797,13.49165 0.81787816 0 0 -2.17774,1.81641 c -0.26071,0.44136 -0.52355,0.86412 -0.78515,1.30078 a 65.661797,13.49165 0.81787816 0 0 -0.45508,1.46875 65.661797,13.49165 0.81787816 0 0 1.27148,2.35547 65.661797,13.49165 0.81787816 0 0 3.22852,2.30078 65.661797,13.49165 0.81787816 0 0 5.08398,2.17578 65.661797,13.49165 0.81787816 0 0 6.78907,1.98633 65.661797,13.49165 0.81787816 0 0 8.28515,1.73633 65.661797,13.49165 0.81787816 0 0 9.5293,1.43359 65.661797,13.49165 0.81787816 0 0 10.48633,1.08594 65.661797,13.49165 0.81787816 0 0 11.12304,0.70508 65.661797,13.49165 0.81787816 0 0 11.41993,0.30469 65.661797,13.49165 0.81787816 0 0 3.96093,0.01 65.661797,13.49165 0.81787816 0 0 3.93946,-0.0391 65.661797,13.49165 0.81787816 0 0 3.90625,-0.0879 65.661797,13.49165 0.81787816 0 0 2.20507,-0.0801 c 1.82482,-8.53483 2.92183,-17.19112 3.20118,-25.95117 z" /><path
         id="path1486"
         style="display:inline;fill:#f2dc18;fill-opacity:0.666667"
         inkscape:label="bot_seg_1"
         d="m 183.90234,420.66602 c 4.08407,22.69447 16.80587,41.58342 33.29102,50.36328 29.40968,15.66336 88.35537,20.02093 125.48437,-6.28907 26.34579,-18.66887 42.22559,-37.47492 53.03321,-68.89843 a 35.92437,146.65592 89.528362 0 1 -0.58203,0.60351 35.92437,146.65592 89.528362 0 1 -1.69727,1.48047 35.92437,146.65592 89.528362 0 1 -1.94726,1.46289 35.92437,146.65592 89.528362 0 1 -2.19922,1.44531 35.92437,146.65592 89.528362 0 1 -2.44336,1.41993 35.92437,146.65592 89.528362 0 1 -2.6836,1.39843 35.92437,146.65592 89.528362 0 1 -2.91992,1.36914 35.92437,146.65592 89.528362 0 1 -3.15039,1.33985 35.92437,146.65592 89.528362 0 1 -3.37695,1.30664 35.92437,146.65592 89.528362 0 1 -3.59375,1.27344 35.92437,146.65592 89.528362 0 1 -3.8086,1.23632 35.92437,146.65592 89.528362 0 1 -4.01171,1.19727 35.92437,146.65592 89.528362 0 1 -4.21094,1.1543 35.92437,146.65592 89.528362 0 1 -4.40235,1.11328 35.92437,146.65592 89.528362 0 1 -4.58593,1.0664 35.92437,146.65592 89.528362 0 1 -4.75977,1.01954 35.92437,146.65592 89.528362 0 1 -4.92383,0.97265 35.92437,146.65592 89.528362 0 1 -5.08398,0.91992 35.92437,146.65592 89.528362 0 1 -5.23047,0.86719 35.92437,146.65592 89.528362 0 1 -5.36914,0.8125 35.92437,146.65592 89.528362 0 1 -5.49805,0.75781 35.92437,146.65592 89.528362 0 1 -5.61719,0.70118 35.92437,146.65592 89.528362 0 1 -5.72656,0.64257 35.92437,146.65592 89.528362 0 1 -5.82422,0.58399 35.92437,146.65592 89.528362 0 1 -5.91211,0.52344 35.92437,146.65592 89.528362 0 1 -5.99023,0.46093 35.92437,146.65592 89.528362 0 1 -6.05664,0.40039 35.92437,146.65592 89.528362 0 1 -6.11133,0.33594 35.92437,146.65592 89.528362 0 1 -6.1582,0.27344 35.92437,146.65592 89.528362 0 1 -6.18946,0.21094 35.92437,146.65592 89.528362 0 1 -6.21289,0.14453 35.92437,146.65592 89.528362 0 1 -6.22461,0.0801 35.92437,146.65592 89.528362 0 1 -17.67578,-0.125 35.92437,146.65592 89.528362 0 1 -17.41992,-0.64649 35.92437,146.65592 89.528362 0 1 -16.90625,-1.16015 35.92437,146.65592 89.528362 0 1 -16.15039,-1.65626 35.92437,146.65592 89.528362 0 1 -1.1543,-0.1621 z" /><path
         id="path1479"
         style="display:inline;fill:#f2dc18;fill-opacity:0.666667"
         inkscape:label="bot_seg_2"
         d="m 398.43359,267.75586 a 144.01421,30.476992 0 0 1 -0.21289,0.74414 144.01421,30.476992 0 0 1 -3.13476,3.61914 144.01421,30.476992 0 0 1 -5.17383,3.51367 144.01421,30.476992 0 0 1 -7.13672,3.35742 144.01421,30.476992 0 0 1 -8.99805,3.14844 144.01421,30.476992 0 0 1 -10.72461,2.89844 144.01421,30.476992 0 0 1 -12.29687,2.60156 144.01421,30.476992 0 0 1 -13.68945,2.26953 144.01421,30.476992 0 0 1 -14.88282,1.9043 144.01421,30.476992 0 0 1 -15.85937,1.50977 144.01421,30.476992 0 0 1 -16.60352,1.0957 144.01421,30.476992 0 0 1 -17.10547,0.66406 144.01421,30.476992 0 0 1 -17.35937,0.2207 144.01421,30.476992 0 0 1 -4.07422,-0.0527 c -17.92601,17.12053 -21.05203,19.69409 -26.17578,25.52344 -3.25773,3.70632 -7.61211,8.98243 -18.11719,21.23242 -12.24413,14.27791 -19.35873,29.62491 -22.49023,44.66211 a 154.38901,35.070385 0 0 0 13.18554,1.34765 154.38901,35.070385 0 0 0 17.80079,1.25977 154.38901,35.070385 0 0 0 18.33789,0.76367 154.38901,35.070385 0 0 0 18.60937,0.25586 154.38901,35.070385 0 0 0 18.60938,-0.25586 154.38901,35.070385 0 0 0 18.33789,-0.76367 154.38901,35.070385 0 0 0 17.79882,-1.25977 154.38901,35.070385 0 0 0 17.00196,-1.73828 154.38901,35.070385 0 0 0 15.95508,-2.18945 154.38901,35.070385 0 0 0 14.67578,-2.61328 154.38901,35.070385 0 0 0 13.18359,-2.99414 154.38901,35.070385 0 0 0 11.49609,-3.33399 154.38901,35.070385 0 0 0 9.64649,-3.62304 154.38901,35.070385 0 0 0 7.65039,-3.86328 154.38901,35.070385 0 0 0 5.54688,-4.04297 154.38901,35.070385 0 0 0 2.55468,-3.16602 c 0.49576,-2.81164 0.92343,-5.61967 1.26953,-8.42773 3.64595,-29.58098 -0.73398,-58.7254 -7.625,-84.26758 z" /><path
         id="path1490"
         style="display:inline;fill:#f2dc18;fill-opacity:0.666667"
         inkscape:label="bot_seg_3"
         d="m 354.19336,165.69336 a 80.438243,16.539628 0.29631595 0 1 0.66602,1.625 80.438243,16.539628 0.29631595 0 1 0.01,0.70312 80.438243,16.539628 0.29631595 0 1 -0.13476,0.69922 80.438243,16.539628 0.29631595 0 1 -0.2793,0.69922 80.438243,16.539628 0.29631595 0 1 -0.42383,0.69531 80.438243,16.539628 0.29631595 0 1 -0.56836,0.68946 80.438243,16.539628 0.29631595 0 1 -0.70898,0.68164 80.438243,16.539628 0.29631595 0 1 -0.85157,0.67578 80.438243,16.539628 0.29631595 0 1 -0.99023,0.66797 80.438243,16.539628 0.29631595 0 1 -1.12891,0.65625 80.438243,16.539628 0.29631595 0 1 -1.26367,0.64648 80.438243,16.539628 0.29631595 0 1 -1.39844,0.63477 80.438243,16.539628 0.29631595 0 1 -1.52734,0.61914 80.438243,16.539628 0.29631595 0 1 -1.65625,0.60547 80.438243,16.539628 0.29631595 0 1 -1.7832,0.58984 80.438243,16.539628 0.29631595 0 1 -1.9043,0.57422 80.438243,16.539628 0.29631595 0 1 -2.02148,0.55664 80.438243,16.539628 0.29631595 0 1 -2.13868,0.53516 80.438243,16.539628 0.29631595 0 1 -2.24804,0.51757 80.438243,16.539628 0.29631595 0 1 -2.35547,0.49805 80.438243,16.539628 0.29631595 0 1 -2.45899,0.47461 80.438243,16.539628 0.29631595 0 1 -2.55664,0.45313 80.438243,16.539628 0.29631595 0 1 -2.65039,0.42968 80.438243,16.539628 0.29631595 0 1 -0.16211,0.0234 c -2.19998,10.44585 -5.47389,20.36831 -9.50195,29.74805 -7.90252,18.40182 -18.66429,34.72322 -29.77734,48.88476 a 126.1897,25.894764 0 0 0 6.85547,-0.25781 126.1897,25.894764 0 0 0 14.54882,-0.93164 126.1897,25.894764 0 0 0 13.89453,-1.2832 126.1897,25.894764 0 0 0 13.04102,-1.61719 126.1897,25.894764 0 0 0 11.99609,-1.92773 126.1897,25.894764 0 0 0 10.77539,-2.21289 126.1897,25.894764 0 0 0 9.39649,-2.46094 126.1897,25.894764 0 0 0 7.88476,-2.67578 126.1897,25.894764 0 0 0 6.25391,-2.85157 126.1897,25.894764 0 0 0 4.5332,-2.98437 126.1897,25.894764 0 0 0 2.7461,-3.07617 126.1897,25.894764 0 0 0 0.91992,-3.1211 126.1897,25.894764 0 0 0 -0.0703,-0.67578 c -0.33919,-0.89496 -0.67744,-1.82513 -1.01563,-2.70117 -0.34529,-0.89443 -0.69372,-1.88362 -1.03711,-2.75781 -7.21455,-18.36693 -18.68702,-40.68748 -30.9082,-62.04883 z" /><path
         id="path1501"
         style="display:inline;fill:#f2dc18;fill-opacity:0.666667"
         inkscape:label="bot_seg_4"
         d="m 321.65039,113.48438 c 2.00921,7.54782 3.34777,14.8987 4.1543,22.07226 a 65.49054,13.491643 0.82020631 0 1 3.64648,0.96289 65.49054,13.491643 0.82020631 0 1 4.25195,1.43164 65.49054,13.491643 0.82020631 0 1 3.41797,1.51758 65.49054,13.491643 0.82020631 0 1 2.36329,1.4707 C 333.214,130.80443 327.10524,121.39228 321.65039,113.48438 Z m 17.83399,27.45507 a 65.49054,13.491643 0.82020631 0 0 -2.36329,-1.4707 65.49054,13.491643 0.82020631 0 0 -3.41797,-1.51758 65.49054,13.491643 0.82020631 0 0 -4.25195,-1.43164 65.49054,13.491643 0.82020631 0 0 -3.64648,-0.96289 c 0.67045,5.96326 0.98174,11.8061 0.91601,17.50781 a 65.49054,13.491643 0.82020631 0 0 1.67383,-0.4082 65.49054,13.491643 0.82020631 0 0 1.64649,-0.4375 65.49054,13.491643 0.82020631 0 0 1.55078,-0.45508 65.49054,13.491643 0.82020631 0 0 1.45117,-0.46875 65.49054,13.491643 0.82020631 0 0 1.34765,-0.48242 65.49054,13.491643 0.82020631 0 0 1.24415,-0.49414 65.49054,13.491643 0.82020631 0 0 1.13867,-0.50781 65.49054,13.491643 0.82020631 0 0 1.02929,-0.51758 65.49054,13.491643 0.82020631 0 0 0.91797,-0.5293 65.49054,13.491643 0.82020631 0 0 0.80664,-0.53711 65.49054,13.491643 0.82020631 0 0 0.69336,-0.54492 65.49054,13.491643 0.82020631 0 0 0.57813,-0.55273 65.49054,13.491643 0.82020631 0 0 0.46094,-0.5586 65.49054,13.491643 0.82020631 0 0 0.3457,-0.5625 65.49054,13.491643 0.82020631 0 0 0.22656,-0.56836 65.49054,13.491643 0.82020631 0 0 0.0937,-0.48437 c -0.81445,-1.33333 -1.63167,-2.70683 -2.4414,-4.01563 z" /></g></g><g
     inkscape:label="drop_light_bg"
     inkscape:groupmode="layer"
     id="g802"
     style="display:inline"><g
       id="g782"
       style="fill:#595640;fill-opacity:1"
       inkscape:label="top"><path
         id="path770"
         style="display:inline;fill:#595640;fill-opacity:1"
         d="m 121.5,373.82422 c -1.9835,0.9771 -3.78936,1.9742 -5.41211,2.98828 -2.095,1.36989 -3.85407,2.76697 -5.26758,4.18359 -1.41424,1.41599 -2.48064,2.84894 -3.19336,4.29102 -0.53845,1.19414 -0.58382,2.42955 -0.88476,3.58984 0.4941,3.38957 1.37332,4.97162 3.08284,7.87657 1.09323,1.55813 0.65796,1.028 0.99528,1.43593 1.41359,1.39457 3.17266,2.76426 5.26758,4.10157 2.09492,1.33733 4.52187,2.63983 7.26758,3.90039 2.74611,1.26 5.80572,2.47575 9.16211,3.64062 3.35627,1.16575 7.00354,2.27846 10.92187,3.33203 2.54949,0.65506 5.20379,1.28508 7.95703,1.88867 -2.01959,-11.59152 -2.33314,-23.137 -1.0957,-33.64453 -2.4408,-0.44504 -4.82145,-0.90684 -7.13867,-1.38476 -5.7194,-1.2994 -10.98039,-2.69889 -15.73438,-4.18555 -2.0774,-0.65552 -4.05449,-1.32714 -5.92773,-2.01367 z"
         inkscape:label="top_seg_1_top"
         sodipodi:nodetypes="cccccccscccccccc" /><path
         id="path772"
         style="display:inline;fill:#595640;fill-opacity:1"
         inkscape:label="top_seg_2_top"
         d="m 146.71289,244.81836 c -3.56221,0.85815 -6.89364,1.75801 -9.97851,2.69531 -3.29558,1.01018 -6.29975,2.06158 -8.9961,3.14844 -2.69643,1.08768 -5.07968,2.20887 -7.13672,3.35742 -1.45341,0.85151 -2.96955,1.55056 -4.73062,3.4352 -3.47815,3.16285 -3.71957,3.98895 -4.55258,7.63902 0.024,1.13838 0.34939,2.27558 0.97461,3.40625 0.69954,1.21864 1.74637,2.42722 3.13476,3.61914 1.38857,1.19221 3.11633,2.36557 5.17383,3.51367 2.05704,1.14855 4.44029,2.26974 7.13672,3.35742 2.69635,1.08686 5.70052,2.13826 8.9961,3.14844 3.29626,1.01101 6.87831,1.97892 10.72656,2.89844 3.84761,0.91881 7.95405,1.78758 12.29687,2.60156 4.34296,0.81418 8.91445,1.57207 13.68946,2.26953 4.77513,0.69764 9.74512,1.33356 14.88281,1.9043 4.66315,0.51076 9.45481,0.96718 14.35351,1.36719 4.08492,-4.26561 8.60274,-8.8304 13.67383,-13.80274 6.61596,-6.51796 13.02896,-13.25179 19.15039,-20.18164 -1.56253,-0.0526 -3.12009,-0.11118 -4.67187,-0.17578 -4.93665,-0.25011 -9.79512,-0.56123 -14.54883,-0.93164 -4.75324,-0.36991 -9.3932,-0.79843 -13.89453,-1.2832 -4.50178,-0.48467 -8.85673,-1.02471 -13.04102,-1.61719 -4.18427,-0.59241 -8.19026,-1.23616 -11.99609,-1.92773 -3.80517,-0.69241 -7.40288,-1.43138 -10.77344,-2.21289 -3.37151,-0.78072 -6.51004,-1.60253 -9.39844,-2.46094 -2.88786,-0.85853 -5.52026,-1.75208 -7.88281,-2.67578 -0.90409,-0.35973 -1.76696,-0.72377 -2.58789,-1.0918 z"
         sodipodi:nodetypes="ccccccccccccccccccccccccccc" /><path
         id="path774"
         style="display:inline;fill:#595640;fill-opacity:1"
         inkscape:label="top_seg_3_top"
         d="m 232.0918,153.08203 a 80.438243,16.539628 0.29631595 0 0 -4.91992,0.62109 80.438243,16.539628 0.29631595 0 0 -7.5,1.23047 80.438243,16.539628 0.29631595 0 0 -6.70118,1.41407 80.438243,16.539628 0.29631595 0 0 -5.80468,1.57226 80.438243,16.539628 0.29631595 0 0 -4.82227,1.70899 80.438243,16.539628 0.29631595 0 0 -3.77344,1.82226 80.438243,16.539628 0.29631595 0 0 -2.3164,1.66016 c -0.59998,0.72476 -1.20004,1.43645 -1.79883,2.12305 a 80.438243,16.539628 0.29631595 0 0 -0.0703,0.0898 80.438243,16.539628 0.29631595 0 0 -0.35157,1.99414 80.438243,16.539628 0.29631595 0 0 0.81836,1.99414 80.438243,16.539628 0.29631595 0 0 1.98047,1.96484 80.438243,16.539628 0.29631595 0 0 3.11328,1.90821 80.438243,16.539628 0.29631595 0 0 4.19727,1.82226 80.438243,16.539628 0.29631595 0 0 5.22461,1.70899 80.438243,16.539628 0.29631595 0 0 6.17187,1.57226 80.438243,16.539628 0.29631595 0 0 7.03321,1.41406 80.438243,16.539628 0.29631595 0 0 7.78711,1.23047 80.438243,16.539628 0.29631595 0 0 8.43164,1.03516 80.438243,16.539628 0.29631595 0 0 8.95117,0.81836 80.438243,16.539628 0.29631595 0 0 9.33984,0.5957 80.438243,16.539628 0.29631595 0 0 9.59375,0.35938 80.438243,16.539628 0.29631595 0 0 9.70703,0.12109 80.438243,16.539628 0.29631595 0 0 3.41211,-0.0156 80.438243,16.539628 0.29631595 0 0 3.40039,-0.0449 80.438243,16.539628 0.29631595 0 0 0.54297,-0.0117 c 3.4515,-8.76577 6.21427,-17.68934 8.15234,-26.75391 a 65.661797,13.49165 0.81787816 0 1 -2.20507,0.0801 65.661797,13.49165 0.81787816 0 1 -3.90625,0.0879 65.661797,13.49165 0.81787816 0 1 -3.93946,0.0391 65.661797,13.49165 0.81787816 0 1 -3.96093,-0.01 65.661797,13.49165 0.81787816 0 1 -11.41993,-0.30469 65.661797,13.49165 0.81787816 0 1 -11.12304,-0.70508 65.661797,13.49165 0.81787816 0 1 -10.48633,-1.08594 65.661797,13.49165 0.81787816 0 1 -9.5293,-1.43359 65.661797,13.49165 0.81787816 0 1 -3.22851,-0.62305 z" /><path
         id="path776"
         style="display:inline;fill:#595640;fill-opacity:1"
         inkscape:label="bot_seg_1_top"
         d="m 183.90234,420.66602 c 0.38369,0.0545 0.76846,0.10851 1.1543,0.1621 5.23205,0.63243 10.62535,1.18552 16.15039,1.65626 5.52412,0.47061 11.16982,0.85803 16.90625,1.16015 5.73709,0.30176 11.55433,0.51765 17.41992,0.64649 5.86502,0.12902 11.76771,0.17076 17.67578,0.125 2.07556,-0.0159 4.1509,-0.0426 6.22461,-0.0801 2.07352,-0.0374 4.14495,-0.0856 6.21289,-0.14453 2.06763,-0.0596 4.13125,-0.12994 6.18946,-0.21094 2.05903,-0.0805 4.11222,-0.17168 6.1582,-0.27344 2.04522,-0.10144 4.08278,-0.21345 6.11133,-0.33594 2.02887,-0.12303 4.0482,-0.25652 6.05664,-0.40039 2.00849,-0.14334 4.00569,-0.29701 5.99023,-0.46093 1.98428,-0.16432 3.95543,-0.33884 5.91211,-0.52344 1.95676,-0.18467 3.8986,-0.37937 5.82422,-0.58399 1.92592,-0.20437 3.8352,-0.41861 5.72656,-0.64257 1.89118,-0.22411 3.764,-0.45789 5.61719,-0.70118 1.85314,-0.2432 3.68623,-0.49586 5.49805,-0.75781 1.81177,-0.26167 3.60189,-0.53257 5.36914,-0.8125 1.76717,-0.28015 3.51105,-0.56928 5.23047,-0.86719 1.71991,-0.29799 3.41495,-0.6047 5.08398,-0.91992 1.6681,-0.31585 3.30975,-0.64014 4.92383,-0.97265 1.61479,-0.33178 3.20174,-0.6717 4.75977,-1.01954 1.55824,-0.34771 3.08723,-0.70326 4.58593,-1.0664 1.49847,-0.36366 2.96625,-0.73484 4.40235,-1.11328 1.43587,-0.37768 2.83983,-0.76253 4.21094,-1.1543 1.37077,-0.39235 2.70831,-0.79153 4.01171,-1.19727 1.30426,-0.40573 2.57408,-0.81793 3.8086,-1.23632 1.23377,-0.41848 2.43195,-0.84306 3.59375,-1.27344 1.1625,-0.42993 2.2884,-0.86558 3.37695,-1.30664 1.08801,-0.4414 2.13838,-0.88812 3.15039,-1.33985 1.01208,-0.45157 1.98561,-0.90805 2.91992,-1.36914 0.93426,-0.46174 1.829,-0.92799 2.6836,-1.39843 0.85479,-0.46934 1.66943,-0.94275 2.44336,-1.41993 0.77429,-0.47822 1.50752,-0.9601 2.19922,-1.44531 0.69081,-0.48452 1.34005,-0.97226 1.94726,-1.46289 0.60808,-0.49082 1.17396,-0.98442 1.69727,-1.48047 0.20099,-0.20081 -1.33196,2.4261 1.14079,-1.55179 2.1117,-4.08486 3.16398,-6.05731 2.93342,-10.19625 -0.0847,-0.55515 -0.22213,-1.10934 -0.4121,-1.66211 -0.71167,-1.43189 -1.77742,-2.84919 -3.19141,-4.24414 -1.41454,-1.39392 -3.17425,-2.76295 -5.26953,-4.09961 -1.21396,-0.71349 -2.5239,-1.41634 -3.92774,-2.10743 -2.17433,0.87662 -4.51374,1.73158 -7.01172,2.5625 -3.53287,1.16292 -7.3719,2.27628 -11.49609,3.33399 -4.12501,1.05746 -8.52756,2.05733 -13.18359,2.99414 -4.65566,0.93747 -9.55652,1.81015 -14.67578,2.61328 -5.11937,0.80215 -10.44744,1.5333 -15.95508,2.18945 -5.50798,0.6567 -11.18565,1.23719 -17.00196,1.73828 -5.81581,0.50098 -11.75958,0.92167 -17.79882,1.25977 -6.03933,0.33824 -12.16312,0.59326 -18.33789,0.76367 -6.17477,0.17036 -12.38923,0.25581 -18.60938,0.25586 -6.22015,-5e-5 -12.4346,-0.0855 -18.60937,-0.25586 -6.17477,-0.17041 -12.29856,-0.42543 -18.33789,-0.76367 -6.0399,-0.33808 -11.98434,-0.75877 -17.80079,-1.25977 -4.48542,-0.40219 -8.88542,-0.8519 -13.18554,-1.34765 -2.44623,11.74649 -2.42287,23.29129 -0.4961,33.99805 z"
         sodipodi:nodetypes="scscccsccccccsccsccsccccccccccccccscccccccccccccscscscccss"
         sodipodi:insensitive="true" /><path
         id="path778"
         style="display:inline;fill:#595640;fill-opacity:1"
         inkscape:label="bot_seg_2_top"
         d="m 395.53062,258.00627 c -0.32477,-0.31038 -0.53707,-0.55171 -0.90757,-0.85979 -0.51305,-0.41716 -1.06787,-0.83196 -1.66407,-1.24414 -0.59688,-0.41232 -1.23504,-0.82192 -1.91406,-1.22851 -0.67882,-0.40683 -1.39838,-0.81057 -2.1582,-1.21094 -0.76028,-0.40003 -1.56059,-0.7966 -2.40039,-1.18945 -0.83909,-0.39323 -1.71755,-0.78264 -2.63477,-1.16797 -0.91807,-0.38511 -1.87466,-0.76606 -2.86914,-1.14258 -0.99386,-0.37633 -2.02534,-0.74816 -3.09375,-1.11523 -1.0683,-0.36755 -2.17337,-0.73027 -3.31445,-1.08789 -1.14161,-0.35747 -2.31896,-0.70976 -3.53125,-1.05665 -0.1117,-0.0306 -0.22368,-0.0612 -0.33594,-0.0918 -1.79614,0.67563 -3.73817,1.33448 -5.82031,1.97461 -2.88777,0.8584 -6.02565,1.68021 -9.39649,2.46094 -3.37119,0.78152 -6.96955,1.5205 -10.77539,2.21289 -3.80583,0.69157 -7.81182,1.33532 -11.99609,1.92773 -4.18429,0.59248 -8.53924,1.13252 -13.04102,1.61719 -4.50133,0.48477 -9.14129,0.91329 -13.89453,1.2832 -4.75371,0.37041 -9.61217,0.68153 -14.54882,0.93164 -2.27315,0.0989 -4.55918,0.18484 -6.85547,0.25781 -6.62247,8.43913 -13.36087,16.12735 -19.6836,23.01172 -5.71943,5.52571 -9.54127,9.16704 -13.51367,12.96094 1.35683,0.0217 2.71504,0.0392 4.07422,0.0527 5.80218,5e-4 11.5992,-0.0732 17.35937,-0.2207 5.75983,-0.14823 11.47207,-0.36999 17.10547,-0.66406 5.63376,-0.29411 11.17838,-0.66001 16.60352,-1.0957 5.42534,-0.43519 10.72145,-0.93937 15.85937,-1.50977 5.13769,-0.57074 10.10769,-1.20666 14.88282,-1.9043 4.77501,-0.69746 9.34649,-1.45535 13.68945,-2.26953 4.34282,-0.81398 8.44926,-1.68275 12.29687,-2.60156 3.84758,-0.91953 7.42898,-1.88744 10.72461,-2.89844 3.29625,-1.01017 6.30107,-2.06157 8.99805,-3.14844 2.69643,-1.08768 5.07968,-2.20887 7.13672,-3.35742 2.0575,-1.1481 3.78526,-2.32146 5.17383,-3.51367 1.38839,-1.19192 2.94209,-2.7113 3.39746,-4.12333 0.54298,-4.20635 -0.77212,-6.37255 -1.94481,-8.59938 -0.60331,-1.07059 -1.00797,-1.39012 -1.00797,-1.39012 z"
         sodipodi:nodetypes="cccccccscccccccsccccccccscccccccccccc" /><path
         id="path780"
         style="display:inline;fill:#595640;fill-opacity:1"
         inkscape:label="bot_seg_3_top"
         d="m 353.89062,165.17578 a 80.438243,16.539628 0.29631595 0 0 -1.83007,-1.8164 80.438243,16.539628 0.29631595 0 0 -3.11328,-1.90821 80.438243,16.539628 0.29631595 0 0 -4.19922,-1.82226 80.438243,16.539628 0.29631595 0 0 -5.22266,-1.70899 80.438243,16.539628 0.29631595 0 0 -6.17383,-1.57226 80.438243,16.539628 0.29631595 0 0 -6.67968,-1.34375 c -0.22546,8.86974 -1.2822,17.41928 -3.01368,25.64062 a 80.438243,16.539628 0.29631595 0 0 0.16211,-0.0234 80.438243,16.539628 0.29631595 0 0 2.65039,-0.42968 80.438243,16.539628 0.29631595 0 0 2.55664,-0.45313 80.438243,16.539628 0.29631595 0 0 2.45899,-0.47461 80.438243,16.539628 0.29631595 0 0 2.35547,-0.49805 80.438243,16.539628 0.29631595 0 0 2.24804,-0.51757 80.438243,16.539628 0.29631595 0 0 2.13868,-0.53516 80.438243,16.539628 0.29631595 0 0 2.02148,-0.55664 80.438243,16.539628 0.29631595 0 0 1.9043,-0.57422 80.438243,16.539628 0.29631595 0 0 1.7832,-0.58984 80.438243,16.539628 0.29631595 0 0 1.65625,-0.60547 80.438243,16.539628 0.29631595 0 0 1.52734,-0.61914 80.438243,16.539628 0.29631595 0 0 1.39844,-0.63477 80.438243,16.539628 0.29631595 0 0 1.26367,-0.64648 80.438243,16.539628 0.29631595 0 0 1.12891,-0.65625 80.438243,16.539628 0.29631595 0 0 0.99023,-0.66797 80.438243,16.539628 0.29631595 0 0 0.85157,-0.67578 80.438243,16.539628 0.29631595 0 0 0.70898,-0.68164 80.438243,16.539628 0.29631595 0 0 0.56836,-0.68946 80.438243,16.539628 0.29631595 0 0 0.42383,-0.69531 80.438243,16.539628 0.29631595 0 0 0.2793,-0.69922 80.438243,16.539628 0.29631595 0 0 0.13476,-0.69922 80.438243,16.539628 0.29631595 0 0 -0.01,-0.70312 80.438243,16.539628 0.29631595 0 0 -0.66602,-1.625 c -0.0998,-0.17441 -0.20286,-0.3433 -0.30274,-0.51758 z" /></g><g
       id="g800"
       style="display:inline;fill:#f7dc6e;fill-opacity:1"
       inkscape:label="middle"><path
         id="path784"
         style="display:inline;fill:#f7dc6e;fill-opacity:1"
         d="m 109.89648,396.96094 c 11.02584,26.10417 28.82779,47.5654 54.38868,54.71094 -6.49641,-11.41732 -10.69794,-24.04537 -12.88868,-36.61915 a 35.92437,146.65592 89.528362 0 1 -7.95703,-1.88867 35.92437,146.65592 89.528362 0 1 -10.92187,-3.33203 35.92437,146.65592 89.528362 0 1 -9.16211,-3.64062 35.92437,146.65592 89.528362 0 1 -7.26758,-3.90039 35.92437,146.65592 89.528362 0 1 -5.26758,-4.10157 35.92437,146.65592 89.528362 0 1 -0.92383,-1.22851 z"
         inkscape:label="top_seg_1" /><path
         id="path786"
         style="display:inline;fill:#f7dc6e;fill-opacity:1"
         inkscape:label="top_seg_2"
         d="m 202.68359,293.17969 c -4.8987,-0.40001 -9.69036,-0.85643 -14.35351,-1.36719 -5.13769,-0.57074 -10.10768,-1.20666 -14.88281,-1.9043 -4.77501,-0.69746 -9.3465,-1.45535 -13.68946,-2.26953 -4.34282,-0.81398 -8.44926,-1.68275 -12.29687,-2.60156 -3.84825,-0.91952 -7.4303,-1.88743 -10.72656,-2.89844 -3.29558,-1.01018 -6.29975,-2.06158 -8.9961,-3.14844 -2.69643,-1.08768 -5.07968,-2.20887 -7.13672,-3.35742 -2.0575,-1.1481 -3.78526,-2.32146 -5.17383,-3.51367 -1.38839,-1.19192 -2.36308,-2.25135 -3.13476,-3.61914 -0.71352,-1.6055 -1.49641,-2.46182 -0.23511,-6.29453 -1.64981,2.64422 -4.01761,8.2012 -5.59692,10.92344 -10.005947,17.247 -13.221076,49.14707 -8.285159,81.42187 0.123755,0.80921 0.240944,1.61633 0.375,2.42578 0.137815,1.24914 0.56942,2.49571 1.292969,3.73438 1.26536,1.81476 3.1566,3.60412 5.65625,5.35156 2.49888,1.74719 5.59826,3.44709 9.26953,5.08398 3.67199,1.6367 7.90441,3.20533 12.6582,4.69141 4.75399,1.48666 10.01498,2.88615 15.73438,4.18555 2.31722,0.47792 4.69787,0.93972 7.13867,1.38476 1.07202,-9.10289 3.26652,-17.44668 6.5293,-24.33593 6.4575,-12.14774 11.95832,-21.95421 19.19531,-32.23047 6.62717,-9.41034 14.75338,-19.23069 26.6582,-31.66211 z"
         sodipodi:nodetypes="ccccccccccccsccccccccsc" /><path
         id="path788"
         style="display:inline;fill:#f7dc6e;fill-opacity:1"
         inkscape:label="top_seg_3"
         d="m 283.73828,183.79102 a 80.438243,16.539628 0.29631595 0 1 -0.54297,0.0117 80.438243,16.539628 0.29631595 0 1 -3.40039,0.0449 80.438243,16.539628 0.29631595 0 1 -3.41211,0.0156 80.438243,16.539628 0.29631595 0 1 -9.70703,-0.12109 80.438243,16.539628 0.29631595 0 1 -9.59375,-0.35938 80.438243,16.539628 0.29631595 0 1 -9.33984,-0.5957 80.438243,16.539628 0.29631595 0 1 -8.95117,-0.81836 80.438243,16.539628 0.29631595 0 1 -8.43164,-1.03516 80.438243,16.539628 0.29631595 0 1 -7.78711,-1.23047 80.438243,16.539628 0.29631595 0 1 -7.03321,-1.41406 80.438243,16.539628 0.29631595 0 1 -6.17187,-1.57226 80.438243,16.539628 0.29631595 0 1 -5.22461,-1.70899 80.438243,16.539628 0.29631595 0 1 -4.19727,-1.82226 80.438243,16.539628 0.29631595 0 1 -3.11328,-1.90821 80.438243,16.539628 0.29631595 0 1 -1.98047,-1.96484 80.438243,16.539628 0.29631595 0 1 -0.81836,-1.99414 80.438243,16.539628 0.29631595 0 1 0.35157,-1.99414 80.438243,16.539628 0.29631595 0 1 0.0703,-0.0898 c -0.59034,0.6769 -1.18095,1.35202 -1.76953,1.99023 -16.75684,18.16978 -36.60307,38.32207 -55.30274,61.54101 a 126.1897,25.894764 0 0 1 1.12891,-1.08593 126.1897,25.894764 0 0 1 4.53516,-2.98633 126.1897,25.894764 0 0 1 6.2539,-2.85156 126.1897,25.894764 0 0 1 7.88281,-2.67578 126.1897,25.894764 0 0 1 9.39844,-2.46094 126.1897,25.894764 0 0 1 10.77344,-2.21094 126.1897,25.894764 0 0 1 11.99609,-1.92773 126.1897,25.894764 0 0 1 13.04102,-1.61914 126.1897,25.894764 0 0 1 13.89453,-1.28321 126.1897,25.894764 0 0 1 14.54883,-0.92968 126.1897,25.894764 0 0 1 14.98828,-0.56446 126.1897,25.894764 0 0 1 15.21094,-0.1875 126.1897,25.894764 0 0 1 5.35546,0.0234 126.1897,25.894764 0 0 1 5.34571,0.0684 126.1897,25.894764 0 0 1 0.50195,0.0117 c 4.39746,-7.94033 8.25281,-16.04804 11.5,-24.29492 z m -11.5,24.29492 a 126.1897,25.894764 0 0 0 -0.50195,-0.0117 126.1897,25.894764 0 0 0 -5.34571,-0.0684 126.1897,25.894764 0 0 0 -5.35546,-0.0234 126.1897,25.894764 0 0 0 -15.21094,0.1875 126.1897,25.894764 0 0 0 -14.98828,0.56446 126.1897,25.894764 0 0 0 -14.54883,0.92968 126.1897,25.894764 0 0 0 -13.89453,1.28321 126.1897,25.894764 0 0 0 -13.04102,1.61914 126.1897,25.894764 0 0 0 -11.99609,1.92773 126.1897,25.894764 0 0 0 -10.77344,2.21094 126.1897,25.894764 0 0 0 -9.39844,2.46094 126.1897,25.894764 0 0 0 -7.88281,2.67578 126.1897,25.894764 0 0 0 -6.2539,2.85156 126.1897,25.894764 0 0 0 -4.53516,2.98633 126.1897,25.894764 0 0 0 -2.62695,2.94336 c -0.0434,0.0544 -0.0856,0.11156 -0.12891,0.16601 a 126.1897,25.894764 0 0 0 -0.91016,3.08789 126.1897,25.894764 0 0 0 0.91992,3.1211 126.1897,25.894764 0 0 0 2.7461,3.07617 126.1897,25.894764 0 0 0 4.53516,2.98437 126.1897,25.894764 0 0 0 6.2539,2.85157 126.1897,25.894764 0 0 0 7.88281,2.67578 126.1897,25.894764 0 0 0 9.39844,2.46094 126.1897,25.894764 0 0 0 10.77344,2.21289 126.1897,25.894764 0 0 0 11.99609,1.92773 126.1897,25.894764 0 0 0 13.04102,1.61719 126.1897,25.894764 0 0 0 13.89453,1.2832 126.1897,25.894764 0 0 0 14.54883,0.93164 126.1897,25.894764 0 0 0 4.67187,0.17578 c 14.18219,-16.0551 26.79384,-33.16716 36.73047,-51.10937 z" /><path
         id="path790"
         style="display:inline;fill:#f7dc6e;fill-opacity:1"
         inkscape:label="top_seg_4"
         d="m 251.18164,20.306641 c 2.08739,27.28371 -16.90909,82.204139 -39.2793,120.074219 a 65.661797,13.49165 0.81787816 0 1 2.17774,-1.81641 65.661797,13.49165 0.81787816 0 1 4.58594,-2.09179 65.661797,13.49165 0.81787816 0 1 6.33593,-1.8711 65.661797,13.49165 0.81787816 0 1 7.89453,-1.5957 65.661797,13.49165 0.81787816 0 1 9.21485,-1.26953 65.661797,13.49165 0.81787816 0 1 10.25195,-0.9043 65.661797,13.49165 0.81787816 0 1 10.98047,-0.51367 65.661797,13.49165 0.81787816 0 1 11.37305,-0.10547 65.661797,13.49165 0.81787816 0 1 11.42187,0.30469 65.661797,13.49165 0.81787816 0 1 8.95313,0.56836 C 296.22909,95.420921 283.78078,58.054385 251.18164,20.306641 Z M 295.0918,131.08594 a 65.661797,13.49165 0.81787816 0 0 -8.95313,-0.56836 65.661797,13.49165 0.81787816 0 0 -11.42187,-0.30469 65.661797,13.49165 0.81787816 0 0 -11.37305,0.10547 65.661797,13.49165 0.81787816 0 0 -10.98047,0.51367 65.661797,13.49165 0.81787816 0 0 -10.25195,0.9043 65.661797,13.49165 0.81787816 0 0 -9.21485,1.26953 65.661797,13.49165 0.81787816 0 0 -7.89453,1.5957 65.661797,13.49165 0.81787816 0 0 -6.33593,1.8711 65.661797,13.49165 0.81787816 0 0 -4.58594,2.09179 65.661797,13.49165 0.81787816 0 0 -2.17774,1.81641 c -0.26071,0.44136 -0.52355,0.86412 -0.78515,1.30078 a 65.661797,13.49165 0.81787816 0 0 -0.45508,1.46875 65.661797,13.49165 0.81787816 0 0 1.27148,2.35547 65.661797,13.49165 0.81787816 0 0 3.22852,2.30078 65.661797,13.49165 0.81787816 0 0 5.08398,2.17578 65.661797,13.49165 0.81787816 0 0 6.78907,1.98633 65.661797,13.49165 0.81787816 0 0 8.28515,1.73633 65.661797,13.49165 0.81787816 0 0 9.5293,1.43359 65.661797,13.49165 0.81787816 0 0 10.48633,1.08594 65.661797,13.49165 0.81787816 0 0 11.12304,0.70508 65.661797,13.49165 0.81787816 0 0 11.41993,0.30469 65.661797,13.49165 0.81787816 0 0 3.96093,0.01 65.661797,13.49165 0.81787816 0 0 3.93946,-0.0391 65.661797,13.49165 0.81787816 0 0 3.90625,-0.0879 65.661797,13.49165 0.81787816 0 0 2.20507,-0.0801 c 1.82482,-8.53483 2.92183,-17.19112 3.20118,-25.95117 z" /><path
         id="path792"
         style="display:inline;fill:#f7dc6e;fill-opacity:1"
         inkscape:label="bot_seg_1"
         d="m 183.90234,420.66602 c 4.08407,22.69447 16.80587,41.58342 33.29102,50.36328 29.40968,15.66336 88.35537,20.02093 125.48437,-6.28907 26.34579,-18.66887 42.22559,-37.47492 53.03321,-68.89843 a 35.92437,146.65592 89.528362 0 1 -0.58203,0.60351 35.92437,146.65592 89.528362 0 1 -1.69727,1.48047 35.92437,146.65592 89.528362 0 1 -1.94726,1.46289 35.92437,146.65592 89.528362 0 1 -2.19922,1.44531 35.92437,146.65592 89.528362 0 1 -2.44336,1.41993 35.92437,146.65592 89.528362 0 1 -2.6836,1.39843 35.92437,146.65592 89.528362 0 1 -2.91992,1.36914 35.92437,146.65592 89.528362 0 1 -3.15039,1.33985 35.92437,146.65592 89.528362 0 1 -3.37695,1.30664 35.92437,146.65592 89.528362 0 1 -3.59375,1.27344 35.92437,146.65592 89.528362 0 1 -3.8086,1.23632 35.92437,146.65592 89.528362 0 1 -4.01171,1.19727 35.92437,146.65592 89.528362 0 1 -4.21094,1.1543 35.92437,146.65592 89.528362 0 1 -4.40235,1.11328 35.92437,146.65592 89.528362 0 1 -4.58593,1.0664 35.92437,146.65592 89.528362 0 1 -4.75977,1.01954 35.92437,146.65592 89.528362 0 1 -4.92383,0.97265 35.92437,146.65592 89.528362 0 1 -5.08398,0.91992 35.92437,146.65592 89.528362 0 1 -5.23047,0.86719 35.92437,146.65592 89.528362 0 1 -5.36914,0.8125 35.92437,146.65592 89.528362 0 1 -5.49805,0.75781 35.92437,146.65592 89.528362 0 1 -5.61719,0.70118 35.92437,146.65592 89.528362 0 1 -5.72656,0.64257 35.92437,146.65592 89.528362 0 1 -5.82422,0.58399 35.92437,146.65592 89.528362 0 1 -5.91211,0.52344 35.92437,146.65592 89.528362 0 1 -5.99023,0.46093 35.92437,146.65592 89.528362 0 1 -6.05664,0.40039 35.92437,146.65592 89.528362 0 1 -6.11133,0.33594 35.92437,146.65592 89.528362 0 1 -6.1582,0.27344 35.92437,146.65592 89.528362 0 1 -6.18946,0.21094 35.92437,146.65592 89.528362 0 1 -6.21289,0.14453 35.92437,146.65592 89.528362 0 1 -6.22461,0.0801 35.92437,146.65592 89.528362 0 1 -17.67578,-0.125 35.92437,146.65592 89.528362 0 1 -17.41992,-0.64649 35.92437,146.65592 89.528362 0 1 -16.90625,-1.16015 35.92437,146.65592 89.528362 0 1 -16.15039,-1.65626 35.92437,146.65592 89.528362 0 1 -1.1543,-0.1621 z" /><path
         id="path794"
         style="display:inline;fill:#f7dc6e;fill-opacity:1"
         inkscape:label="bot_seg_2"
         d="m 398.43359,267.75586 a 144.01421,30.476992 0 0 1 -0.21289,0.74414 144.01421,30.476992 0 0 1 -3.13476,3.61914 144.01421,30.476992 0 0 1 -5.17383,3.51367 144.01421,30.476992 0 0 1 -7.13672,3.35742 144.01421,30.476992 0 0 1 -8.99805,3.14844 144.01421,30.476992 0 0 1 -10.72461,2.89844 144.01421,30.476992 0 0 1 -12.29687,2.60156 144.01421,30.476992 0 0 1 -13.68945,2.26953 144.01421,30.476992 0 0 1 -14.88282,1.9043 144.01421,30.476992 0 0 1 -15.85937,1.50977 144.01421,30.476992 0 0 1 -16.60352,1.0957 144.01421,30.476992 0 0 1 -17.10547,0.66406 144.01421,30.476992 0 0 1 -17.35937,0.2207 144.01421,30.476992 0 0 1 -4.07422,-0.0527 c -17.92601,17.12053 -21.05203,19.69409 -26.17578,25.52344 -3.25773,3.70632 -7.61211,8.98243 -18.11719,21.23242 -12.24413,14.27791 -19.35873,29.62491 -22.49023,44.66211 a 154.38901,35.070385 0 0 0 13.18554,1.34765 154.38901,35.070385 0 0 0 17.80079,1.25977 154.38901,35.070385 0 0 0 18.33789,0.76367 154.38901,35.070385 0 0 0 18.60937,0.25586 154.38901,35.070385 0 0 0 18.60938,-0.25586 154.38901,35.070385 0 0 0 18.33789,-0.76367 154.38901,35.070385 0 0 0 17.79882,-1.25977 154.38901,35.070385 0 0 0 17.00196,-1.73828 154.38901,35.070385 0 0 0 15.95508,-2.18945 154.38901,35.070385 0 0 0 14.67578,-2.61328 154.38901,35.070385 0 0 0 13.18359,-2.99414 154.38901,35.070385 0 0 0 11.49609,-3.33399 154.38901,35.070385 0 0 0 9.64649,-3.62304 154.38901,35.070385 0 0 0 7.65039,-3.86328 154.38901,35.070385 0 0 0 5.54688,-4.04297 154.38901,35.070385 0 0 0 2.55468,-3.16602 c 0.49576,-2.81164 0.92343,-5.61967 1.26953,-8.42773 3.64595,-29.58098 -0.73398,-58.7254 -7.625,-84.26758 z" /><path
         id="path796"
         style="display:inline;fill:#f7dc6e;fill-opacity:1"
         inkscape:label="bot_seg_3"
         d="m 354.19336,165.69336 a 80.438243,16.539628 0.29631595 0 1 0.66602,1.625 80.438243,16.539628 0.29631595 0 1 0.01,0.70312 80.438243,16.539628 0.29631595 0 1 -0.13476,0.69922 80.438243,16.539628 0.29631595 0 1 -0.2793,0.69922 80.438243,16.539628 0.29631595 0 1 -0.42383,0.69531 80.438243,16.539628 0.29631595 0 1 -0.56836,0.68946 80.438243,16.539628 0.29631595 0 1 -0.70898,0.68164 80.438243,16.539628 0.29631595 0 1 -0.85157,0.67578 80.438243,16.539628 0.29631595 0 1 -0.99023,0.66797 80.438243,16.539628 0.29631595 0 1 -1.12891,0.65625 80.438243,16.539628 0.29631595 0 1 -1.26367,0.64648 80.438243,16.539628 0.29631595 0 1 -1.39844,0.63477 80.438243,16.539628 0.29631595 0 1 -1.52734,0.61914 80.438243,16.539628 0.29631595 0 1 -1.65625,0.60547 80.438243,16.539628 0.29631595 0 1 -1.7832,0.58984 80.438243,16.539628 0.29631595 0 1 -1.9043,0.57422 80.438243,16.539628 0.29631595 0 1 -2.02148,0.55664 80.438243,16.539628 0.29631595 0 1 -2.13868,0.53516 80.438243,16.539628 0.29631595 0 1 -2.24804,0.51757 80.438243,16.539628 0.29631595 0 1 -2.35547,0.49805 80.438243,16.539628 0.29631595 0 1 -2.45899,0.47461 80.438243,16.539628 0.29631595 0 1 -2.55664,0.45313 80.438243,16.539628 0.29631595 0 1 -2.65039,0.42968 80.438243,16.539628 0.29631595 0 1 -0.16211,0.0234 c -2.19998,10.44585 -5.47389,20.36831 -9.50195,29.74805 -7.90252,18.40182 -18.66429,34.72322 -29.77734,48.88476 a 126.1897,25.894764 0 0 0 6.85547,-0.25781 126.1897,25.894764 0 0 0 14.54882,-0.93164 126.1897,25.894764 0 0 0 13.89453,-1.2832 126.1897,25.894764 0 0 0 13.04102,-1.61719 126.1897,25.894764 0 0 0 11.99609,-1.92773 126.1897,25.894764 0 0 0 10.77539,-2.21289 126.1897,25.894764 0 0 0 9.39649,-2.46094 126.1897,25.894764 0 0 0 7.88476,-2.67578 126.1897,25.894764 0 0 0 6.25391,-2.85157 126.1897,25.894764 0 0 0 4.5332,-2.98437 126.1897,25.894764 0 0 0 2.7461,-3.07617 126.1897,25.894764 0 0 0 0.91992,-3.1211 126.1897,25.894764 0 0 0 -0.0703,-0.67578 c -0.33919,-0.89496 -0.67744,-1.82513 -1.01563,-2.70117 -0.34529,-0.89443 -0.69372,-1.88362 -1.03711,-2.75781 -7.21455,-18.36693 -18.68702,-40.68748 -30.9082,-62.04883 z" /><path
         id="path798"
         style="display:inline;fill:#f7dc6e;fill-opacity:1"
         inkscape:label="bot_seg_4"
         d="m 321.65039,113.48438 c 2.00921,7.54782 3.34777,14.8987 4.1543,22.07226 a 65.49054,13.491643 0.82020631 0 1 3.64648,0.96289 65.49054,13.491643 0.82020631 0 1 4.25195,1.43164 65.49054,13.491643 0.82020631 0 1 3.41797,1.51758 65.49054,13.491643 0.82020631 0 1 2.36329,1.4707 C 333.214,130.80443 327.10524,121.39228 321.65039,113.48438 Z m 17.83399,27.45507 a 65.49054,13.491643 0.82020631 0 0 -2.36329,-1.4707 65.49054,13.491643 0.82020631 0 0 -3.41797,-1.51758 65.49054,13.491643 0.82020631 0 0 -4.25195,-1.43164 65.49054,13.491643 0.82020631 0 0 -3.64648,-0.96289 c 0.67045,5.96326 0.98174,11.8061 0.91601,17.50781 a 65.49054,13.491643 0.82020631 0 0 1.67383,-0.4082 65.49054,13.491643 0.82020631 0 0 1.64649,-0.4375 65.49054,13.491643 0.82020631 0 0 1.55078,-0.45508 65.49054,13.491643 0.82020631 0 0 1.45117,-0.46875 65.49054,13.491643 0.82020631 0 0 1.34765,-0.48242 65.49054,13.491643 0.82020631 0 0 1.24415,-0.49414 65.49054,13.491643 0.82020631 0 0 1.13867,-0.50781 65.49054,13.491643 0.82020631 0 0 1.02929,-0.51758 65.49054,13.491643 0.82020631 0 0 0.91797,-0.5293 65.49054,13.491643 0.82020631 0 0 0.80664,-0.53711 65.49054,13.491643 0.82020631 0 0 0.69336,-0.54492 65.49054,13.491643 0.82020631 0 0 0.57813,-0.55273 65.49054,13.491643 0.82020631 0 0 0.46094,-0.5586 65.49054,13.491643 0.82020631 0 0 0.3457,-0.5625 65.49054,13.491643 0.82020631 0 0 0.22656,-0.56836 65.49054,13.491643 0.82020631 0 0 0.0937,-0.48437 c -0.81445,-1.33333 -1.63167,-2.70683 -2.4414,-4.01563 z" /></g></g></svg>
