<?xml version="1.0" encoding="UTF-8" standalone="no"?>
<!-- Created with Inkscape (http://www.inkscape.org/) -->

<svg
   width="1904.3075"
   height="512"
   viewBox="0 0 1904.3075 512"
   version="1.1"
   id="svg5"
   xml:space="preserve"
   inkscape:version="1.2.2 (b0a8486541, 2022-12-01)"
   sodipodi:docname="logo.svg"
   inkscape:export-filename="logo_out.svg"
   inkscape:export-xdpi="96"
   inkscape:export-ydpi="96"
   xmlns:inkscape="http://www.inkscape.org/namespaces/inkscape"
   xmlns:sodipodi="http://sodipodi.sourceforge.net/DTD/sodipodi-0.dtd"
   xmlns="http://www.w3.org/2000/svg"
   xmlns:svg="http://www.w3.org/2000/svg"><sodipodi:namedview
     id="namedview7"
     pagecolor="#ffffff"
     bordercolor="#000000"
     borderopacity="0.25"
     inkscape:showpageshadow="2"
     inkscape:pageopacity="0.0"
     inkscape:pagecheckerboard="false"
     inkscape:deskcolor="#d1d1d1"
     inkscape:document-units="px"
     showgrid="false"
     inkscape:zoom="0.58300782"
     inkscape:cx="1170.6533"
     inkscape:cy="315.60469"
     inkscape:window-width="2560"
     inkscape:window-height="1381"
     inkscape:window-x="0"
     inkscape:window-y="0"
     inkscape:window-maximized="1"
     inkscape:current-layer="layer5"
     showguides="true" /><defs
     id="defs2" /><g
     inkscape:groupmode="layer"
     id="g4421"
     inkscape:label="logo_text_light"
     transform="translate(-595.92099,-564.82227)"><g
       id="g4393"
       style="display:inline;fill:#595640;fill-opacity:1"
       inkscape:label="top"
       transform="translate(553.70985,568.83231)"><path
         id="path4381"
         style="display:inline;fill:#595640;fill-opacity:1"
         d="m 121.5,373.82422 c -1.9835,0.9771 -3.78936,1.9742 -5.41211,2.98828 -2.095,1.36989 -3.85407,2.76697 -5.26758,4.18359 -1.41424,1.41599 -2.48064,2.84894 -3.19336,4.29102 -0.53845,1.19414 -0.58382,2.42955 -0.88476,3.58984 0.4941,3.38957 1.37332,4.97162 3.08284,7.87657 1.09323,1.55813 0.65796,1.028 0.99528,1.43593 1.41359,1.39457 3.17266,2.76426 5.26758,4.10157 2.09492,1.33733 4.52187,2.63983 7.26758,3.90039 2.74611,1.26 5.80572,2.47575 9.16211,3.64062 3.35627,1.16575 7.00354,2.27846 10.92187,3.33203 2.54949,0.65506 5.20379,1.28508 7.95703,1.88867 -2.01959,-11.59152 -2.33314,-23.137 -1.0957,-33.64453 -2.4408,-0.44504 -4.82145,-0.90684 -7.13867,-1.38476 -5.7194,-1.2994 -10.98039,-2.69889 -15.73438,-4.18555 -2.0774,-0.65552 -4.05449,-1.32714 -5.92773,-2.01367 z"
         inkscape:label="top_seg_1_top"
         sodipodi:nodetypes="cccccccscccccccc" /><path
         id="path4383"
         style="display:inline;fill:#595640;fill-opacity:1"
         inkscape:label="top_seg_2_top"
         d="m 146.71289,244.81836 c -3.56221,0.85815 -6.89364,1.75801 -9.97851,2.69531 -3.29558,1.01018 -6.29975,2.06158 -8.9961,3.14844 -2.69643,1.08768 -5.07968,2.20887 -7.13672,3.35742 -1.45341,0.85151 -2.96955,1.55056 -4.73062,3.4352 -3.47815,3.16285 -3.71957,3.98895 -4.55258,7.63902 0.024,1.13838 0.34939,2.27558 0.97461,3.40625 0.69954,1.21864 1.74637,2.42722 3.13476,3.61914 1.38857,1.19221 3.11633,2.36557 5.17383,3.51367 2.05704,1.14855 4.44029,2.26974 7.13672,3.35742 2.69635,1.08686 5.70052,2.13826 8.9961,3.14844 3.29626,1.01101 6.87831,1.97892 10.72656,2.89844 3.84761,0.91881 7.95405,1.78758 12.29687,2.60156 4.34296,0.81418 8.91445,1.57207 13.68946,2.26953 4.77513,0.69764 9.74512,1.33356 14.88281,1.9043 4.66315,0.51076 9.45481,0.96718 14.35351,1.36719 4.08492,-4.26561 8.60274,-8.8304 13.67383,-13.80274 6.61596,-6.51796 13.02896,-13.25179 19.15039,-20.18164 -1.56253,-0.0526 -3.12009,-0.11118 -4.67187,-0.17578 -4.93665,-0.25011 -9.79512,-0.56123 -14.54883,-0.93164 -4.75324,-0.36991 -9.3932,-0.79843 -13.89453,-1.2832 -4.50178,-0.48467 -8.85673,-1.02471 -13.04102,-1.61719 -4.18427,-0.59241 -8.19026,-1.23616 -11.99609,-1.92773 -3.80517,-0.69241 -7.40288,-1.43138 -10.77344,-2.21289 -3.37151,-0.78072 -6.51004,-1.60253 -9.39844,-2.46094 -2.88786,-0.85853 -5.52026,-1.75208 -7.88281,-2.67578 -0.90409,-0.35973 -1.76696,-0.72377 -2.58789,-1.0918 z"
         sodipodi:nodetypes="ccccccccccccccccccccccccccc" /><path
         id="path4385"
         style="display:inline;fill:#595640;fill-opacity:1"
         inkscape:label="top_seg_3_top"
         d="m 232.0918,153.08203 a 80.438243,16.539628 0.29631595 0 0 -4.91992,0.62109 80.438243,16.539628 0.29631595 0 0 -7.5,1.23047 80.438243,16.539628 0.29631595 0 0 -6.70118,1.41407 80.438243,16.539628 0.29631595 0 0 -5.80468,1.57226 80.438243,16.539628 0.29631595 0 0 -4.82227,1.70899 80.438243,16.539628 0.29631595 0 0 -3.77344,1.82226 80.438243,16.539628 0.29631595 0 0 -2.3164,1.66016 c -0.59998,0.72476 -1.20004,1.43645 -1.79883,2.12305 a 80.438243,16.539628 0.29631595 0 0 -0.0703,0.0898 80.438243,16.539628 0.29631595 0 0 -0.35157,1.99414 80.438243,16.539628 0.29631595 0 0 0.81836,1.99414 80.438243,16.539628 0.29631595 0 0 1.98047,1.96484 80.438243,16.539628 0.29631595 0 0 3.11328,1.90821 80.438243,16.539628 0.29631595 0 0 4.19727,1.82226 80.438243,16.539628 0.29631595 0 0 5.22461,1.70899 80.438243,16.539628 0.29631595 0 0 6.17187,1.57226 80.438243,16.539628 0.29631595 0 0 7.03321,1.41406 80.438243,16.539628 0.29631595 0 0 7.78711,1.23047 80.438243,16.539628 0.29631595 0 0 8.43164,1.03516 80.438243,16.539628 0.29631595 0 0 8.95117,0.81836 80.438243,16.539628 0.29631595 0 0 9.33984,0.5957 80.438243,16.539628 0.29631595 0 0 9.59375,0.35938 80.438243,16.539628 0.29631595 0 0 9.70703,0.12109 80.438243,16.539628 0.29631595 0 0 3.41211,-0.0156 80.438243,16.539628 0.29631595 0 0 3.40039,-0.0449 80.438243,16.539628 0.29631595 0 0 0.54297,-0.0117 c 3.4515,-8.76577 6.21427,-17.68934 8.15234,-26.75391 a 65.661797,13.49165 0.81787816 0 1 -2.20507,0.0801 65.661797,13.49165 0.81787816 0 1 -3.90625,0.0879 65.661797,13.49165 0.81787816 0 1 -3.93946,0.0391 65.661797,13.49165 0.81787816 0 1 -3.96093,-0.01 65.661797,13.49165 0.81787816 0 1 -11.41993,-0.30469 65.661797,13.49165 0.81787816 0 1 -11.12304,-0.70508 65.661797,13.49165 0.81787816 0 1 -10.48633,-1.08594 65.661797,13.49165 0.81787816 0 1 -9.5293,-1.43359 65.661797,13.49165 0.81787816 0 1 -3.22851,-0.62305 z" /><path
         id="path4387"
         style="display:inline;fill:#595640;fill-opacity:1"
         inkscape:label="bot_seg_1_top"
         d="m 183.90234,420.66602 c 0.38369,0.0545 0.76846,0.10851 1.1543,0.1621 5.23205,0.63243 10.62535,1.18552 16.15039,1.65626 5.52412,0.47061 11.16982,0.85803 16.90625,1.16015 5.73709,0.30176 11.55433,0.51765 17.41992,0.64649 5.86502,0.12902 11.76771,0.17076 17.67578,0.125 2.07556,-0.0159 4.1509,-0.0426 6.22461,-0.0801 2.07352,-0.0374 4.14495,-0.0856 6.21289,-0.14453 2.06763,-0.0596 4.13125,-0.12994 6.18946,-0.21094 2.05903,-0.0805 4.11222,-0.17168 6.1582,-0.27344 2.04522,-0.10144 4.08278,-0.21345 6.11133,-0.33594 2.02887,-0.12303 4.0482,-0.25652 6.05664,-0.40039 2.00849,-0.14334 4.00569,-0.29701 5.99023,-0.46093 1.98428,-0.16432 3.95543,-0.33884 5.91211,-0.52344 1.95676,-0.18467 3.8986,-0.37937 5.82422,-0.58399 1.92592,-0.20437 3.8352,-0.41861 5.72656,-0.64257 1.89118,-0.22411 3.764,-0.45789 5.61719,-0.70118 1.85314,-0.2432 3.68623,-0.49586 5.49805,-0.75781 1.81177,-0.26167 3.60189,-0.53257 5.36914,-0.8125 1.76717,-0.28015 3.51105,-0.56928 5.23047,-0.86719 1.71991,-0.29799 3.41495,-0.6047 5.08398,-0.91992 1.6681,-0.31585 3.30975,-0.64014 4.92383,-0.97265 1.61479,-0.33178 3.20174,-0.6717 4.75977,-1.01954 1.55824,-0.34771 3.08723,-0.70326 4.58593,-1.0664 1.49847,-0.36366 2.96625,-0.73484 4.40235,-1.11328 1.43587,-0.37768 2.83983,-0.76253 4.21094,-1.1543 1.37077,-0.39235 2.70831,-0.79153 4.01171,-1.19727 1.30426,-0.40573 2.57408,-0.81793 3.8086,-1.23632 1.23377,-0.41848 2.43195,-0.84306 3.59375,-1.27344 1.1625,-0.42993 2.2884,-0.86558 3.37695,-1.30664 1.08801,-0.4414 2.13838,-0.88812 3.15039,-1.33985 1.01208,-0.45157 1.98561,-0.90805 2.91992,-1.36914 0.93426,-0.46174 1.829,-0.92799 2.6836,-1.39843 0.85479,-0.46934 1.66943,-0.94275 2.44336,-1.41993 0.77429,-0.47822 1.50752,-0.9601 2.19922,-1.44531 0.69081,-0.48452 1.34005,-0.97226 1.94726,-1.46289 0.60808,-0.49082 1.17396,-0.98442 1.69727,-1.48047 0.20099,-0.20081 -1.33196,2.4261 1.14079,-1.55179 2.1117,-4.08486 3.16398,-6.05731 2.93342,-10.19625 -0.0847,-0.55515 -0.22213,-1.10934 -0.4121,-1.66211 -0.71167,-1.43189 -1.77742,-2.84919 -3.19141,-4.24414 -1.41454,-1.39392 -3.17425,-2.76295 -5.26953,-4.09961 -1.21396,-0.71349 -2.5239,-1.41634 -3.92774,-2.10743 -2.17433,0.87662 -4.51374,1.73158 -7.01172,2.5625 -3.53287,1.16292 -7.3719,2.27628 -11.49609,3.33399 -4.12501,1.05746 -8.52756,2.05733 -13.18359,2.99414 -4.65566,0.93747 -9.55652,1.81015 -14.67578,2.61328 -5.11937,0.80215 -10.44744,1.5333 -15.95508,2.18945 -5.50798,0.6567 -11.18565,1.23719 -17.00196,1.73828 -5.81581,0.50098 -11.75958,0.92167 -17.79882,1.25977 -6.03933,0.33824 -12.16312,0.59326 -18.33789,0.76367 -6.17477,0.17036 -12.38923,0.25581 -18.60938,0.25586 -6.22015,-5e-5 -12.4346,-0.0855 -18.60937,-0.25586 -6.17477,-0.17041 -12.29856,-0.42543 -18.33789,-0.76367 -6.0399,-0.33808 -11.98434,-0.75877 -17.80079,-1.25977 -4.48542,-0.40219 -8.88542,-0.8519 -13.18554,-1.34765 -2.44623,11.74649 -2.42287,23.29129 -0.4961,33.99805 z"
         sodipodi:nodetypes="scscccsccccccsccsccsccccccccccccccscccccccccccccscscscccss" /><path
         id="path4389"
         style="display:inline;fill:#595640;fill-opacity:1"
         inkscape:label="bot_seg_2_top"
         d="m 395.53062,258.00627 c -0.32477,-0.31038 -0.53707,-0.55171 -0.90757,-0.85979 -0.51305,-0.41716 -1.06787,-0.83196 -1.66407,-1.24414 -0.59688,-0.41232 -1.23504,-0.82192 -1.91406,-1.22851 -0.67882,-0.40683 -1.39838,-0.81057 -2.1582,-1.21094 -0.76028,-0.40003 -1.56059,-0.7966 -2.40039,-1.18945 -0.83909,-0.39323 -1.71755,-0.78264 -2.63477,-1.16797 -0.91807,-0.38511 -1.87466,-0.76606 -2.86914,-1.14258 -0.99386,-0.37633 -2.02534,-0.74816 -3.09375,-1.11523 -1.0683,-0.36755 -2.17337,-0.73027 -3.31445,-1.08789 -1.14161,-0.35747 -2.31896,-0.70976 -3.53125,-1.05665 -0.1117,-0.0306 -0.22368,-0.0612 -0.33594,-0.0918 -1.79614,0.67563 -3.73817,1.33448 -5.82031,1.97461 -2.88777,0.8584 -6.02565,1.68021 -9.39649,2.46094 -3.37119,0.78152 -6.96955,1.5205 -10.77539,2.21289 -3.80583,0.69157 -7.81182,1.33532 -11.99609,1.92773 -4.18429,0.59248 -8.53924,1.13252 -13.04102,1.61719 -4.50133,0.48477 -9.14129,0.91329 -13.89453,1.2832 -4.75371,0.37041 -9.61217,0.68153 -14.54882,0.93164 -2.27315,0.0989 -4.55918,0.18484 -6.85547,0.25781 -6.62247,8.43913 -13.36087,16.12735 -19.6836,23.01172 -5.71943,5.52571 -9.54127,9.16704 -13.51367,12.96094 1.35683,0.0217 2.71504,0.0392 4.07422,0.0527 5.80218,5e-4 11.5992,-0.0732 17.35937,-0.2207 5.75983,-0.14823 11.47207,-0.36999 17.10547,-0.66406 5.63376,-0.29411 11.17838,-0.66001 16.60352,-1.0957 5.42534,-0.43519 10.72145,-0.93937 15.85937,-1.50977 5.13769,-0.57074 10.10769,-1.20666 14.88282,-1.9043 4.77501,-0.69746 9.34649,-1.45535 13.68945,-2.26953 4.34282,-0.81398 8.44926,-1.68275 12.29687,-2.60156 3.84758,-0.91953 7.42898,-1.88744 10.72461,-2.89844 3.29625,-1.01017 6.30107,-2.06157 8.99805,-3.14844 2.69643,-1.08768 5.07968,-2.20887 7.13672,-3.35742 2.0575,-1.1481 3.78526,-2.32146 5.17383,-3.51367 1.38839,-1.19192 2.94209,-2.7113 3.39746,-4.12333 0.54298,-4.20635 -0.77212,-6.37255 -1.94481,-8.59938 -0.60331,-1.07059 -1.00797,-1.39012 -1.00797,-1.39012 z"
         sodipodi:nodetypes="cccccccscccccccsccccccccscccccccccccc" /><path
         id="path4391"
         style="display:inline;fill:#595640;fill-opacity:1"
         inkscape:label="bot_seg_3_top"
         d="m 353.89062,165.17578 a 80.438243,16.539628 0.29631595 0 0 -1.83007,-1.8164 80.438243,16.539628 0.29631595 0 0 -3.11328,-1.90821 80.438243,16.539628 0.29631595 0 0 -4.19922,-1.82226 80.438243,16.539628 0.29631595 0 0 -5.22266,-1.70899 80.438243,16.539628 0.29631595 0 0 -6.17383,-1.57226 80.438243,16.539628 0.29631595 0 0 -6.67968,-1.34375 c -0.22546,8.86974 -1.2822,17.41928 -3.01368,25.64062 a 80.438243,16.539628 0.29631595 0 0 0.16211,-0.0234 80.438243,16.539628 0.29631595 0 0 2.65039,-0.42968 80.438243,16.539628 0.29631595 0 0 2.55664,-0.45313 80.438243,16.539628 0.29631595 0 0 2.45899,-0.47461 80.438243,16.539628 0.29631595 0 0 2.35547,-0.49805 80.438243,16.539628 0.29631595 0 0 2.24804,-0.51757 80.438243,16.539628 0.29631595 0 0 2.13868,-0.53516 80.438243,16.539628 0.29631595 0 0 2.02148,-0.55664 80.438243,16.539628 0.29631595 0 0 1.9043,-0.57422 80.438243,16.539628 0.29631595 0 0 1.7832,-0.58984 80.438243,16.539628 0.29631595 0 0 1.65625,-0.60547 80.438243,16.539628 0.29631595 0 0 1.52734,-0.61914 80.438243,16.539628 0.29631595 0 0 1.39844,-0.63477 80.438243,16.539628 0.29631595 0 0 1.26367,-0.64648 80.438243,16.539628 0.29631595 0 0 1.12891,-0.65625 80.438243,16.539628 0.29631595 0 0 0.99023,-0.66797 80.438243,16.539628 0.29631595 0 0 0.85157,-0.67578 80.438243,16.539628 0.29631595 0 0 0.70898,-0.68164 80.438243,16.539628 0.29631595 0 0 0.56836,-0.68946 80.438243,16.539628 0.29631595 0 0 0.42383,-0.69531 80.438243,16.539628 0.29631595 0 0 0.2793,-0.69922 80.438243,16.539628 0.29631595 0 0 0.13476,-0.69922 80.438243,16.539628 0.29631595 0 0 -0.01,-0.70312 80.438243,16.539628 0.29631595 0 0 -0.66602,-1.625 c -0.0998,-0.17441 -0.20286,-0.3433 -0.30274,-0.51758 z" /></g><g
       id="g4411"
       style="display:inline;fill:#f7dc6e;fill-opacity:1"
       inkscape:label="middle"
       transform="translate(553.70985,568.83231)"><path
         id="path4395"
         style="display:inline;fill:#f7dc6e;fill-opacity:1"
         d="m 109.89648,396.96094 c 11.02584,26.10417 28.82779,47.5654 54.38868,54.71094 -6.49641,-11.41732 -10.69794,-24.04537 -12.88868,-36.61915 a 35.92437,146.65592 89.528362 0 1 -7.95703,-1.88867 35.92437,146.65592 89.528362 0 1 -10.92187,-3.33203 35.92437,146.65592 89.528362 0 1 -9.16211,-3.64062 35.92437,146.65592 89.528362 0 1 -7.26758,-3.90039 35.92437,146.65592 89.528362 0 1 -5.26758,-4.10157 35.92437,146.65592 89.528362 0 1 -0.92383,-1.22851 z"
         inkscape:label="top_seg_1" /><path
         id="path4397"
         style="display:inline;fill:#f7dc6e;fill-opacity:1"
         inkscape:label="top_seg_2"
         d="m 202.68359,293.17969 c -4.8987,-0.40001 -9.69036,-0.85643 -14.35351,-1.36719 -5.13769,-0.57074 -10.10768,-1.20666 -14.88281,-1.9043 -4.77501,-0.69746 -9.3465,-1.45535 -13.68946,-2.26953 -4.34282,-0.81398 -8.44926,-1.68275 -12.29687,-2.60156 -3.84825,-0.91952 -7.4303,-1.88743 -10.72656,-2.89844 -3.29558,-1.01018 -6.29975,-2.06158 -8.9961,-3.14844 -2.69643,-1.08768 -5.07968,-2.20887 -7.13672,-3.35742 -2.0575,-1.1481 -3.78526,-2.32146 -5.17383,-3.51367 -1.38839,-1.19192 -2.36308,-2.25135 -3.13476,-3.61914 -0.71352,-1.6055 -1.49641,-2.46182 -0.23511,-6.29453 -1.64981,2.64422 -4.01761,8.2012 -5.59692,10.92344 -10.005947,17.247 -13.221076,49.14707 -8.285159,81.42187 0.123755,0.80921 0.240944,1.61633 0.375,2.42578 0.137815,1.24914 0.56942,2.49571 1.292969,3.73438 1.26536,1.81476 3.1566,3.60412 5.65625,5.35156 2.49888,1.74719 5.59826,3.44709 9.26953,5.08398 3.67199,1.6367 7.90441,3.20533 12.6582,4.69141 4.75399,1.48666 10.01498,2.88615 15.73438,4.18555 2.31722,0.47792 4.69787,0.93972 7.13867,1.38476 1.07202,-9.10289 3.26652,-17.44668 6.5293,-24.33593 6.4575,-12.14774 11.95832,-21.95421 19.19531,-32.23047 6.62717,-9.41034 14.75338,-19.23069 26.6582,-31.66211 z"
         sodipodi:nodetypes="ccccccccccccsccccccccsc" /><path
         id="path4399"
         style="display:inline;fill:#f7dc6e;fill-opacity:1"
         inkscape:label="top_seg_3"
         d="m 283.73828,183.79102 a 80.438243,16.539628 0.29631595 0 1 -0.54297,0.0117 80.438243,16.539628 0.29631595 0 1 -3.40039,0.0449 80.438243,16.539628 0.29631595 0 1 -3.41211,0.0156 80.438243,16.539628 0.29631595 0 1 -9.70703,-0.12109 80.438243,16.539628 0.29631595 0 1 -9.59375,-0.35938 80.438243,16.539628 0.29631595 0 1 -9.33984,-0.5957 80.438243,16.539628 0.29631595 0 1 -8.95117,-0.81836 80.438243,16.539628 0.29631595 0 1 -8.43164,-1.03516 80.438243,16.539628 0.29631595 0 1 -7.78711,-1.23047 80.438243,16.539628 0.29631595 0 1 -7.03321,-1.41406 80.438243,16.539628 0.29631595 0 1 -6.17187,-1.57226 80.438243,16.539628 0.29631595 0 1 -5.22461,-1.70899 80.438243,16.539628 0.29631595 0 1 -4.19727,-1.82226 80.438243,16.539628 0.29631595 0 1 -3.11328,-1.90821 80.438243,16.539628 0.29631595 0 1 -1.98047,-1.96484 80.438243,16.539628 0.29631595 0 1 -0.81836,-1.99414 80.438243,16.539628 0.29631595 0 1 0.35157,-1.99414 80.438243,16.539628 0.29631595 0 1 0.0703,-0.0898 c -0.59034,0.6769 -1.18095,1.35202 -1.76953,1.99023 -16.75684,18.16978 -36.60307,38.32207 -55.30274,61.54101 a 126.1897,25.894764 0 0 1 1.12891,-1.08593 126.1897,25.894764 0 0 1 4.53516,-2.98633 126.1897,25.894764 0 0 1 6.2539,-2.85156 126.1897,25.894764 0 0 1 7.88281,-2.67578 126.1897,25.894764 0 0 1 9.39844,-2.46094 126.1897,25.894764 0 0 1 10.77344,-2.21094 126.1897,25.894764 0 0 1 11.99609,-1.92773 126.1897,25.894764 0 0 1 13.04102,-1.61914 126.1897,25.894764 0 0 1 13.89453,-1.28321 126.1897,25.894764 0 0 1 14.54883,-0.92968 126.1897,25.894764 0 0 1 14.98828,-0.56446 126.1897,25.894764 0 0 1 15.21094,-0.1875 126.1897,25.894764 0 0 1 5.35546,0.0234 126.1897,25.894764 0 0 1 5.34571,0.0684 126.1897,25.894764 0 0 1 0.50195,0.0117 c 4.39746,-7.94033 8.25281,-16.04804 11.5,-24.29492 z m -11.5,24.29492 a 126.1897,25.894764 0 0 0 -0.50195,-0.0117 126.1897,25.894764 0 0 0 -5.34571,-0.0684 126.1897,25.894764 0 0 0 -5.35546,-0.0234 126.1897,25.894764 0 0 0 -15.21094,0.1875 126.1897,25.894764 0 0 0 -14.98828,0.56446 126.1897,25.894764 0 0 0 -14.54883,0.92968 126.1897,25.894764 0 0 0 -13.89453,1.28321 126.1897,25.894764 0 0 0 -13.04102,1.61914 126.1897,25.894764 0 0 0 -11.99609,1.92773 126.1897,25.894764 0 0 0 -10.77344,2.21094 126.1897,25.894764 0 0 0 -9.39844,2.46094 126.1897,25.894764 0 0 0 -7.88281,2.67578 126.1897,25.894764 0 0 0 -6.2539,2.85156 126.1897,25.894764 0 0 0 -4.53516,2.98633 126.1897,25.894764 0 0 0 -2.62695,2.94336 c -0.0434,0.0544 -0.0856,0.11156 -0.12891,0.16601 a 126.1897,25.894764 0 0 0 -0.91016,3.08789 126.1897,25.894764 0 0 0 0.91992,3.1211 126.1897,25.894764 0 0 0 2.7461,3.07617 126.1897,25.894764 0 0 0 4.53516,2.98437 126.1897,25.894764 0 0 0 6.2539,2.85157 126.1897,25.894764 0 0 0 7.88281,2.67578 126.1897,25.894764 0 0 0 9.39844,2.46094 126.1897,25.894764 0 0 0 10.77344,2.21289 126.1897,25.894764 0 0 0 11.99609,1.92773 126.1897,25.894764 0 0 0 13.04102,1.61719 126.1897,25.894764 0 0 0 13.89453,1.2832 126.1897,25.894764 0 0 0 14.54883,0.93164 126.1897,25.894764 0 0 0 4.67187,0.17578 c 14.18219,-16.0551 26.79384,-33.16716 36.73047,-51.10937 z" /><path
         id="path4401"
         style="display:inline;fill:#f7dc6e;fill-opacity:1"
         inkscape:label="top_seg_4"
         d="m 251.18164,20.306641 c 2.08739,27.28371 -16.90909,82.204139 -39.2793,120.074219 a 65.661797,13.49165 0.81787816 0 1 2.17774,-1.81641 65.661797,13.49165 0.81787816 0 1 4.58594,-2.09179 65.661797,13.49165 0.81787816 0 1 6.33593,-1.8711 65.661797,13.49165 0.81787816 0 1 7.89453,-1.5957 65.661797,13.49165 0.81787816 0 1 9.21485,-1.26953 65.661797,13.49165 0.81787816 0 1 10.25195,-0.9043 65.661797,13.49165 0.81787816 0 1 10.98047,-0.51367 65.661797,13.49165 0.81787816 0 1 11.37305,-0.10547 65.661797,13.49165 0.81787816 0 1 11.42187,0.30469 65.661797,13.49165 0.81787816 0 1 8.95313,0.56836 C 296.22909,95.420921 283.78078,58.054385 251.18164,20.306641 Z M 295.0918,131.08594 a 65.661797,13.49165 0.81787816 0 0 -8.95313,-0.56836 65.661797,13.49165 0.81787816 0 0 -11.42187,-0.30469 65.661797,13.49165 0.81787816 0 0 -11.37305,0.10547 65.661797,13.49165 0.81787816 0 0 -10.98047,0.51367 65.661797,13.49165 0.81787816 0 0 -10.25195,0.9043 65.661797,13.49165 0.81787816 0 0 -9.21485,1.26953 65.661797,13.49165 0.81787816 0 0 -7.89453,1.5957 65.661797,13.49165 0.81787816 0 0 -6.33593,1.8711 65.661797,13.49165 0.81787816 0 0 -4.58594,2.09179 65.661797,13.49165 0.81787816 0 0 -2.17774,1.81641 c -0.26071,0.44136 -0.52355,0.86412 -0.78515,1.30078 a 65.661797,13.49165 0.81787816 0 0 -0.45508,1.46875 65.661797,13.49165 0.81787816 0 0 1.27148,2.35547 65.661797,13.49165 0.81787816 0 0 3.22852,2.30078 65.661797,13.49165 0.81787816 0 0 5.08398,2.17578 65.661797,13.49165 0.81787816 0 0 6.78907,1.98633 65.661797,13.49165 0.81787816 0 0 8.28515,1.73633 65.661797,13.49165 0.81787816 0 0 9.5293,1.43359 65.661797,13.49165 0.81787816 0 0 10.48633,1.08594 65.661797,13.49165 0.81787816 0 0 11.12304,0.70508 65.661797,13.49165 0.81787816 0 0 11.41993,0.30469 65.661797,13.49165 0.81787816 0 0 3.96093,0.01 65.661797,13.49165 0.81787816 0 0 3.93946,-0.0391 65.661797,13.49165 0.81787816 0 0 3.90625,-0.0879 65.661797,13.49165 0.81787816 0 0 2.20507,-0.0801 c 1.82482,-8.53483 2.92183,-17.19112 3.20118,-25.95117 z" /><path
         id="path4403"
         style="display:inline;fill:#f7dc6e;fill-opacity:1"
         inkscape:label="bot_seg_1"
         d="m 183.90234,420.66602 c 4.08407,22.69447 16.80587,41.58342 33.29102,50.36328 29.40968,15.66336 88.35537,20.02093 125.48437,-6.28907 26.34579,-18.66887 42.22559,-37.47492 53.03321,-68.89843 a 35.92437,146.65592 89.528362 0 1 -0.58203,0.60351 35.92437,146.65592 89.528362 0 1 -1.69727,1.48047 35.92437,146.65592 89.528362 0 1 -1.94726,1.46289 35.92437,146.65592 89.528362 0 1 -2.19922,1.44531 35.92437,146.65592 89.528362 0 1 -2.44336,1.41993 35.92437,146.65592 89.528362 0 1 -2.6836,1.39843 35.92437,146.65592 89.528362 0 1 -2.91992,1.36914 35.92437,146.65592 89.528362 0 1 -3.15039,1.33985 35.92437,146.65592 89.528362 0 1 -3.37695,1.30664 35.92437,146.65592 89.528362 0 1 -3.59375,1.27344 35.92437,146.65592 89.528362 0 1 -3.8086,1.23632 35.92437,146.65592 89.528362 0 1 -4.01171,1.19727 35.92437,146.65592 89.528362 0 1 -4.21094,1.1543 35.92437,146.65592 89.528362 0 1 -4.40235,1.11328 35.92437,146.65592 89.528362 0 1 -4.58593,1.0664 35.92437,146.65592 89.528362 0 1 -4.75977,1.01954 35.92437,146.65592 89.528362 0 1 -4.92383,0.97265 35.92437,146.65592 89.528362 0 1 -5.08398,0.91992 35.92437,146.65592 89.528362 0 1 -5.23047,0.86719 35.92437,146.65592 89.528362 0 1 -5.36914,0.8125 35.92437,146.65592 89.528362 0 1 -5.49805,0.75781 35.92437,146.65592 89.528362 0 1 -5.61719,0.70118 35.92437,146.65592 89.528362 0 1 -5.72656,0.64257 35.92437,146.65592 89.528362 0 1 -5.82422,0.58399 35.92437,146.65592 89.528362 0 1 -5.91211,0.52344 35.92437,146.65592 89.528362 0 1 -5.99023,0.46093 35.92437,146.65592 89.528362 0 1 -6.05664,0.40039 35.92437,146.65592 89.528362 0 1 -6.11133,0.33594 35.92437,146.65592 89.528362 0 1 -6.1582,0.27344 35.92437,146.65592 89.528362 0 1 -6.18946,0.21094 35.92437,146.65592 89.528362 0 1 -6.21289,0.14453 35.92437,146.65592 89.528362 0 1 -6.22461,0.0801 35.92437,146.65592 89.528362 0 1 -17.67578,-0.125 35.92437,146.65592 89.528362 0 1 -17.41992,-0.64649 35.92437,146.65592 89.528362 0 1 -16.90625,-1.16015 35.92437,146.65592 89.528362 0 1 -16.15039,-1.65626 35.92437,146.65592 89.528362 0 1 -1.1543,-0.1621 z" /><path
         id="path4405"
         style="display:inline;fill:#f7dc6e;fill-opacity:1"
         inkscape:label="bot_seg_2"
         d="m 398.43359,267.75586 a 144.01421,30.476992 0 0 1 -0.21289,0.74414 144.01421,30.476992 0 0 1 -3.13476,3.61914 144.01421,30.476992 0 0 1 -5.17383,3.51367 144.01421,30.476992 0 0 1 -7.13672,3.35742 144.01421,30.476992 0 0 1 -8.99805,3.14844 144.01421,30.476992 0 0 1 -10.72461,2.89844 144.01421,30.476992 0 0 1 -12.29687,2.60156 144.01421,30.476992 0 0 1 -13.68945,2.26953 144.01421,30.476992 0 0 1 -14.88282,1.9043 144.01421,30.476992 0 0 1 -15.85937,1.50977 144.01421,30.476992 0 0 1 -16.60352,1.0957 144.01421,30.476992 0 0 1 -17.10547,0.66406 144.01421,30.476992 0 0 1 -17.35937,0.2207 144.01421,30.476992 0 0 1 -4.07422,-0.0527 c -17.92601,17.12053 -21.05203,19.69409 -26.17578,25.52344 -3.25773,3.70632 -7.61211,8.98243 -18.11719,21.23242 -12.24413,14.27791 -19.35873,29.62491 -22.49023,44.66211 a 154.38901,35.070385 0 0 0 13.18554,1.34765 154.38901,35.070385 0 0 0 17.80079,1.25977 154.38901,35.070385 0 0 0 18.33789,0.76367 154.38901,35.070385 0 0 0 18.60937,0.25586 154.38901,35.070385 0 0 0 18.60938,-0.25586 154.38901,35.070385 0 0 0 18.33789,-0.76367 154.38901,35.070385 0 0 0 17.79882,-1.25977 154.38901,35.070385 0 0 0 17.00196,-1.73828 154.38901,35.070385 0 0 0 15.95508,-2.18945 154.38901,35.070385 0 0 0 14.67578,-2.61328 154.38901,35.070385 0 0 0 13.18359,-2.99414 154.38901,35.070385 0 0 0 11.49609,-3.33399 154.38901,35.070385 0 0 0 9.64649,-3.62304 154.38901,35.070385 0 0 0 7.65039,-3.86328 154.38901,35.070385 0 0 0 5.54688,-4.04297 154.38901,35.070385 0 0 0 2.55468,-3.16602 c 0.49576,-2.81164 0.92343,-5.61967 1.26953,-8.42773 3.64595,-29.58098 -0.73398,-58.7254 -7.625,-84.26758 z" /><path
         id="path4407"
         style="display:inline;fill:#f7dc6e;fill-opacity:1"
         inkscape:label="bot_seg_3"
         d="m 354.19336,165.69336 a 80.438243,16.539628 0.29631595 0 1 0.66602,1.625 80.438243,16.539628 0.29631595 0 1 0.01,0.70312 80.438243,16.539628 0.29631595 0 1 -0.13476,0.69922 80.438243,16.539628 0.29631595 0 1 -0.2793,0.69922 80.438243,16.539628 0.29631595 0 1 -0.42383,0.69531 80.438243,16.539628 0.29631595 0 1 -0.56836,0.68946 80.438243,16.539628 0.29631595 0 1 -0.70898,0.68164 80.438243,16.539628 0.29631595 0 1 -0.85157,0.67578 80.438243,16.539628 0.29631595 0 1 -0.99023,0.66797 80.438243,16.539628 0.29631595 0 1 -1.12891,0.65625 80.438243,16.539628 0.29631595 0 1 -1.26367,0.64648 80.438243,16.539628 0.29631595 0 1 -1.39844,0.63477 80.438243,16.539628 0.29631595 0 1 -1.52734,0.61914 80.438243,16.539628 0.29631595 0 1 -1.65625,0.60547 80.438243,16.539628 0.29631595 0 1 -1.7832,0.58984 80.438243,16.539628 0.29631595 0 1 -1.9043,0.57422 80.438243,16.539628 0.29631595 0 1 -2.02148,0.55664 80.438243,16.539628 0.29631595 0 1 -2.13868,0.53516 80.438243,16.539628 0.29631595 0 1 -2.24804,0.51757 80.438243,16.539628 0.29631595 0 1 -2.35547,0.49805 80.438243,16.539628 0.29631595 0 1 -2.45899,0.47461 80.438243,16.539628 0.29631595 0 1 -2.55664,0.45313 80.438243,16.539628 0.29631595 0 1 -2.65039,0.42968 80.438243,16.539628 0.29631595 0 1 -0.16211,0.0234 c -2.19998,10.44585 -5.47389,20.36831 -9.50195,29.74805 -7.90252,18.40182 -18.66429,34.72322 -29.77734,48.88476 a 126.1897,25.894764 0 0 0 6.85547,-0.25781 126.1897,25.894764 0 0 0 14.54882,-0.93164 126.1897,25.894764 0 0 0 13.89453,-1.2832 126.1897,25.894764 0 0 0 13.04102,-1.61719 126.1897,25.894764 0 0 0 11.99609,-1.92773 126.1897,25.894764 0 0 0 10.77539,-2.21289 126.1897,25.894764 0 0 0 9.39649,-2.46094 126.1897,25.894764 0 0 0 7.88476,-2.67578 126.1897,25.894764 0 0 0 6.25391,-2.85157 126.1897,25.894764 0 0 0 4.5332,-2.98437 126.1897,25.894764 0 0 0 2.7461,-3.07617 126.1897,25.894764 0 0 0 0.91992,-3.1211 126.1897,25.894764 0 0 0 -0.0703,-0.67578 c -0.33919,-0.89496 -0.67744,-1.82513 -1.01563,-2.70117 -0.34529,-0.89443 -0.69372,-1.88362 -1.03711,-2.75781 -7.21455,-18.36693 -18.68702,-40.68748 -30.9082,-62.04883 z" /><path
         id="path4409"
         style="display:inline;fill:#f7dc6e;fill-opacity:1"
         inkscape:label="bot_seg_4"
         d="m 321.65039,113.48438 c 2.00921,7.54782 3.34777,14.8987 4.1543,22.07226 a 65.49054,13.491643 0.82020631 0 1 3.64648,0.96289 65.49054,13.491643 0.82020631 0 1 4.25195,1.43164 65.49054,13.491643 0.82020631 0 1 3.41797,1.51758 65.49054,13.491643 0.82020631 0 1 2.36329,1.4707 C 333.214,130.80443 327.10524,121.39228 321.65039,113.48438 Z m 17.83399,27.45507 a 65.49054,13.491643 0.82020631 0 0 -2.36329,-1.4707 65.49054,13.491643 0.82020631 0 0 -3.41797,-1.51758 65.49054,13.491643 0.82020631 0 0 -4.25195,-1.43164 65.49054,13.491643 0.82020631 0 0 -3.64648,-0.96289 c 0.67045,5.96326 0.98174,11.8061 0.91601,17.50781 a 65.49054,13.491643 0.82020631 0 0 1.67383,-0.4082 65.49054,13.491643 0.82020631 0 0 1.64649,-0.4375 65.49054,13.491643 0.82020631 0 0 1.55078,-0.45508 65.49054,13.491643 0.82020631 0 0 1.45117,-0.46875 65.49054,13.491643 0.82020631 0 0 1.34765,-0.48242 65.49054,13.491643 0.82020631 0 0 1.24415,-0.49414 65.49054,13.491643 0.82020631 0 0 1.13867,-0.50781 65.49054,13.491643 0.82020631 0 0 1.02929,-0.51758 65.49054,13.491643 0.82020631 0 0 0.91797,-0.5293 65.49054,13.491643 0.82020631 0 0 0.80664,-0.53711 65.49054,13.491643 0.82020631 0 0 0.69336,-0.54492 65.49054,13.491643 0.82020631 0 0 0.57813,-0.55273 65.49054,13.491643 0.82020631 0 0 0.46094,-0.5586 65.49054,13.491643 0.82020631 0 0 0.3457,-0.5625 65.49054,13.491643 0.82020631 0 0 0.22656,-0.56836 65.49054,13.491643 0.82020631 0 0 0.0937,-0.48437 c -0.81445,-1.33333 -1.63167,-2.70683 -2.4414,-4.01563 z" /></g><g
       aria-label="Sanitize Your Data"
       id="text6736"
       style="font-style:italic;font-weight:300;font-stretch:semi-condensed;font-size:165.707px;font-family:Hubot-Sans;-inkscape-font-specification:'Hubot-Sans Light Italic Semi-Condensed';fill:#595640;stroke-width:1.35087"><path
         d="m 1135.1147,923.93148 q -2.817,-3.14843 -6.2969,-5.46833 -3.4798,-2.4856 -7.4568,-3.97696 -3.9769,-1.65707 -8.6167,-2.48561 -4.6398,-0.82853 -9.9425,-0.82853 -17.2335,0 -25.1874,6.62828 -7.7882,6.46257 -7.7882,17.56494 0,7.45681 3.4798,11.9309 3.6456,4.30838 11.2681,6.9597 7.6225,2.65131 19.7191,5.13691 12.7594,2.65132 22.039,6.29687 9.2796,3.47985 14.2508,9.61101 5.137,6.13115 5.137,16.5707 0,7.78822 -2.9828,13.75364 -2.9827,5.7998 -8.6167,9.611 -5.6341,3.8113 -13.4223,5.7998 -7.6225,1.9885 -17.0678,1.9885 -9.1139,0 -17.3993,-1.9885 -8.2853,-1.9885 -15.5764,-5.7998 -7.2911,-3.8112 -13.588,-9.7767 l 4.4741,-6.79396 q 3.6456,3.97696 8.1196,7.12536 4.6398,2.9828 9.9425,5.137 5.4683,2.1542 11.5995,3.4798 6.1311,1.16 12.7594,1.16 15.4107,0 24.0275,-5.6341 8.7825,-5.7997 8.7825,-17.0678 0,-7.78823 -3.977,-12.59373 -3.977,-4.80551 -12.2623,-7.78823 -8.2854,-3.14844 -20.7134,-5.79975 -12.428,-2.65131 -21.2105,-5.96545 -8.6167,-3.31414 -13.0908,-8.94818 -4.3084,-5.63404 -4.3084,-15.24504 0,-10.60525 5.1369,-17.89636 5.3026,-7.45681 14.7479,-11.26808 9.4453,-3.81126 21.7076,-3.81126 7.6226,0 14.0851,1.49137 6.6283,1.49136 12.0967,4.63979 5.634,2.98273 10.4395,7.62252 z"
         style="font-style:normal;font-stretch:normal;font-family:Raleway;-inkscape-font-specification:'Raleway Light'"
         id="path6853" /><path
         d="m 1157.3194,997.17398 q 0,-7.78823 4.6398,-13.42227 4.6398,-5.79974 12.7594,-8.94818 8.1197,-3.31414 18.7249,-3.31414 6.6283,0 13.7537,1.15995 7.1254,1.15995 12.7594,3.14844 v -8.11965 q 0,-11.9309 -6.9597,-19.0563 -6.794,-7.1254 -18.8906,-7.1254 -6.4625,0 -13.4222,2.65131 -6.9597,2.65131 -14.2508,7.62252 l -3.4799,-5.96545 q 8.4511,-5.63404 16.2393,-8.45106 7.9539,-2.98272 15.7422,-2.98272 15.4107,0 24.3589,9.11388 8.9482,9.11389 8.9482,24.85605 v 42.75244 q 0,1.9885 0.8285,2.9827 0.9942,0.9942 2.817,1.1599 v 6.794 q -1.4913,0.1657 -2.4856,0.1657 -0.9942,0 -1.657,0 -3.1485,-0.4971 -4.9713,-2.6513 -1.657,-2.1542 -1.8227,-4.8055 v -6.794 q -5.9655,7.4568 -15.4108,11.5995 -9.2796,4.1427 -19.5534,4.1427 -8.1197,0 -14.7479,-3.4798 -6.4626,-3.4799 -10.2739,-9.4453 -3.6455,-6.1312 -3.6455,-13.58802 z m 59.3231,7.12542 q 1.6571,-2.1542 2.4856,-4.1427 0.8285,-1.98848 0.8285,-3.64555 v -14.2508 q -5.9654,-2.3199 -12.428,-3.47985 -6.4626,-1.15995 -13.2566,-1.15995 -12.9251,0 -21.0448,5.13692 -7.9539,5.13692 -7.9539,13.91939 0,5.46834 2.817,10.10814 2.817,4.6398 7.7883,7.4568 5.1369,2.817 11.7652,2.817 9.2795,0 17.0678,-3.4798 7.9539,-3.6456 11.9309,-9.2796 z"
         style="font-style:normal;font-stretch:normal;font-family:Raleway;-inkscape-font-specification:'Raleway Light'"
         id="path6855" /><path
         d="m 1323.855,1022.03 h -8.2853 v -48.055 q 0,-16.5707 -4.8055,-24.19322 -4.6398,-7.78823 -14.9137,-7.78823 -7.2911,0 -14.4165,3.47984 -6.9597,3.47985 -12.2623,9.61101 -5.1369,5.96545 -7.4568,13.58798 V 1022.03 h -8.2854 v -86.16761 h 7.7883 v 20.54767 q 3.4798,-6.62828 9.2796,-11.43379 5.7997,-4.97121 12.9251,-7.78823 7.1254,-2.81701 14.7479,-2.81701 7.1254,0 11.9309,2.65131 4.9712,2.4856 7.954,7.29111 3.1484,4.8055 4.4741,11.9309 1.3256,7.1254 1.3256,16.23929 z"
         style="font-style:normal;font-stretch:normal;font-family:Raleway;-inkscape-font-specification:'Raleway Light'"
         id="path6857" /><path
         d="m 1348.8768,1022.03 v -86.16761 h 8.2854 V 1022.03 Z m 0,-105.72104 v -15.24504 h 8.2854 v 15.24504 z"
         style="font-style:normal;font-stretch:normal;font-family:Raleway;-inkscape-font-specification:'Raleway Light'"
         id="path6859" /><path
         d="m 1421.6223,1017.8874 q -0.8285,0.3314 -3.3141,1.657 -2.4856,1.3257 -6.2969,2.4856 -3.8113,0.9943 -8.451,0.9943 -4.4741,0 -8.4511,-1.6571 -3.8113,-1.8228 -6.1312,-5.3026 -2.3199,-3.4799 -2.3199,-8.4511 v -64.95712 h -12.0966 v -6.79399 h 12.0966 v -29.49585 h 8.2854 v 29.49585 h 20.0505 v 6.79399 h -20.0505 v 62.96862 q 0.3314,4.8055 3.4798,7.2911 3.1485,2.3199 7.2911,2.3199 5.137,0 8.9482,-1.657 3.8113,-1.8228 4.4741,-2.3199 z"
         style="font-style:normal;font-stretch:normal;font-family:Raleway;-inkscape-font-specification:'Raleway Light'"
         id="path6861" /><path
         d="m 1436.2045,1022.03 v -86.16761 h 8.2853 V 1022.03 Z m 0,-105.72104 v -15.24504 h 8.2853 v 15.24504 z"
         style="font-style:normal;font-stretch:normal;font-family:Raleway;-inkscape-font-specification:'Raleway Light'"
         id="path6863" /><path
         d="m 1462.8834,1016.0646 60.6488,-73.73964 h -59.6545 v -6.46257 h 69.2655 v 5.96545 l -60.4831,73.73966 h 60.1517 v 6.4625 h -69.9284 z"
         style="font-style:normal;font-stretch:normal;font-family:Raleway;-inkscape-font-specification:'Raleway Light'"
         id="path6865" /><path
         d="m 1586.2961,1023.6871 q -9.1139,0 -16.9022,-3.4798 -7.7882,-3.6456 -13.5879,-9.7768 -5.6341,-6.2968 -8.9482,-14.41647 -3.1484,-8.28535 -3.1484,-17.39923 0,-12.26232 5.4683,-22.20474 5.4683,-9.94242 15.0793,-15.90788 9.611,-6.13115 21.5419,-6.13115 12.2624,0 21.7077,6.13115 9.4453,6.13116 14.9136,16.23929 5.634,9.94242 5.634,21.87333 0,0.99424 0,1.98848 0,0.99424 -0.1657,1.65707 h -75.5624 q 0.6629,9.77671 5.4684,17.73065 4.8055,7.9539 12.2623,12.5937 7.6225,4.4741 16.5707,4.4741 8.9481,0 16.9021,-4.6398 7.9539,-4.6398 11.1024,-11.9309 l 7.2911,1.9885 q -2.4856,6.1312 -7.954,10.9367 -5.3026,4.8055 -12.5937,7.6225 -7.1254,2.6513 -15.0793,2.6513 z m -34.3014,-47.88932 h 68.1056 q -0.6628,-10.10813 -5.3026,-17.89636 -4.6398,-7.78823 -12.2624,-12.26232 -7.4568,-4.47409 -16.5707,-4.47409 -9.1138,0 -16.5707,4.47409 -7.4568,4.47409 -12.0966,12.26232 -4.6398,7.78823 -5.3026,17.89636 z"
         style="font-style:normal;font-stretch:normal;font-family:Raleway;-inkscape-font-specification:'Raleway Light'"
         id="path6867" /><path
         d="m 1682.5912,904.37806 41.0953,65.12285 41.2611,-65.12285 h 9.4453 l -46.398,73.24249 V 1022.03 h -8.4511 v -44.74086 l -46.2322,-72.91108 z"
         style="font-style:normal;font-stretch:normal;font-family:Raleway;-inkscape-font-specification:'Raleway Light'"
         id="path6869" /><path
         d="m 1811.1602,1023.6871 q -9.1139,0 -16.9021,-3.4798 -7.6225,-3.4799 -13.2565,-9.6111 -5.6341,-6.2968 -8.7825,-14.41646 -3.1484,-8.11965 -3.1484,-17.06782 0,-9.11389 3.1484,-17.06782 3.1484,-8.11965 8.7825,-14.25081 5.7997,-6.29686 13.4222,-9.77671 7.7883,-3.64555 16.7364,-3.64555 8.9482,0 16.5707,3.64555 7.6226,3.47985 13.4223,9.77671 5.7997,6.13116 8.9482,14.25081 3.1484,7.95393 3.1484,17.06782 0,8.94817 -3.1484,17.06782 -3.1485,8.11966 -8.9482,14.41646 -5.634,6.1312 -13.4223,9.6111 -7.6225,3.4798 -16.5707,3.4798 z m -33.8042,-44.24377 q 0,10.10813 4.4741,18.55918 4.6398,8.28539 12.2623,13.25659 7.6225,4.9712 16.9021,4.9712 9.2796,0 16.9021,-4.9712 7.7883,-5.1369 12.2624,-13.588 4.6398,-8.61676 4.6398,-18.72489 0,-10.10813 -4.6398,-18.55918 -4.4741,-8.45106 -12.2624,-13.42227 -7.6225,-5.13692 -16.7364,-5.13692 -9.2796,0 -16.9021,5.13692 -7.6225,5.13691 -12.2623,13.58797 -4.6398,8.45106 -4.6398,18.8906 z"
         style="font-style:normal;font-stretch:normal;font-family:Raleway;-inkscape-font-specification:'Raleway Light'"
         id="path6871" /><path
         d="m 1872.3063,985.57449 v -49.7121 h 8.2853 v 48.55215 q 0,16.07356 5.3026,24.02756 5.4684,7.7882 16.405,7.7882 7.2911,0 13.9194,-3.1484 6.794,-3.3142 11.9309,-9.1139 5.1369,-5.96549 7.6225,-13.75371 v -54.3519 h 8.2854 v 75.23101 q 0,1.9885 0.8285,2.9827 0.9943,0.9942 2.6513,1.1599 v 6.794 q -1.657,0.1657 -2.6513,0.1657 -0.8285,0 -1.4913,-0.1657 -2.817,-0.3314 -4.6398,-2.3199 -1.8228,-2.1542 -1.9885,-5.1369 l -0.1657,-12.9251 q -5.6341,10.2738 -15.5765,16.2393 -9.7767,5.7997 -21.2105,5.7997 -13.5879,0 -20.5476,-9.611 -6.9597,-9.611 -6.9597,-28.50161 z"
         style="font-style:normal;font-stretch:normal;font-family:Raleway;-inkscape-font-specification:'Raleway Light'"
         id="path6873" /><path
         d="m 2011.1687,943.3192 q -11.5994,0.33142 -20.3819,6.9597 -8.6168,6.46257 -12.0966,17.89635 V 1022.03 h -8.2854 v -86.16761 h 7.954 v 21.2105 q 4.474,-9.11389 11.9309,-14.74793 7.4568,-5.79974 15.7421,-6.62828 1.6571,-0.16571 2.9828,-0.16571 1.3256,0 2.1541,0 z"
         style="font-style:normal;font-stretch:normal;font-family:Raleway;-inkscape-font-specification:'Raleway Light'"
         id="path6875" /><path
         d="M 2068.0791,1022.03 V 904.37806 h 39.1069 q 18.7249,0 30.9872,7.95393 12.428,7.78823 18.5592,21.2105 6.2969,13.25656 6.2969,29.49585 0,17.89635 -6.794,31.15291 -6.794,13.25655 -19.3877,20.54765 -12.5938,7.2911 -29.6616,7.2911 z m 86.4991,-58.99166 q 0,-14.74793 -5.634,-26.34742 -5.4684,-11.59949 -16.0736,-18.06206 -10.4396,-6.62828 -25.6846,-6.62828 h -30.6558 v 102.40692 h 30.6558 q 15.4108,0 26.016,-6.794 10.6052,-6.794 15.9079,-18.39346 5.4683,-11.76519 5.4683,-26.1817 z"
         style="font-style:normal;font-stretch:normal;font-family:Raleway;-inkscape-font-specification:'Raleway Light'"
         id="path6877" /><path
         d="m 2176.2514,997.17398 q 0,-7.78823 4.6398,-13.42227 4.6398,-5.79974 12.7594,-8.94818 8.1197,-3.31414 18.7249,-3.31414 6.6283,0 13.7537,1.15995 7.1254,1.15995 12.7595,3.14844 v -8.11965 q 0,-11.9309 -6.9597,-19.0563 -6.794,-7.1254 -18.8906,-7.1254 -6.4626,0 -13.4223,2.65131 -6.9597,2.65131 -14.2508,7.62252 l -3.4799,-5.96545 q 8.4511,-5.63404 16.2393,-8.45106 7.954,-2.98272 15.7422,-2.98272 15.4107,0 24.3589,9.11388 8.9482,9.11389 8.9482,24.85605 v 42.75244 q 0,1.9885 0.8285,2.9827 0.9943,0.9942 2.8171,1.1599 v 6.794 q -1.4914,0.1657 -2.4856,0.1657 -0.9943,0 -1.6571,0 -3.1485,-0.4971 -4.9712,-2.6513 -1.6571,-2.1542 -1.8228,-4.8055 v -6.794 q -5.9655,7.4568 -15.4108,11.5995 -9.2795,4.1427 -19.5534,4.1427 -8.1196,0 -14.7479,-3.4798 -6.4626,-3.4799 -10.2738,-9.4453 -3.6456,-6.1312 -3.6456,-13.58802 z m 59.3231,7.12542 q 1.6571,-2.1542 2.4856,-4.1427 0.8286,-1.98848 0.8286,-3.64555 v -14.2508 q -5.9655,-2.3199 -12.4281,-3.47985 -6.4625,-1.15995 -13.2565,-1.15995 -12.9252,0 -21.0448,5.13692 -7.954,5.13692 -7.954,13.91939 0,5.46834 2.8171,10.10814 2.817,4.6398 7.7882,7.4568 5.1369,2.817 11.7652,2.817 9.2796,0 17.0678,-3.4798 7.9539,-3.6456 11.9309,-9.2796 z"
         style="font-style:normal;font-stretch:normal;font-family:Raleway;-inkscape-font-specification:'Raleway Light'"
         id="path6879" /><path
         d="m 2310.1429,1017.8874 q -0.8286,0.3314 -3.3142,1.657 -2.4856,1.3257 -6.2969,2.4856 -3.8112,0.9943 -8.451,0.9943 -4.4741,0 -8.4511,-1.6571 -3.8112,-1.8228 -6.1311,-5.3026 -2.3199,-3.4799 -2.3199,-8.4511 v -64.95712 h -12.0966 v -6.79399 h 12.0966 v -29.49585 h 8.2853 v 29.49585 h 20.0506 v 6.79399 h -20.0506 v 62.96862 q 0.3314,4.8055 3.4799,7.2911 3.1484,2.3199 7.2911,2.3199 5.1369,0 8.9482,-1.657 3.8112,-1.8228 4.474,-2.3199 z"
         style="font-style:normal;font-stretch:normal;font-family:Raleway;-inkscape-font-specification:'Raleway Light'"
         id="path6881" /><path
         d="m 2317.5995,997.17398 q 0,-7.78823 4.6398,-13.42227 4.6398,-5.79974 12.7595,-8.94818 8.1196,-3.31414 18.7249,-3.31414 6.6283,0 13.7537,1.15995 7.1254,1.15995 12.7594,3.14844 v -8.11965 q 0,-11.9309 -6.9597,-19.0563 -6.794,-7.1254 -18.8906,-7.1254 -6.4626,0 -13.4223,2.65131 -6.9597,2.65131 -14.2508,7.62252 l -3.4798,-5.96545 q 8.451,-5.63404 16.2393,-8.45106 7.9539,-2.98272 15.7421,-2.98272 15.4108,0 24.359,9.11388 8.9481,9.11389 8.9481,24.85605 v 42.75244 q 0,1.9885 0.8286,2.9827 0.9942,0.9942 2.817,1.1599 v 6.794 q -1.4914,0.1657 -2.4856,0.1657 -0.9942,0 -1.6571,0 -3.1484,-0.4971 -4.9712,-2.6513 -1.6571,-2.1542 -1.8228,-4.8055 v -6.794 q -5.9654,7.4568 -15.4107,11.5995 -9.2796,4.1427 -19.5534,4.1427 -8.1197,0 -14.748,-3.4798 -6.4625,-3.4799 -10.2738,-9.4453 -3.6456,-6.1312 -3.6456,-13.58802 z m 59.3232,7.12542 q 1.657,-2.1542 2.4856,-4.1427 0.8285,-1.98848 0.8285,-3.64555 v -14.2508 q -5.9655,-2.3199 -12.428,-3.47985 -6.4626,-1.15995 -13.2566,-1.15995 -12.9251,0 -21.0448,5.13692 -7.9539,5.13692 -7.9539,13.91939 0,5.46834 2.817,10.10814 2.817,4.6398 7.7882,7.4568 5.137,2.817 11.7652,2.817 9.2796,0 17.0679,-3.4798 7.9539,-3.6456 11.9309,-9.2796 z"
         style="font-style:normal;font-stretch:normal;font-family:Raleway;-inkscape-font-specification:'Raleway Light'"
         id="path6883" /></g><g
       aria-label="PASTEUR"
       id="text6740"
       style="font-weight:bold;font-size:305.257px;font-family:Raleway;-inkscape-font-specification:'Raleway Bold';display:inline;fill:#f7dc6e;stroke-width:1.62447"><path
         d="M 1054.7644,850.23981 V 633.50735 h 92.4929 q 15.5681,0 28.3889,6.41039 13.1261,6.10514 22.589,16.78914 9.463,10.37873 14.6524,23.50478 5.1893,13.12606 5.1893,26.86262 0,18.62068 -8.8524,35.40981 -8.5472,16.78913 -24.1153,27.47313 -15.2629,10.37874 -36.3256,10.37874 h -43.957 v 69.90385 z m 50.0622,-113.5556 h 40.9044 q 5.7999,0 10.684,-3.35783 4.8841,-3.35783 7.9367,-10.07348 3.0526,-6.71565 3.0526,-16.48388 0,-10.07348 -3.6631,-16.48387 -3.3578,-6.71566 -8.8525,-9.76823 -5.1893,-3.05257 -10.9892,-3.05257 h -39.0729 z"
         style="font-weight:800;-inkscape-font-specification:'Raleway Ultra-Bold'"
         id="path6838" /><path
         d="m 1283.7966,633.50735 h 54.0305 l 74.4827,216.73246 h -51.2832 l -16.7891,-48.53586 h -67.4618 l -16.4839,48.53586 h -51.2832 z m 52.1989,133.70256 -25.3363,-83.33516 -25.9469,83.33516 z"
         style="font-weight:800;-inkscape-font-specification:'Raleway Ultra-Bold'"
         id="path6840" /><path
         d="m 1561.0955,697.0008 q -0.9158,-1.52629 -6.4104,-4.57886 -5.4946,-3.35782 -13.7366,-7.02091 -8.2419,-3.66308 -18.0101,-6.41039 -9.7683,-2.74732 -19.5365,-2.74732 -12.8208,0 -19.8417,4.57886 -7.0209,4.2736 -7.0209,13.43131 0,7.32616 5.1894,11.59976 5.4946,4.2736 15.5681,7.63143 10.0734,3.05257 24.7258,7.32616 20.7575,5.49463 36.0203,13.43131 15.2629,7.63143 23.1995,19.84171 8.242,12.21028 8.242,32.35724 0,18.31542 -6.7157,31.13621 -6.7156,12.51554 -18.3154,20.45222 -11.2945,7.63142 -25.9468,11.29451 -14.6524,3.35782 -30.2205,3.35782 -15.8733,0 -32.6625,-3.05257 -16.4839,-3.35782 -31.7467,-9.15771 -15.2629,-6.10514 -28.0837,-14.65233 l 21.9786,-43.65175 q 1.221,1.52628 7.9366,5.79988 6.7157,3.96834 16.4839,8.5472 10.0735,4.27359 22.2838,7.63142 12.2103,3.35783 24.7258,3.35783 13.4313,0 19.8417,-4.2736 6.7156,-4.2736 6.7156,-11.90502 0,-8.24194 -7.0209,-12.8208 -6.7156,-4.57885 -18.6206,-8.24193 -11.5998,-3.66309 -26.8627,-8.24194 -19.8417,-6.10514 -32.9677,-13.73657 -12.8208,-7.63142 -19.2312,-18.62067 -6.1051,-10.98925 -6.1051,-27.47313 0,-22.89428 10.684,-38.46238 10.9892,-15.87337 29.3046,-23.81005 18.3154,-8.24194 39.9887,-8.24194 15.2628,0 29.3047,3.66309 14.347,3.66308 26.5573,9.15771 12.5156,5.49462 22.2838,10.98925 z"
         style="font-weight:800;-inkscape-font-specification:'Raleway Ultra-Bold'"
         id="path6842" /><path
         d="m 1783.933,677.46435 h -65.9355 v 172.77546 h -50.0622 V 677.46435 h -66.2407 v -43.957 h 182.2384 z"
         style="font-weight:800;-inkscape-font-specification:'Raleway Ultra-Bold'"
         id="path6844" /><path
         d="m 1960.6769,806.2828 v 43.95701 H 1808.3537 V 633.50735 h 149.5759 v 43.957 h -99.5138 v 42.12547 h 85.472 V 760.189 h -85.472 v 46.0938 z"
         style="font-weight:800;-inkscape-font-specification:'Raleway Ultra-Bold'"
         id="path6846" /><path
         d="m 2084.3062,852.07135 q -25.9468,0 -44.2622,-8.5472 -18.3155,-8.85245 -29.9152,-23.81004 -11.2945,-15.26285 -16.7892,-34.49404 -5.1893,-19.53645 -5.1893,-40.90444 V 633.50735 h 50.0621 v 110.80828 q 0,12.21028 2.4421,23.81005 2.442,11.29451 7.9367,20.14696 5.4946,8.85245 14.0418,14.04182 8.8524,5.18937 21.6732,5.18937 13.1261,0 21.9785,-5.18937 8.8525,-5.49463 14.0419,-14.34708 5.1893,-9.15771 7.6314,-20.45222 2.442,-11.29451 2.442,-23.19953 V 633.50735 h 50.0622 v 110.80828 q 0,22.58902 -5.7999,42.12547 -5.4946,19.53644 -17.0944,34.49404 -11.5998,14.65233 -29.9152,22.89427 -18.0101,8.24194 -43.3465,8.24194 z"
         style="font-weight:800;-inkscape-font-specification:'Raleway Ultra-Bold'"
         id="path6848" /><path
         d="M 2219.2298,850.23981 V 633.50735 h 97.6822 q 15.2629,0 28.0836,6.41039 13.1261,6.10514 22.5891,16.78914 9.4629,10.37873 14.6523,23.50478 5.4946,13.12606 5.4946,26.55736 0,13.43131 -4.2736,25.64159 -4.2736,11.90502 -12.2103,21.67325 -7.9366,9.46296 -18.9259,15.5681 l 47.6201,80.58785 h -55.2515 l -41.515,-69.90385 h -33.8835 v 69.90385 z m 50.0621,-113.5556 h 45.7886 q 6.1051,0 10.684,-3.66309 4.8841,-3.96834 7.9366,-10.68399 3.0526,-6.71565 3.0526,-15.56811 0,-8.85245 -3.6631,-15.26285 -3.3578,-6.71565 -8.5472,-10.37873 -5.1893,-3.66309 -10.9892,-3.66309 h -44.2623 z"
         style="font-weight:800;-inkscape-font-specification:'Raleway Ultra-Bold'"
         id="path6850" /></g></g></svg>
